<svg xmlns="http://www.w3.org/2000/svg" xmlns:xlink="http://www.w3.org/1999/xlink" viewBox="0,0,256,256" width="50px" height="50px" fill-rule="nonzero"><g fill="#ffffff" fill-rule="nonzero" stroke="none" stroke-width="1" stroke-linecap="butt" stroke-linejoin="miter" stroke-miterlimit="10" stroke-dasharray="" stroke-dashoffset="0" font-family="none" font-weight="none" font-size="none" text-anchor="none" style="mix-blend-mode: normal"><g transform="scale(5.12,5.12)"><path d="M28.8125,0.03125l-28,5.3125c-0.47266,0.08984 -0.8125,0.51953 -0.8125,1v37.3125c0,0.48047 0.33984,0.91016 0.8125,1l28,5.3125c0.0625,0.01172 0.125,0.03125 0.1875,0.03125c0.23047,0 0.44531,-0.07031 0.625,-0.21875c0.23047,-0.19141 0.375,-0.48437 0.375,-0.78125v-48c0,-0.29687 -0.14453,-0.58984 -0.375,-0.78125c-0.23047,-0.19141 -0.51953,-0.24219 -0.8125,-0.1875zM32,6v7h12v2h-12v5h12v2h-12v5h12v2h-12v6h12v2h-12v7h15c1.10156,0 2,-0.89844 2,-2v-34c0,-1.10156 -0.89844,-2 -2,-2zM4.625,15.65625h3.5625l2.03125,12.4375c0.08984,0.52734 0.14844,1.26172 0.1875,2.15625h0.0625c0.02734,-0.66797 0.14453,-1.39453 0.3125,-2.1875l2.625,-12.40625h3.5l2.375,12.5625c0.08594,0.46094 0.15234,1.12109 0.21875,2h0.03125c0.02734,-0.6875 0.10156,-1.39062 0.21875,-2.09375l2,-12.46875h3.3125l-3.84375,18.6875h-3.625l-2.40625,-11.96875c-0.12891,-0.625 -0.19141,-1.35156 -0.21875,-2.125h-0.03125c-0.0625,0.85156 -0.16797,1.57422 -0.28125,2.125l-2.46875,11.96875h-3.75z"></path></g></g></svg>