<?xml version="1.0" standalone="no"?>
<!DOCTYPE svg PUBLIC "-//W3C//DTD SVG 20010904//EN"
 "http://www.w3.org/TR/2001/REC-SVG-20010904/DTD/svg10.dtd">
<svg version="1.0" xmlns="http://www.w3.org/2000/svg"
 width="643.000000pt" height="206.000000pt" viewBox="0 0 643.000000 206.000000"
 preserveAspectRatio="xMidYMid meet">

<g transform="translate(0.000000,206.000000) scale(0.100000,-0.100000)"
fill="#d8b15d" stroke="none">
<path d="M3231 1782 c-2 -55 -37 -140 -89 -210 -59 -80 -88 -135 -101 -192
-13 -56 -7 -67 50 -95 74 -38 117 -81 133 -134 9 -29 15 -37 15 -23 2 55 54
114 140 157 l54 27 -6 53 c-6 60 -32 117 -88 192 -55 73 -78 121 -94 194 -10
47 -14 55 -14 31z m8 -204 c0 -35 -4 -55 -7 -46 -7 18 -4 108 4 108 2 0 4 -28
3 -62z m25 -53 c-23 -62 -31 -48 -8 15 10 28 20 47 22 41 2 -6 -4 -31 -14 -56z
m-35 -44 c-1 -22 -37 58 -38 84 0 11 8 1 19 -24 11 -24 20 -51 19 -60z m-28
-7 c9 -16 20 -40 23 -54 6 -23 6 -23 -5 -5 -6 11 -22 36 -35 55 -12 19 -25 49
-29 65 l-6 30 18 -31 c10 -17 25 -44 34 -60z m75 -16 c-23 -41 -36 -56 -36
-42 0 12 13 41 30 65 16 24 30 51 31 59 1 11 3 10 6 -2 2 -10 -12 -46 -31 -80z
m-116 -24 c0 -6 13 -24 30 -40 36 -36 39 -50 4 -28 -29 20 -49 55 -57 104 l-6
35 14 -30 c8 -16 14 -35 15 -41z m166 12 c-7 -29 -42 -73 -69 -88 -15 -8 -11
1 14 29 21 23 40 56 44 74 5 19 10 28 12 21 3 -7 2 -23 -1 -36z m-145 -90 c19
-16 40 -38 48 -50 l14 -21 -24 21 c-13 11 -36 28 -51 37 -32 20 -43 39 -52 87
l-7 35 19 -40 c11 -23 34 -54 53 -69z m154 28 c-9 -17 -35 -41 -58 -54 l-42
-22 47 44 c26 24 51 56 55 73 6 24 8 26 11 10 2 -10 -3 -33 -13 -51z m-174
-93 c24 -13 51 -30 60 -38 14 -12 18 -11 29 2 8 9 30 25 49 35 43 22 65 45 79
85 7 19 11 23 11 12 2 -44 -30 -86 -86 -112 -30 -14 -57 -33 -60 -42 -5 -13
-7 -13 -15 1 -5 9 -34 28 -63 41 -55 24 -76 50 -88 110 -5 21 0 15 17 -20 17
-38 33 -56 67 -74z"/>
<path d="M1690 1702 c-63 -31 -108 -128 -96 -205 5 -29 2 -47 -11 -66 -12 -17
-18 -45 -18 -86 0 -72 31 -135 83 -167 18 -11 31 -22 28 -25 -6 -7 -67 26 -95
51 l-23 21 7 -25 c31 -110 91 -165 243 -223 69 -26 108 -48 132 -72 19 -19 30
-38 27 -42 -4 -4 -13 -1 -19 5 -15 15 -108 16 -108 2 0 -5 6 -10 14 -10 8 0
48 -31 91 -70 77 -70 117 -90 184 -90 55 0 112 22 147 57 38 38 44 40 44 14 0
-10 9 -30 21 -45 46 -59 123 -72 199 -33 57 28 80 72 79 147 -1 51 -1 53 -11
25 -16 -46 -27 -55 -67 -55 -66 0 -104 65 -74 127 32 68 144 124 247 122 l51
0 -42 -19 c-25 -11 -51 -33 -63 -52 -23 -38 -26 -111 -6 -147 13 -23 13 -22
14 22 1 41 28 105 39 94 2 -3 -1 -26 -8 -52 -23 -89 24 -166 100 -164 35 1 36
1 9 10 -27 10 -68 78 -68 112 0 45 30 88 74 107 54 24 95 18 136 -20 41 -38
43 -101 5 -126 -31 -20 -45 -11 -22 14 20 22 22 67 5 79 -15 9 -55 5 -83 -9
-16 -7 -15 -5 4 11 28 25 7 29 -26 6 -49 -34 -36 -117 24 -165 23 -18 38 -21
86 -18 48 4 63 9 88 35 59 58 48 145 -29 251 -20 28 -54 78 -75 111 -27 43
-52 69 -85 88 -26 14 -58 36 -70 47 l-24 21 7 -50 c11 -76 29 -102 93 -134 67
-35 64 -39 -11 -11 -32 12 -68 36 -92 61 -96 100 -201 105 -337 18 -41 -27
-55 -30 -102 -27 -49 3 -53 1 -45 -14 5 -10 31 -30 57 -45 48 -29 117 -36 187
-20 29 6 29 6 -5 -11 -27 -12 -64 -16 -160 -17 -112 0 -130 3 -173 24 -59 28
-83 71 -73 125 8 41 38 66 78 66 33 0 68 -31 68 -62 0 -20 1 -20 19 -4 47 43
28 126 -36 152 -104 44 -230 -43 -234 -161 0 -20 -5 -9 -14 33 -20 89 -43 116
-140 162 -104 50 -125 78 -125 172 0 48 6 77 24 111 31 62 21 72 -44 39z m37
-285 c10 -18 47 -51 82 -74 110 -72 128 -96 170 -225 21 -64 64 -118 93 -118
6 0 8 -3 5 -6 -7 -8 -57 22 -74 45 -7 9 -26 51 -44 94 -42 104 -74 145 -152
196 -77 50 -105 89 -112 157 l-4 49 9 -43 c5 -24 17 -58 27 -75z m-18 -205
c61 -43 121 -104 141 -144 7 -12 -4 -4 -25 20 -21 24 -69 68 -107 99 -68 54
-108 103 -108 133 0 8 9 -4 21 -26 13 -27 40 -56 78 -82z m179 -22 c12 -24 22
-57 22 -72 0 -44 28 -102 58 -121 16 -10 21 -17 12 -17 -13 0 -13 -1 0 -11 12
-8 9 -9 -10 -4 -64 17 -88 53 -110 167 -6 31 -22 73 -35 92 -14 20 -21 36 -18
36 4 0 -6 14 -23 32 -21 24 -15 21 26 -13 30 -25 65 -65 78 -89z m183 54 c-26
-34 -28 -105 -3 -154 29 -59 71 -75 192 -74 74 0 93 -2 65 -7 -182 -34 -285
20 -285 151 0 43 5 64 21 84 11 14 23 26 25 26 3 0 -4 -12 -15 -26z m832 -94
c15 -12 27 -28 27 -36 0 -10 -7 -13 -27 -8 -47 10 -54 14 -48 24 3 5 0 10 -8
10 -8 0 -20 7 -27 15 -11 13 -8 13 25 -1 53 -22 54 -11 1 20 -25 15 -50 36
-56 47 -11 19 18 1 113 -71z m-273 43 c13 -9 46 -29 73 -44 45 -24 46 -26 21
-26 -16 0 -47 8 -70 17 -35 15 -53 17 -111 10 -38 -5 -81 -14 -97 -19 -48 -19
-63 -11 -16 9 25 10 72 20 105 21 58 2 59 2 20 10 -35 7 -32 7 20 5 l60 -3
-35 15 c-28 11 -42 12 -73 2 -70 -21 -73 -21 -32 0 49 24 103 25 135 3z m-930
-87 c52 -8 114 -42 150 -82 l25 -28 -40 31 c-53 40 -70 48 -132 62 -29 7 -59
22 -70 34 -18 22 -18 22 2 6 11 -9 40 -19 65 -23z m905 19 c-76 -23 -167 -46
-171 -42 -8 8 109 44 146 45 19 0 31 -1 25 -3z m-528 -104 c10 -6 12 -11 5
-11 -23 0 -62 48 -62 77 0 26 2 25 19 -13 11 -23 27 -47 38 -53z m425 17 c-24
-11 -42 -22 -39 -25 3 -2 14 0 25 6 43 23 35 10 -13 -23 -61 -40 -80 -74 -79
-135 1 -32 -1 -40 -7 -26 -21 54 -1 117 48 154 15 11 22 21 14 21 -24 0 -88
-74 -102 -119 -9 -32 -10 -53 -2 -83 6 -22 7 -36 1 -30 -14 14 -21 77 -14 117
10 50 61 103 131 137 33 15 65 28 70 27 6 0 -10 -10 -33 -21z m420 -14 c41
-21 43 -34 3 -23 -20 6 -46 7 -58 4 -12 -4 -31 -9 -42 -11 -20 -5 -20 -5 0 7
10 7 33 16 50 20 26 6 23 7 -20 8 -33 1 -65 -6 -90 -19 -46 -23 -57 -20 -18 5
54 36 116 39 175 9z m92 -51 c13 -27 27 -63 31 -81 18 -86 -69 -150 -145 -107
-30 17 -21 20 14 4 30 -14 70 -5 96 21 27 27 25 83 -5 148 -26 57 -28 62 -20
62 2 0 15 -21 29 -47z m-726 -74 c-82 -120 -129 -154 -208 -154 -33 0 -65 6
-71 12 -9 9 -3 9 25 3 44 -10 93 0 139 29 36 22 124 127 114 137 -3 3 -19 -14
-35 -38 -45 -65 -83 -96 -129 -106 -25 -6 -43 -6 -43 -1 0 5 9 9 20 9 36 0 76
27 130 90 59 68 55 82 -5 19 -47 -49 -107 -79 -155 -78 -32 1 -30 2 17 13 34
8 69 27 99 52 77 65 82 68 98 55 11 -9 16 -9 22 0 4 8 3 9 -4 5 -7 -4 -12 -2
-12 3 0 6 6 11 14 11 7 0 19 7 26 15 32 39 14 7 -42 -76z m162 -58 c0 -8 10
-25 22 -38 24 -25 76 -31 96 -11 8 8 12 9 12 1 0 -6 -15 -16 -34 -23 -47 -15
-83 1 -101 45 -18 41 -21 79 -5 55 5 -8 10 -21 10 -29z"/>
<path d="M1832 1233 c29 -36 43 -75 53 -145 7 -51 45 -108 72 -108 10 0 6 7
-12 22 -33 26 -55 75 -55 123 0 43 -19 81 -56 115 l-28 25 26 -32z"/>
<path d="M2674 1146 c11 -9 24 -16 30 -16 12 0 7 5 -24 19 -24 11 -24 11 -6
-3z"/>
<path d="M4718 1715 c-4 -4 3 -26 15 -48 17 -33 22 -59 22 -119 0 -71 -2 -79
-30 -108 -16 -18 -61 -47 -100 -65 -38 -17 -78 -41 -88 -53 -24 -27 -46 -87
-47 -132 -2 -33 -2 -32 -14 16 -16 66 -48 109 -99 135 -70 36 -165 12 -188
-48 -13 -34 -3 -76 22 -99 18 -17 19 -16 19 9 0 45 63 72 110 47 24 -13 41
-64 33 -100 -13 -70 -100 -110 -234 -110 -79 0 -175 15 -184 29 -2 5 17 4 44
-1 78 -14 176 19 208 71 9 14 3 16 -46 13 -50 -3 -62 1 -111 33 -121 78 -234
74 -314 -13 -23 -24 -60 -53 -84 -63 -48 -21 -76 -25 -52 -8 11 8 6 9 -22 5
-47 -6 -51 13 -10 44 87 67 121 89 110 71 -6 -11 -31 -32 -55 -47 -51 -32 -51
-40 0 -19 21 8 37 13 37 10 0 -3 -13 -12 -29 -18 -21 -9 -27 -17 -22 -26 13
-21 70 14 87 54 16 40 20 131 4 103 -6 -9 -35 -30 -65 -47 -46 -26 -66 -47
-122 -131 -106 -157 -115 -177 -110 -238 3 -44 10 -59 36 -85 29 -29 37 -32
95 -32 54 0 68 4 90 24 50 47 54 122 8 157 -28 22 -47 16 -21 -6 l24 -19 -33
12 c-26 9 -37 9 -53 -1 -16 -10 -19 -10 -14 -1 5 8 4 10 -3 5 -17 -10 -15 -57
4 -77 22 -24 1 -33 -27 -11 -48 40 -16 126 57 150 33 11 45 11 79 -3 50 -19
75 -58 75 -118 0 -48 -26 -92 -64 -107 -17 -7 -15 -9 16 -9 84 -2 132 111 86
202 -5 11 -5 17 1 17 18 0 41 -57 42 -102 l1 -43 13 30 c19 40 18 99 0 135
-16 30 -37 46 -90 67 -29 11 -27 12 26 12 84 1 155 -26 211 -79 40 -38 48 -53
48 -82 0 -52 -32 -88 -80 -88 -42 0 -59 15 -70 63 -7 26 -8 20 -9 -33 -1 -81
22 -123 82 -150 86 -40 171 -15 204 57 10 21 18 39 19 41 0 1 18 -13 38 -32
56 -53 135 -69 218 -44 23 7 68 38 113 80 42 37 82 68 90 68 8 0 15 5 15 10 0
17 -89 11 -117 -7 l-27 -18 19 33 c23 39 71 69 172 106 129 49 203 114 219
194 l7 33 -49 -30 c-65 -42 -77 -39 -26 5 24 20 49 49 57 65 20 37 21 139 4
170 -8 13 -14 53 -14 89 -1 104 -52 188 -125 205 -14 3 -29 3 -32 0z m59 -217
c-3 -7 -5 -2 -5 12 0 14 2 19 5 13 2 -7 2 -19 0 -25z m-27 -86 c-13 -23 -49
-56 -91 -86 -84 -57 -120 -105 -150 -194 -22 -67 -80 -142 -110 -142 -8 0 0 9
18 20 36 22 50 45 84 145 27 79 87 148 174 200 34 21 56 43 70 71 11 23 21 37
23 33 2 -5 -6 -26 -18 -47z m100 -118 c-15 -38 -43 -68 -113 -117 -32 -22 -74
-62 -93 -89 -40 -54 -54 -63 -27 -17 21 36 76 90 153 151 30 24 61 58 69 76
18 39 26 36 11 -4z m-165 -4 c-16 -16 -25 -30 -20 -30 4 0 1 -8 -7 -17 -27
-31 -46 -77 -53 -128 -14 -95 -40 -132 -105 -150 -19 -5 -21 -4 -10 4 8 6 10
11 4 11 -7 0 3 15 21 33 23 23 34 46 39 77 15 98 18 105 82 168 65 62 102 88
49 32z m-269 -55 c12 -19 15 -41 12 -85 -8 -108 -62 -151 -188 -149 -41 1 -88
4 -105 8 -17 4 16 7 75 6 127 0 161 14 191 78 31 70 23 130 -25 170 l-21 18
23 -11 c12 -6 29 -22 38 -35z m-431 -50 c53 -27 50 -26 -32 1 -48 16 -56 16
-85 2 l-33 -15 60 3 c52 2 55 2 20 -5 l-40 -8 51 -2 c27 0 78 -10 113 -22 73
-25 77 -36 5 -14 -27 9 -80 20 -119 25 -59 7 -76 6 -111 -9 -22 -10 -54 -18
-69 -18 -29 0 -29 0 8 19 21 10 43 16 49 12 6 -4 8 -3 5 3 -10 17 54 53 93 53
19 0 58 -11 85 -25z m860 -55 c-10 -16 -56 -37 -97 -44 -20 -4 -61 -23 -90
-42 -47 -31 -50 -33 -28 -9 32 35 87 63 139 71 22 4 49 13 58 20 22 16 26 17
18 4z m-885 -16 c25 -9 51 -18 59 -20 8 -3 12 -7 9 -9 -3 -3 -34 3 -69 14 -35
11 -73 21 -84 24 -14 3 -11 5 10 6 16 0 50 -6 75 -15z m490 -29 c0 -27 -40
-75 -62 -75 -7 0 -3 8 9 18 12 9 28 32 34 50 13 39 19 41 19 7z m-445 -54 c67
-31 107 -72 125 -126 16 -49 5 -118 -23 -141 l-22 -19 20 23 c14 17 19 38 19
77 0 78 -37 128 -133 178 -85 43 -74 50 14 8z m-305 -1 c8 -5 24 -18 35 -31
20 -22 20 -22 -12 1 -25 18 -49 24 -95 27 -46 2 -55 0 -33 -6 17 -4 40 -13 50
-20 18 -11 18 -11 -5 -6 -14 4 -33 9 -42 11 -10 3 -34 0 -55 -5 l-37 -10 21
20 c35 35 123 44 173 19z m311 -30 c59 -38 84 -86 73 -138 l-8 -37 -6 54 c-5
46 -11 58 -46 90 -22 20 -49 41 -60 48 -10 6 -15 12 -10 12 5 1 31 -13 57 -29z
m-547 -35 c-38 -87 -32 -145 17 -170 38 -20 61 -19 95 6 l29 21 -28 -26 c-32
-30 -65 -33 -107 -11 -59 30 -64 80 -20 173 36 77 48 82 14 7z m704 -5 c7 0
12 -4 12 -10 0 -5 6 -7 13 -4 7 2 39 -18 72 -46 53 -45 76 -56 150 -73 12 -3
8 -5 -13 -6 -49 -2 -101 24 -154 76 -69 68 -67 49 4 -30 49 -55 67 -68 99 -73
21 -4 39 -10 39 -14 0 -4 -19 -4 -41 1 -23 6 -44 7 -47 5 -10 -11 54 -28 103
-28 36 0 44 -2 30 -8 -59 -25 -143 6 -200 73 -44 51 -124 178 -98 155 11 -10
25 -18 31 -18z m-139 -138 c-15 -45 -59 -67 -105 -52 -19 6 -34 17 -34 23 0 8
4 7 12 -1 7 -7 27 -12 44 -12 43 0 74 38 75 94 1 40 1 40 10 11 5 -19 5 -42
-2 -63z"/>
<path d="M4616 1220 c-26 -28 -36 -49 -36 -73 -1 -61 -18 -111 -50 -139 -35
-32 -25 -38 13 -8 18 15 29 36 37 78 17 87 29 120 57 152 37 44 21 36 -21 -10z"/>
<path d="M4169 933 c19 -36 106 -137 121 -140 9 -3 6 3 -7 14 -12 10 -42 46
-67 81 -44 59 -68 82 -47 45z"/>
<path d="M2892 1433 c-21 -8 -42 -59 -42 -101 0 -21 11 -61 25 -89 23 -46 56
-81 203 -215 52 -48 84 -99 109 -173 12 -36 13 -27 10 105 -2 123 -6 152 -25
193 -40 90 -94 137 -204 178 -73 27 -85 41 -71 80 6 16 11 29 10 28 -1 0 -8
-3 -15 -6z m68 -139 c0 -8 -4 -12 -10 -9 -5 3 -10 13 -10 21 0 8 5 12 10 9 6
-3 10 -13 10 -21z m21 -54 c3 0 4 15 2 33 l-3 32 10 -29 c5 -17 7 -32 5 -34
-2 -2 18 -22 45 -43 56 -44 93 -90 115 -142 19 -46 19 -52 -1 -32 -9 9 -29 19
-45 22 -16 3 -32 10 -36 16 -6 10 24 5 62 -10 16 -6 16 -4 0 20 -9 15 -18 27
-19 27 -31 7 -105 39 -89 39 12 1 34 -4 50 -10 l28 -10 -28 29 c-15 16 -33 29
-40 29 -26 1 -101 26 -89 30 7 3 27 0 45 -6 l32 -11 -29 22 c-17 12 -35 23
-40 24 -6 1 -27 9 -46 18 l-35 16 35 -6 35 -6 -25 28 c-15 18 -9 14 16 -8 22
-21 42 -38 45 -38z m62 2 c4 -21 3 -31 -3 -27 -6 3 -10 20 -10 37 0 38 5 34
13 -10z m57 -50 c0 -13 -4 -20 -10 -17 -5 3 -10 21 -10 38 0 24 3 28 10 17 5
-8 10 -25 10 -38z m42 -61 c-9 -24 -22 12 -15 40 l7 24 6 -25 c4 -14 4 -31 2
-39z m37 -54 c1 -10 -3 -15 -9 -12 -5 3 -10 23 -9 43 1 33 2 34 9 12 4 -14 8
-33 9 -43z"/>
<path d="M3564 1424 c36 -36 13 -63 -88 -105 -91 -37 -146 -86 -178 -157 -18
-39 -22 -71 -25 -192 l-4 -145 19 52 c28 77 64 124 163 208 132 112 186 207
165 290 -7 28 -39 65 -57 65 -6 0 -3 -7 5 -16z m-43 -137 c-8 -8 -11 -7 -11 4
0 20 13 34 18 19 3 -7 -1 -17 -7 -23z m29 -2 l-24 -25 35 5 34 5 -40 -19 c-22
-10 -43 -17 -46 -15 -3 1 -18 -8 -35 -21 l-29 -25 32 11 c18 6 38 9 45 6 12
-4 -63 -29 -89 -30 -7 0 -25 -13 -40 -29 l-28 -29 28 10 c16 6 38 11 50 10 14
-1 7 -6 -19 -14 -57 -18 -82 -32 -94 -54 -9 -18 -7 -19 26 -9 49 13 55 3 7
-12 -21 -7 -44 -19 -50 -28 -34 -42 3 53 45 117 10 14 15 40 13 63 -2 29 1 38
9 33 7 -4 10 -19 6 -36 -5 -29 -5 -29 19 -13 13 8 22 21 19 28 -3 7 0 23 6 37
10 23 10 22 7 -8 -2 -18 -2 -33 0 -33 12 0 95 64 110 84 10 13 20 22 22 20 3
-2 -6 -15 -19 -29z m-64 -32 c-10 -26 -18 -8 -9 23 5 21 8 24 11 11 2 -10 1
-25 -2 -34z m-150 -131 c-13 -12 -17 8 -10 40 l9 33 3 -33 c2 -19 1 -36 -2
-40z m-35 -59 c-9 -16 -10 -15 -11 7 0 14 4 36 8 50 7 24 7 24 10 -7 2 -18 -1
-41 -7 -50z"/>
<path d="M5751 1307 c-24 -45 -66 -60 -190 -67 -73 -5 -132 -14 -159 -25 -59
-24 -118 -94 -185 -221 -73 -139 -121 -200 -91 -116 7 20 13 51 13 67 0 25 -3
22 -16 -20 -12 -39 -31 -65 -87 -120 -93 -91 -160 -127 -249 -135 l-68 -5 42
-32 c58 -45 96 -50 177 -25 l67 20 -30 12 c-16 6 -49 10 -72 8 -24 -2 -43 0
-43 4 0 5 1 8 3 8 2 0 54 7 116 15 134 18 172 33 271 112 90 72 126 92 182 99
88 11 163 -61 155 -147 -8 -96 -82 -161 -181 -161 -76 0 -29 -20 61 -26 87 -6
143 12 192 60 55 53 74 102 69 175 -4 56 -8 67 -37 96 -19 18 -30 26 -26 18 5
-9 3 -12 -4 -10 -7 3 -12 8 -11 13 1 5 -4 12 -11 17 -10 6 -9 13 6 30 28 31
69 46 150 54 91 10 119 25 139 75 21 52 21 51 -14 33 -27 -13 -39 -13 -108 2
-155 33 -209 38 -282 27 -110 -16 -190 -62 -265 -152 -19 -23 -35 -38 -35 -33
0 19 71 112 108 142 60 47 103 61 213 71 122 10 154 27 192 99 16 29 27 54 25
57 -3 2 -10 -7 -17 -19z m-66 -222 l90 -13 -150 4 c-137 5 -153 3 -190 -16
-22 -11 -31 -18 -20 -14 62 18 141 24 219 15 47 -6 102 -7 123 -4 22 3 35 2
30 -3 -5 -5 -84 -10 -175 -12 -200 -3 -232 -5 -225 -14 2 -5 -5 -8 -16 -8 -11
0 -41 -16 -68 -35 l-48 -36 45 40 c49 45 128 91 174 102 46 11 110 9 211 -6z
m-80 -76 c-34 -10 -242 -7 -217 3 9 4 69 7 132 6 83 0 107 -2 85 -9z m13 -108
c36 -19 52 -52 51 -106 l-2 -50 -6 45 c-10 65 -27 89 -77 111 -24 11 -44 22
-44 24 0 5 54 -11 78 -24z m-41 -18 c81 -38 96 -166 27 -240 l-26 -28 23 35
c16 24 25 53 27 96 4 57 2 63 -27 97 -18 19 -51 43 -74 51 -29 11 -33 14 -12
10 17 -3 44 -12 62 -21z m134 -55 c5 -22 8 -45 6 -51 -2 -7 -7 4 -12 23 -4 19
-14 49 -23 65 -14 28 -14 29 1 16 9 -7 22 -31 28 -53z m-406 40 c-11 -6 -50
-40 -87 -74 -72 -67 -95 -77 -208 -89 -87 -10 -74 0 20 14 80 13 113 30 190
101 l45 41 -60 -40 c-51 -34 -171 -78 -183 -67 -2 2 25 14 60 25 35 12 87 37
116 56 30 18 60 31 67 29 7 -3 16 -1 20 5 3 6 14 11 23 11 14 -1 14 -2 -3 -12z"/>
<path d="M714 1285 c31 -77 97 -115 201 -115 121 -1 214 -50 284 -150 22 -32
41 -61 41 -65 0 -3 -25 20 -55 53 -65 70 -146 116 -235 132 -70 13 -109 10
-269 -21 -92 -17 -107 -18 -132 -5 -29 14 -29 14 -23 -12 16 -67 45 -86 149
-97 82 -9 112 -19 143 -47 25 -25 28 -38 8 -38 -8 0 -18 -4 -21 -10 -4 -6 1
-7 12 -4 13 4 12 1 -5 -13 -13 -11 -32 -44 -43 -74 -12 -35 -18 -45 -18 -29
-1 14 8 44 19 68 21 47 19 55 -6 17 -41 -63 -33 -171 19 -239 15 -19 52 -47
82 -61 49 -25 64 -27 133 -23 89 5 150 28 71 26 -83 -1 -137 29 -170 95 -57
111 30 234 149 212 51 -9 80 -26 166 -95 97 -79 141 -97 271 -114 104 -13 166
-34 82 -28 -23 2 -55 -2 -72 -8 l-30 -12 67 -20 c83 -26 127 -19 176 27 l37
34 -56 1 c-81 0 -164 45 -260 139 -62 61 -79 85 -88 121 l-11 45 5 -54 c2 -29
10 -59 16 -67 7 -8 9 -17 6 -20 -9 -9 -50 55 -117 179 -97 181 -163 227 -329
227 -98 0 -148 15 -184 53 l-29 31 16 -39z m290 -199 c50 -15 161 -83 192
-118 11 -11 -7 -2 -40 20 -32 23 -63 39 -69 35 -5 -3 -7 -2 -4 4 8 12 3 12
-220 16 -94 1 -175 6 -180 11 -5 5 6 6 26 2 18 -3 73 -1 123 4 83 10 164 4
223 -15 11 -3 7 2 -10 12 -26 15 -52 18 -190 17 l-160 -1 85 12 c119 17 170
17 224 1z m78 -74 c25 -10 -183 -13 -217 -3 -22 7 2 9 85 9 63 1 123 -2 132
-6z m-204 -112 c-50 -27 -68 -56 -69 -110 0 -41 -1 -43 -12 -22 -24 51 45 153
102 152 9 -1 -1 -10 -21 -20z m92 3 c-57 -20 -103 -49 -115 -74 -31 -60 -12
-169 36 -203 13 -9 19 -16 13 -16 -17 0 -52 42 -69 82 -20 50 -19 106 4 144
20 32 92 75 126 73 14 0 16 -2 5 -6z m215 -33 c4 -6 11 -8 16 -5 5 3 39 -12
77 -34 37 -23 91 -48 120 -56 28 -9 54 -21 58 -27 4 -7 3 -8 -4 -4 -7 4 -38
14 -69 22 -33 8 -83 32 -115 54 -83 58 -82 49 3 -20 73 -60 92 -68 199 -88
l55 -10 -70 5 c-104 7 -133 20 -205 88 -36 34 -74 67 -85 73 -17 10 -17 11 -3
12 9 0 20 -5 23 -10z"/>
<path d="M1315 1043 c-49 -7 -54 -23 -7 -23 82 0 125 -38 171 -151 33 -79 79
-133 139 -164 43 -21 150 -22 190 -1 39 20 94 84 90 104 -2 10 -23 27 -48 39
l-45 22 37 15 c21 9 45 16 53 16 27 0 6 21 -42 42 -33 14 -61 19 -107 17 -57
-3 -66 -1 -97 25 -60 51 -169 87 -169 56 0 -5 6 -10 13 -10 19 0 74 -60 87
-94 16 -43 8 -40 -30 12 -52 70 -146 108 -235 95z m441 -108 c46 5 79 3 90 -4
16 -9 14 -10 -11 -5 -16 3 -48 0 -70 -5 -38 -10 -38 -10 15 -5 68 7 59 -7 -24
-36 -34 -12 -67 -18 -79 -14 -29 9 -69 35 -63 41 3 3 15 -2 28 -11 25 -18 85
-21 108 -6 10 6 4 8 -21 4 -24 -4 -47 -1 -67 10 -44 23 -40 26 9 9 23 -7 44
-12 46 -9 2 2 -6 7 -19 11 -28 9 -88 47 -88 57 0 4 17 -4 37 -18 35 -23 43
-25 109 -19z m-159 -165 c47 -32 128 -33 196 -3 26 12 47 20 47 17 0 -15 -111
-54 -153 -54 -74 0 -124 34 -175 121 -36 60 -25 58 14 -1 19 -31 52 -67 71
-80z m138 56 l70 0 -44 -13 c-54 -15 -108 -4 -137 29 l-19 21 30 -19 c22 -14
47 -19 100 -18z m-66 -36 c26 -7 53 -5 96 5 73 17 82 13 19 -9 -84 -28 -144
-17 -189 35 l-20 23 29 -22 c16 -12 45 -26 65 -32z"/>
<path d="M4904 1039 c-17 -5 -51 -26 -75 -47 -43 -38 -45 -39 -110 -34 -53 3
-74 0 -107 -17 -57 -29 -58 -37 -7 -50 57 -14 63 -27 21 -41 -18 -6 -41 -19
-51 -30 -16 -17 -15 -20 21 -60 21 -23 50 -48 66 -56 39 -20 135 -20 184 1 61
25 93 62 145 170 41 85 54 104 87 123 24 13 57 22 83 22 38 1 41 2 24 12 -29
17 -124 13 -170 -6 -47 -20 -91 -59 -113 -101 -8 -17 -17 -25 -19 -17 -5 13
43 102 55 102 4 0 18 9 32 20 l25 20 -30 -1 c-16 0 -44 -5 -61 -10z m-57 -77
c-15 -16 -25 -31 -22 -34 10 -10 -25 -31 -63 -39 l-37 -7 40 -1 c23 -1 51 6
65 16 25 17 25 17 7 -4 -10 -12 -30 -23 -45 -26 -30 -6 -152 30 -152 45 0 5
24 6 53 4 51 -6 51 -5 12 5 -22 5 -53 8 -70 5 -23 -5 -26 -3 -15 4 9 7 43 8
87 5 74 -7 113 4 142 39 8 9 16 16 19 16 3 0 -6 -13 -21 -28z m109 -110 c-28
-55 -83 -108 -122 -118 -42 -11 -117 1 -168 26 -26 14 -50 28 -53 33 -3 5 13
-1 35 -12 109 -55 195 -49 256 20 19 21 42 52 51 68 8 17 18 31 20 31 3 0 -6
-22 -19 -48z m-111 -12 c-27 -30 -79 -41 -136 -29 -27 6 -49 12 -49 13 0 2 33
3 73 2 54 -1 80 3 98 16 32 23 36 22 14 -2z m29 -21 c-47 -52 -126 -62 -204
-25 -19 9 -26 14 -15 10 95 -27 161 -22 207 16 30 25 36 25 12 -1z"/>
<path d="M4775 915 l-30 -14 30 6 c17 3 34 10 40 14 14 13 -5 10 -40 -6z"/>
<path d="M645 941 c-62 -38 -90 -99 -79 -171 11 -71 68 -122 167 -151 l28 -8
-26 31 c-52 62 -71 127 -55 188 12 46 46 78 101 95 l44 13 -28 11 c-44 17
-118 13 -152 -8z m63 -16 c-26 -14 -52 -33 -57 -42 -6 -10 -11 -14 -11 -9 0 6
10 20 22 33 18 19 19 23 5 17 -10 -3 -29 -23 -42 -43 -28 -40 -33 -35 -10 9
19 37 59 59 105 59 l35 0 -47 -24z"/>
<path d="M5670 948 c-25 -11 -25 -11 13 -20 21 -6 53 -25 72 -43 32 -29 35
-37 35 -89 0 -64 -15 -107 -54 -153 l-27 -32 57 19 c96 33 134 83 134 172 0
96 -61 158 -155 157 -27 0 -61 -5 -75 -11z m135 -12 c32 -14 66 -59 65 -88 -1
-7 -10 4 -21 24 -10 21 -29 43 -42 49 l-22 12 23 -25 c31 -34 28 -47 -5 -16
-16 14 -41 33 -58 41 l-30 16 28 1 c15 0 43 -6 62 -14z"/>
<path d="M1700 534 l-55 -26 55 -26 c71 -33 125 -34 167 -4 28 19 35 21 53 10
16 -10 24 -10 40 0 15 9 160 12 620 12 393 0 600 3 600 10 0 7 -207 10 -600
10 -460 0 -605 3 -620 12 -16 10 -24 10 -40 0 -16 -10 -25 -9 -52 8 -44 27
-101 25 -168 -6z"/>
<path d="M4602 540 c-27 -17 -36 -18 -52 -8 -16 10 -24 10 -40 0 -15 -9 -160
-12 -620 -12 -393 0 -600 -3 -600 -10 0 -7 207 -10 600 -10 461 0 605 -3 620
-12 15 -10 25 -10 37 -2 14 8 28 5 65 -14 53 -27 73 -25 170 17 l43 19 -58 26
c-69 31 -120 33 -165 6z"/>
<path d="M3210 525 c-17 -21 -5 -45 24 -45 27 0 42 26 25 46 -15 18 -33 18
-49 -1z"/>
</g>
</svg>
