<?xml version="1.0" standalone="no"?>
<!DOCTYPE svg PUBLIC "-//W3C//DTD SVG 20010904//EN"
 "http://www.w3.org/TR/2001/REC-SVG-20010904/DTD/svg10.dtd">
<svg version="1.0" xmlns="http://www.w3.org/2000/svg"
 width="599.000000pt" height="230.000000pt" viewBox="0 0 599.000000 230.000000"
 preserveAspectRatio="xMidYMid meet">

<g transform="translate(0.000000,230.000000) scale(0.100000,-0.100000)"
fill="#d8b15d" stroke="none">
<path d="M889 2127 c-63 -24 -100 -58 -127 -116 -35 -75 -36 -170 -4 -225 l23
-38 -47 41 c-137 120 -317 144 -362 48 -28 -57 20 -129 66 -100 20 12 23 44 4
51 -7 2 -11 -2 -10 -10 2 -7 -4 -13 -12 -13 -10 0 -16 12 -18 32 -6 57 68 84
112 40 12 -12 39 -73 61 -135 67 -197 130 -242 344 -250 74 -3 118 -8 110 -13
-8 -5 -35 -9 -61 -9 -26 0 -76 -11 -111 -24 -90 -34 -133 -39 -197 -22 l-55
14 30 -24 c46 -37 153 -90 220 -110 127 -36 286 -15 430 59 87 45 138 43 240
-10 44 -22 104 -48 134 -58 67 -22 101 -56 101 -101 0 -52 -61 -84 -91 -48
-10 13 -10 20 0 36 11 17 10 19 -6 16 -27 -5 -29 -58 -3 -91 55 -70 222 -52
258 28 17 37 15 116 -4 143 -9 13 -14 26 -11 29 3 3 19 -16 36 -41 74 -118 35
-247 -76 -249 l-38 0 31 -10 c41 -12 99 14 119 54 20 37 19 132 -1 172 -26 51
-65 86 -107 98 -21 6 -37 12 -36 13 2 2 75 0 161 -4 149 -7 161 -9 220 -38 79
-39 110 -78 116 -149 4 -47 2 -55 -26 -82 -54 -55 -132 -53 -189 4 -54 54 -37
125 30 125 53 0 88 -70 51 -101 -17 -14 -51 0 -47 20 2 6 -2 11 -7 11 -6 0
-10 -6 -10 -13 0 -42 70 -51 96 -12 30 47 -2 110 -63 121 -72 13 -123 -35
-123 -117 0 -86 75 -149 179 -149 77 0 136 38 161 104 15 41 22 27 9 -19 -16
-58 -6 -128 23 -167 14 -18 32 -46 40 -62 l15 -30 -3 50 c-2 27 -5 72 -7 101
-2 29 0 50 5 47 4 -3 8 -13 8 -23 0 -10 23 -62 50 -116 52 -101 61 -144 35
-165 -20 -16 -37 -3 -29 23 l6 22 -22 -22 c-25 -24 -30 -71 -9 -84 24 -15 58
-10 80 12 32 32 32 17 -2 -37 -73 -115 -127 -149 -244 -149 -107 0 -169 29
-202 95 -13 24 -23 53 -22 65 0 17 2 17 10 -5 24 -60 92 -91 154 -70 57 19 85
62 85 128 0 101 -64 162 -170 162 -61 0 -96 -16 -138 -64 -37 -43 -46 -82 -40
-185 10 -169 135 -339 280 -382 50 -15 153 -12 207 6 109 36 167 123 178 268
6 74 7 79 16 47 5 -19 26 -53 47 -76 38 -41 56 -88 47 -121 -21 -73 -22 -71
21 -29 57 55 94 142 94 220 -1 107 -37 183 -126 263 -56 51 -81 87 -71 104 13
20 -47 100 -114 154 -63 49 -93 82 -116 125 -4 8 7 -2 25 -23 17 -20 51 -51
75 -67 68 -47 103 -87 140 -161 19 -38 33 -72 32 -76 -1 -3 10 -15 24 -26 36
-26 105 -33 149 -14 34 15 34 15 8 16 -15 1 -39 12 -55 25 -26 22 -28 31 -34
124 -6 84 -12 109 -35 153 -50 92 -123 132 -244 135 -47 1 -89 2 -94 3 -4 1 6
14 23 30 39 37 51 69 51 140 0 100 -68 171 -164 171 -76 0 -119 -34 -131 -102
-12 -70 44 -139 112 -137 27 1 27 1 -5 9 -34 8 -82 45 -82 63 0 6 10 1 23 -11
12 -11 35 -26 51 -32 25 -9 34 -8 59 10 28 21 28 21 18 2 -6 -11 -15 -23 -21
-25 -6 -3 -5 -4 2 -3 25 5 43 52 32 83 -8 22 -15 27 -34 25 -13 -2 -30 -11
-37 -20 -11 -15 -12 -15 -13 -1 0 8 6 21 13 29 10 12 9 12 -5 1 -10 -7 -18
-22 -18 -33 0 -10 -4 -16 -10 -13 -17 11 -11 43 12 59 34 24 66 19 100 -14 27
-28 30 -36 25 -76 -9 -79 -73 -120 -150 -95 -19 7 -76 50 -127 96 -94 86 -149
115 -215 115 -43 0 -132 -27 -174 -53 -19 -11 -31 -15 -27 -9 9 15 68 46 140
73 65 24 96 58 96 106 0 35 0 35 -18 13 -14 -17 -33 -23 -102 -29 -94 -9 -126
-22 -215 -89 -85 -64 -133 -83 -212 -84 -82 -1 -124 7 -183 37 -52 27 -84 58
-99 98 -21 54 28 92 72 57 21 -18 21 -19 4 -32 -24 -18 -12 -48 18 -48 32 0
48 23 40 60 -8 38 -39 60 -87 60 -58 0 -93 -53 -69 -106 14 -31 9 -30 -43 5
-89 61 -138 147 -117 203 25 67 116 72 148 8 14 -28 7 -46 -12 -30 -21 17 -55
2 -55 -24 0 -30 18 -46 52 -46 35 0 53 34 44 83 -16 88 -135 114 -183 41 -54
-83 38 -230 185 -296 62 -28 46 -32 -29 -7 -117 38 -186 95 -239 199 -32 62
-33 157 -1 220 49 95 84 116 294 175 31 8 57 19 57 23 0 4 -22 5 -48 4 -36 -3
-66 3 -113 23 -76 32 -159 41 -210 22z m12 -124 c-49 -48 -65 -103 -58 -198 3
-38 8 -79 11 -90 4 -11 -1 -4 -10 15 -11 22 -17 64 -18 115 -1 92 17 134 74
172 46 32 47 29 1 -14z m-92 -52 c-11 -30 -8 -85 6 -151 5 -22 3 -21 -9 5 -27
53 -30 93 -11 141 19 51 31 55 14 5z m-10 -172 c29 -48 32 -67 4 -31 -41 52
-69 136 -55 169 4 12 9 0 13 -35 4 -33 19 -72 38 -103z m-137 -106 c45 -66
104 -129 145 -154 18 -12 66 -27 106 -35 l72 -14 -70 5 c-98 7 -148 35 -210
117 -53 71 -89 128 -81 128 3 0 20 -21 38 -47z m123 -33 c27 -52 64 -89 120
-119 47 -26 8 -17 -45 9 -46 23 -64 45 -90 105 -12 28 -29 59 -38 70 l-17 20
24 -20 c13 -11 34 -40 46 -65z m105 -56 c53 -54 59 -63 32 -48 -30 17 -74 63
-96 102 -14 23 0 12 64 -54z m1050 -44 c-8 -5 -28 -10 -45 -10 -47 -1 -127
-32 -196 -77 -35 -23 -77 -44 -94 -48 -29 -6 -29 -6 5 10 19 9 57 33 85 55 60
46 91 59 170 70 91 12 93 12 75 0z m575 -152 c9 -50 -8 -98 -51 -139 l-36 -34
33 48 c28 40 34 58 34 100 0 29 -4 63 -8 77 -9 24 -8 24 6 4 9 -11 18 -36 22
-56z m-450 32 c22 -11 61 -41 85 -67 46 -48 36 -44 -34 14 -48 40 -122 58
-186 45 -45 -10 -44 -10 30 -12 l75 -3 -90 -9 c-49 -4 -110 -7 -135 -6 -43 3
-40 4 55 30 123 32 148 33 200 8z m-815 -9 c20 -8 14 -9 -30 -3 -101 13 -163
6 -272 -32 -58 -20 -122 -35 -144 -35 -38 1 -38 2 11 10 28 5 88 24 135 44 82
34 89 36 180 32 52 -3 106 -10 120 -16z m5 -21 c20 -5 -1 -8 -65 -8 -52 -1
-124 -8 -160 -16 -94 -23 -106 -18 -25 9 72 24 188 31 250 15z m-40 -67 c-59
-31 -83 -37 -151 -41 -45 -2 -89 0 -98 5 -10 6 8 9 57 10 53 0 95 9 157 31
112 40 120 39 35 -5z m408 7 c40 -11 95 -27 124 -36 74 -21 135 -87 132 -142
0 -9 -5 -3 -10 13 -15 54 -60 85 -178 124 -60 20 -107 33 -105 29 3 -4 50 -22
105 -39 106 -33 159 -67 158 -102 l0 -22 -9 21 c-14 35 -56 61 -131 79 -44 11
-92 32 -130 57 -57 39 -75 56 -44 44 9 -3 48 -15 88 -26z m271 -112 c18 -29
21 -100 6 -129 -6 -10 -23 -25 -38 -33 -35 -18 -117 -32 -109 -18 4 5 25 12
48 15 45 6 83 33 74 54 -2 8 -1 12 4 9 11 -7 20 36 14 68 -3 14 -22 44 -42 68
-35 42 -35 43 -5 18 18 -14 39 -37 48 -52z m472 -75 c41 -96 -43 -213 -151
-213 -45 0 -109 34 -131 69 l-17 26 29 -26 c42 -38 67 -49 116 -49 51 0 110
35 133 80 17 33 20 102 5 131 -6 10 -8 19 -5 19 3 0 13 -16 21 -37z m104 26
c0 -6 7 -9 15 -6 19 8 171 -21 210 -39 17 -8 40 -29 52 -47 25 -36 75 -175 70
-192 -2 -5 -12 15 -22 45 -38 117 -88 179 -162 199 -62 18 -72 12 -15 -8 60
-21 96 -51 122 -101 32 -64 31 -86 -1 -27 -38 68 -78 98 -166 128 -35 11 -61
24 -59 28 3 4 -2 8 -10 8 -26 0 2 -20 88 -62 48 -23 88 -50 97 -65 l15 -25
-30 27 c-16 15 -55 36 -86 48 -54 20 -157 99 -130 100 6 0 12 -5 12 -11z m14
-143 c2 -33 21 -82 65 -167 44 -86 61 -130 61 -158 0 -22 -4 -42 -8 -45 -5 -3
-6 8 -4 24 6 44 -2 67 -57 153 -47 75 -62 118 -77 217 -4 33 -3 42 5 34 6 -5
13 -32 15 -58z m123 -215 c14 -30 27 -75 29 -100 l3 -46 -9 41 c-5 23 -38 99
-74 170 -36 70 -66 134 -66 143 0 15 62 -95 117 -208z m104 -99 c8 4 89 -94
111 -135 10 -18 18 -43 18 -57 -1 -21 -3 -19 -14 13 -8 20 -32 61 -53 90 -22
28 -46 61 -52 72 -11 18 -11 18 -5 -5 3 -14 11 -32 18 -41 6 -9 26 -38 45 -64
24 -33 35 -61 38 -94 l3 -46 -13 46 c-7 25 -30 69 -50 97 -21 28 -42 64 -48
82 -16 45 -19 33 -9 -39 6 -45 20 -81 49 -130 23 -37 41 -74 40 -82 0 -8 -4
-4 -10 9 -5 13 -24 42 -43 66 -56 68 -66 115 -49 232 7 47 8 47 13 16 3 -18 8
-31 11 -30z m-431 22 c68 -58 79 -131 29 -189 -17 -19 -36 -35 -43 -35 -6 0
-3 5 7 11 25 14 47 63 47 102 0 44 -36 97 -80 119 -28 14 -31 18 -13 18 12 0
35 -12 53 -26z m-131 -95 c-15 -29 -3 -81 26 -113 32 -34 19 -34 -17 1 -22 21
-28 36 -28 68 0 22 5 46 12 53 18 18 20 15 7 -9z m460 -131 c-35 -159 -72
-228 -135 -254 -57 -24 -154 -14 -199 21 -14 10 -4 8 33 -5 90 -34 154 -21
206 41 31 36 70 118 61 127 -3 3 -5 0 -5 -6 0 -20 -62 -82 -101 -103 -48 -24
-112 -24 -166 1 -51 23 -58 35 -8 14 80 -33 172 -9 235 62 34 39 80 127 80
155 0 13 8 29 16 29 1 0 -6 -37 -17 -82z m2 -118 c-16 -91 -60 -164 -113 -191
-88 -45 -270 -9 -339 68 l-24 26 35 -25 c128 -93 265 -100 356 -16 46 42 69
94 81 183 3 27 8 44 11 36 3 -8 -1 -44 -7 -81z"/>
<path d="M4955 2130 c-16 -4 -52 -18 -78 -30 -36 -16 -63 -21 -103 -18 -76 4
-50 -11 77 -47 130 -36 184 -72 222 -146 88 -172 -25 -366 -252 -435 -50 -15
-70 -11 -26 6 43 16 139 87 166 122 42 55 48 72 49 120 0 68 -32 103 -95 103
-40 0 -51 -5 -76 -33 -31 -35 -40 -97 -17 -120 17 -17 63 -15 78 3 27 33 -13
80 -50 57 -23 -14 -25 -4 -9 32 23 50 103 57 134 13 20 -28 19 -81 -1 -123
-18 -38 -77 -95 -124 -119 -31 -16 -31 -16 -21 4 16 30 13 55 -10 85 -42 53
-149 20 -149 -47 0 -29 22 -50 47 -45 24 4 31 48 8 48 -23 0 -14 22 15 37 37
19 70 -2 70 -45 0 -77 -131 -153 -265 -155 -91 -1 -129 13 -221 79 -106 76
-126 85 -218 94 -96 9 -110 14 -125 43 -10 19 -11 17 -6 -18 7 -61 33 -86 131
-128 49 -20 95 -45 104 -54 11 -11 5 -10 -20 5 -56 33 -147 55 -201 49 -66 -8
-98 -27 -187 -109 -123 -114 -200 -134 -256 -67 -71 84 28 225 104 149 22 -22
26 -45 10 -55 -5 -3 -10 3 -10 13 0 11 -7 26 -17 33 -15 13 -15 12 -5 -8 17
-31 15 -38 -5 -21 -26 22 -49 28 -62 15 -14 -14 -15 -67 0 -67 5 0 8 -4 5 -9
-3 -5 2 -15 12 -22 15 -13 16 -12 3 4 -15 19 -9 22 19 7 23 -12 65 2 98 32 12
12 22 17 22 11 0 -19 -50 -56 -87 -63 l-38 -8 37 -1 c72 -2 128 78 107 152
-14 53 -50 80 -113 85 -69 6 -124 -23 -156 -81 -44 -78 -22 -204 42 -238 32
-17 14 -22 -80 -24 -97 -2 -139 -16 -195 -64 -56 -50 -79 -107 -87 -224 -6
-93 -9 -102 -34 -124 -15 -12 -39 -23 -54 -23 l-27 -1 29 -16 c38 -20 118 -13
154 15 15 11 26 24 25 29 -1 5 17 45 41 88 32 62 53 88 91 115 28 19 70 55 95
80 l46 45 2 -60 c4 -75 -21 -146 -81 -236 -37 -56 -42 -71 -42 -121 0 -37 -3
-51 -9 -41 -16 30 1 107 39 173 50 86 85 182 85 228 l-1 37 -27 -33 c-14 -19
-53 -54 -85 -79 -32 -25 -74 -70 -93 -99 -35 -55 -41 -70 -24 -59 6 3 10 1 10
-5 0 -6 -38 -51 -84 -99 -96 -102 -120 -153 -120 -262 0 -51 6 -77 26 -120 27
-53 118 -155 104 -114 -26 72 -19 110 30 165 20 22 42 56 49 76 12 35 12 34
17 -50 7 -102 32 -160 90 -211 75 -63 203 -85 305 -51 260 87 376 533 160 615
-41 16 -114 13 -153 -5 -128 -61 -116 -257 17 -279 52 -9 108 18 132 65 14 26
17 29 13 10 -3 -14 -6 -30 -6 -37 0 -20 -51 -73 -91 -93 -51 -27 -136 -35
-198 -20 -64 15 -135 76 -176 151 l-29 53 29 -22 c31 -24 65 -28 83 -10 18 18
14 63 -6 81 -22 20 -39 23 -23 3 15 -17 -8 -39 -28 -26 -24 14 -14 68 25 138
21 37 46 92 55 122 l18 55 -3 -102 c-2 -92 -1 -99 11 -75 8 15 20 34 27 42 44
49 55 111 35 183 -15 53 -3 59 17 8 42 -106 211 -125 298 -33 57 61 44 174
-23 202 -86 35 -175 -48 -125 -118 30 -43 111 -15 83 29 -7 11 -9 9 -9 -9 0
-27 -24 -39 -45 -22 -21 17 -19 63 3 83 28 26 78 22 98 -8 40 -61 -32 -145
-124 -145 -66 0 -130 77 -116 138 18 74 80 129 175 156 45 12 329 29 329 20 0
-2 -18 -8 -39 -14 -107 -29 -167 -212 -95 -291 25 -28 86 -44 110 -30 13 8 14
11 4 10 -67 -6 -118 34 -127 98 -7 56 12 123 48 165 l29 33 -21 -48 c-38 -89
0 -173 91 -197 98 -26 195 21 188 92 -2 22 -9 34 -21 36 -16 3 -17 1 -6 -16
10 -16 10 -23 0 -36 -31 -37 -91 -4 -91 50 0 46 31 76 101 99 30 9 88 36 129
58 102 56 152 56 270 0 104 -50 170 -66 269 -66 90 0 171 22 261 69 67 35 143
92 105 78 -11 -3 -43 -11 -71 -16 -46 -9 -62 -6 -142 21 -49 17 -109 31 -133
32 -24 0 -53 4 -64 8 -12 5 32 10 110 13 224 8 284 51 349 254 33 100 58 142
92 150 55 14 105 -43 74 -81 -13 -16 -34 -10 -25 6 4 5 1 9 -5 9 -17 0 -23
-29 -10 -45 29 -35 84 1 82 56 -4 135 -208 127 -368 -14 l-46 -40 21 39 c24
44 28 133 10 199 -15 53 -91 129 -144 144 -45 12 -95 13 -140 1z m135 -112
c49 -34 68 -80 72 -175 2 -45 1 -79 -2 -77 -2 3 -10 -12 -16 -33 l-12 -38 6
45 c21 140 -2 233 -68 278 -18 12 -28 22 -23 22 6 0 25 -10 43 -22z m110 -89
c9 -32 8 -52 -5 -96 -20 -68 -32 -63 -15 7 12 49 10 82 -6 124 -5 13 -4 17 4
12 6 -4 16 -25 22 -47z m22 -126 c-11 -21 -29 -46 -39 -56 -15 -13 -11 0 14
49 19 38 34 84 35 108 2 37 2 36 5 -11 3 -37 -1 -63 -15 -90z m152 -75 c-33
-56 -109 -161 -136 -188 -43 -43 -85 -60 -166 -65 l-67 -5 72 14 c96 19 150
58 233 169 59 79 83 108 64 75z m-149 -82 c-17 -35 -38 -72 -46 -82 -16 -20
-106 -64 -129 -63 -8 0 8 10 35 23 56 25 90 61 131 136 39 72 46 62 9 -14z
m-80 -33 c-30 -41 -58 -67 -90 -84 -11 -6 9 18 45 55 35 36 66 66 68 66 3 0
-8 -17 -23 -37z m-962 -85 c30 -6 67 -25 98 -50 28 -22 69 -49 92 -60 35 -16
37 -18 12 -13 -16 3 -52 20 -80 37 -87 55 -135 77 -183 83 -26 3 -56 10 -67
15 -25 11 59 3 128 -12z m-683 -94 c-23 -61 -6 -137 44 -193 21 -23 21 -23 0
-11 -58 36 -88 128 -61 193 18 41 32 51 17 11z m635 -27 c75 -21 78 -22 40
-25 -22 -1 -80 2 -130 6 l-90 9 75 3 c74 2 74 2 30 11 -47 10 -111 4 -145 -14
-11 -5 -40 -27 -65 -47 -69 -57 -81 -59 -22 -4 30 27 72 59 95 72 49 27 82 26
212 -11z m912 -15 c39 -17 95 -36 125 -41 l53 -9 -42 -1 c-25 -1 -79 12 -135
33 -117 42 -166 49 -253 37 -38 -6 -71 -8 -73 -6 -10 10 93 24 168 22 71 -2
97 -8 157 -35z m-67 -16 c86 -28 76 -33 -20 -10 -36 8 -108 16 -160 16 -109 1
-79 15 35 17 49 0 93 -7 145 -23z m-535 -36 c-30 -33 -97 -67 -165 -85 -35 -9
-76 -23 -91 -30 -29 -16 -55 -67 -43 -87 5 -10 4 -10 -6 -1 -9 9 -10 19 -2 42
14 41 5 40 -13 -1 -10 -24 -14 -28 -15 -13 0 29 45 92 79 110 16 8 71 26 123
39 51 13 104 29 118 35 35 14 35 13 15 -9z m375 -17 c51 -17 99 -26 148 -26
88 -2 64 -15 -29 -16 -74 -1 -107 8 -182 51 -29 16 -43 27 -32 23 11 -4 54
-18 95 -32z m-683 -72 c-19 -21 -38 -49 -42 -61 -20 -63 35 -140 100 -140 19
0 37 -5 41 -11 8 -13 -69 -3 -101 13 -44 23 -55 40 -55 90 0 59 11 84 54 120
43 38 44 35 3 -11z m-498 -96 c-69 -156 154 -283 260 -149 12 15 21 22 21 17
0 -12 -59 -67 -87 -82 -70 -36 -175 9 -207 88 -21 54 -20 83 4 131 28 54 34
50 9 -5z m-114 6 c-11 -18 -88 -67 -135 -85 -25 -10 -57 -29 -72 -44 -16 -14
-28 -21 -28 -16 0 20 46 54 124 89 66 30 76 38 66 50 -9 11 -9 15 -1 15 6 0
11 -5 11 -12 0 -8 6 -6 17 5 18 17 30 16 18 -2z m-61 -10 c4 -5 -25 -21 -63
-36 -90 -34 -115 -54 -152 -123 -16 -32 -27 -46 -23 -32 11 43 57 121 78 133
12 7 41 20 66 29 41 16 42 17 10 12 -90 -15 -139 -70 -190 -212 -13 -34 -24
-61 -26 -59 -7 7 47 162 71 202 30 52 50 65 125 81 69 15 97 17 104 5z m813
-107 c-3 -3 -12 -4 -19 -1 -8 3 -5 6 6 6 11 1 17 -2 13 -5z m-841 -159 c-37
-74 -70 -150 -73 -170 -8 -48 -23 -55 -17 -8 5 38 144 326 153 317 3 -2 -26
-65 -63 -139z m309 -145 c-51 -25 -75 -65 -75 -123 0 -35 6 -53 27 -78 22 -25
23 -29 6 -19 -52 33 -69 120 -34 174 23 34 69 66 96 66 13 0 6 -7 -20 -20z
m-443 -148 c-7 -35 -22 -66 -43 -90 -17 -19 -40 -54 -51 -76 -16 -35 -18 -36
-13 -11 3 17 21 53 39 80 41 63 58 114 56 168 -5 77 2 95 13 38 7 -39 7 -70
-1 -109z m-43 96 c-6 -13 -28 -45 -49 -73 -21 -27 -42 -63 -48 -80 -9 -26 -11
-27 -11 -7 -1 30 12 55 68 124 50 63 58 70 40 36z m-24 -94 c-25 -37 -47 -76
-50 -88 -11 -54 -14 -57 -11 -12 3 35 12 60 35 90 17 22 39 56 48 75 12 23 19
29 21 18 2 -9 -17 -46 -43 -83z m625 0 c0 -33 -41 -94 -63 -94 -6 0 -1 10 11
23 32 35 44 75 33 111 -10 29 -10 29 4 12 8 -11 15 -34 15 -52z m-452 -106
c26 -60 91 -131 138 -148 34 -13 106 -13 141 1 15 5 24 6 18 1 -16 -15 -75
-32 -111 -32 -63 0 -122 37 -166 105 -18 28 -19 28 -13 5 12 -42 53 -106 85
-134 42 -35 90 -42 157 -23 58 16 61 7 4 -12 -102 -34 -187 1 -235 97 -15 30
-67 220 -65 239 0 8 3 2 47 -99z m16 -193 c68 -115 225 -134 368 -44 58 36 60
37 28 8 -56 -50 -115 -72 -206 -77 -63 -3 -89 -1 -118 13 -67 32 -112 114
-121 224 l-5 56 15 -68 c8 -38 25 -88 39 -112z"/>
<path d="M4276 1283 c-83 -26 -126 -48 -126 -66 0 -6 10 -1 23 10 12 12 61 33
110 47 48 15 87 29 87 31 0 7 -8 5 -94 -22z"/>
<path d="M3428 1143 c7 -3 16 -2 19 1 4 3 -2 6 -13 5 -11 0 -14 -3 -6 -6z"/>
<path d="M1465 1871 l-60 -28 50 -23 c68 -32 139 -33 183 -2 17 13 32 19 32
14 0 -18 33 -23 50 -7 14 13 97 15 621 18 l604 2 -603 3 c-523 2 -606 4 -626
17 -21 14 -26 14 -38 2 -12 -13 -20 -12 -54 9 -50 31 -85 30 -159 -5z"/>
<path d="M4363 1877 c-37 -22 -42 -23 -57 -9 -14 14 -17 14 -34 -1 -17 -16
-70 -17 -620 -17 -331 0 -602 -3 -602 -7 0 -5 270 -7 601 -5 525 2 602 0 615
-13 19 -19 30 -19 46 -1 11 11 19 9 50 -12 45 -29 95 -27 173 9 l50 22 -53 25
c-79 36 -119 38 -169 9z"/>
<path d="M2974 1866 c-20 -15 -14 -43 12 -53 20 -8 47 19 39 39 -9 23 -30 29
-51 14z"/>
<path d="M536 1319 c-42 -33 -35 -99 15 -124 38 -20 79 -5 79 29 0 26 -24 51
-40 41 -16 -10 -12 -43 8 -48 11 -3 8 -5 -9 -6 -54 -2 -67 70 -18 98 37 21 73
4 173 -82 107 -90 144 -109 232 -115 62 -4 79 -1 130 22 32 15 95 53 139 85
100 72 136 91 175 91 37 0 90 -47 90 -80 0 -26 -17 -60 -30 -60 -6 0 -5 9 2
20 18 28 -1 54 -40 58 -26 3 -32 -1 -38 -22 -9 -36 3 -62 34 -75 34 -14 76 -1
91 28 27 50 0 124 -54 147 -67 28 -115 16 -204 -53 -86 -65 -164 -96 -256
-101 -77 -4 -89 -2 -149 26 -35 17 -89 49 -118 71 -96 72 -163 88 -212 50z"/>
<path d="M4503 1320 c-40 -24 -53 -48 -53 -98 0 -26 6 -45 20 -57 42 -38 120
-11 120 41 0 28 -34 54 -61 47 -25 -7 -35 -48 -18 -70 12 -14 12 -16 -1 -11
-20 6 -34 50 -26 81 7 30 51 57 91 57 34 0 74 -21 170 -91 109 -79 176 -109
245 -109 102 0 110 4 306 160 64 50 104 60 133 31 37 -37 17 -91 -32 -91 -20
1 -20 2 -4 11 20 12 23 35 5 41 -24 9 -38 -4 -38 -33 0 -36 31 -51 73 -37 52
19 63 82 22 123 -44 44 -106 30 -217 -48 -117 -83 -142 -92 -248 -92 -111 0
-153 16 -289 109 -93 63 -140 72 -198 36z"/>
<path d="M2710 823 c0 -6 8 -17 18 -24 16 -13 16 -13 2 6 -8 11 -16 22 -17 24
-2 2 -3 0 -3 -6z"/>
<path d="M3256 803 c-6 -14 -5 -15 5 -6 7 7 10 15 7 18 -3 3 -9 -2 -12 -12z"/>
</g>
</svg>
