<?xml version="1.0" standalone="no"?>
<!DOCTYPE svg PUBLIC "-//W3C//DTD SVG 20010904//EN"
 "http://www.w3.org/TR/2001/REC-SVG-20010904/DTD/svg10.dtd">
<svg version="1.0" xmlns="http://www.w3.org/2000/svg"
 width="800.000000pt" height="800.000000pt" viewBox="0 0 800.000000 800.000000"
 preserveAspectRatio="xMidYMid meet">

<g transform="translate(0.000000,800.000000) scale(0.100000,-0.100000)"
fill="#d8b15d" stroke="none">
<path d="M3967 7093 c18 -2 50 -2 70 0 21 2 7 4 -32 4 -38 0 -55 -2 -38 -4z"/>
<path d="M3846 7046 c-20 -18 -36 -40 -36 -47 1 -8 7 -2 15 12 8 15 29 36 47
48 18 11 28 21 21 21 -6 0 -28 -15 -47 -34z"/>
<path d="M4120 7070 c8 -5 11 -10 6 -10 -5 0 -4 -6 2 -13 13 -15 5 -30 -25
-46 -13 -6 -23 -16 -23 -22 0 -6 16 -2 36 10 19 12 33 17 29 12 -3 -6 4 -9 15
-8 24 2 25 5 4 37 l-16 25 22 -24 c11 -13 18 -31 16 -38 -3 -8 -1 -11 4 -8 6
3 10 -1 10 -11 0 -13 -3 -14 -15 -4 -8 7 -15 9 -15 6 0 -4 -8 -3 -17 3 -12 6
-26 5 -45 -5 -15 -8 -28 -12 -28 -8 0 3 -11 -1 -25 -10 -13 -9 -35 -16 -49
-16 -30 0 -44 -18 -21 -26 13 -6 14 -9 3 -16 -14 -10 41 -5 79 7 19 6 23 2 34
-35 11 -35 10 -52 -4 -108 -27 -111 -28 -120 -2 -47 13 39 24 87 24 109 1 52
-19 117 -33 109 -6 -4 -2 3 8 15 11 12 22 22 26 22 11 0 32 -46 41 -87 7 -34
8 -33 5 15 -2 29 1 55 5 58 5 3 6 -3 2 -12 -4 -11 -2 -15 4 -11 6 4 8 -4 5
-21 -7 -42 9 -19 19 27 7 32 6 48 -6 70 -16 31 -60 71 -79 71 -6 0 -4 -5 4
-10z m-97 -147 c-7 -2 -21 -2 -30 0 -10 3 -4 5 12 5 17 0 24 -2 18 -5z m33 -8
c-11 -8 -27 -15 -35 -15 -9 1 -2 7 14 15 39 18 44 18 21 0z"/>
<path d="M3836 6985 c-9 -9 -16 -22 -17 -28 0 -7 -5 -3 -10 8 -7 16 -8 13 -3
-10 4 -16 8 -65 9 -108 l3 -78 -44 41 c-24 22 -49 40 -56 40 -7 0 1 -8 17 -19
43 -26 84 -76 117 -146 15 -33 28 -53 29 -45 2 45 30 -75 30 -130 1 -76 13
-57 22 35 5 43 4 54 -3 40 -8 -16 -9 -13 -5 16 3 19 -2 57 -10 85 -18 60 -18
68 1 29 13 -26 14 -26 9 -5 -26 113 -27 125 -11 170 10 28 12 47 5 51 -6 3 -4
11 6 19 18 15 4 39 -23 38 -9 0 -24 2 -33 6 -10 4 -23 1 -33 -9z m28 -32 c-21
-22 -24 -36 -24 -96 0 -39 -3 -68 -6 -64 -10 9 -10 146 0 140 5 -3 6 0 4 8 -7
18 20 49 37 43 9 -4 6 -13 -11 -31z m59 20 c4 -3 -3 -13 -14 -21 -26 -18 -49
-70 -50 -114 0 -18 -3 -27 -6 -20 -10 26 8 100 31 125 13 14 21 28 18 31 -3 3
-1 6 5 6 5 0 13 -3 16 -7z m-25 -84 c-6 -17 -8 -56 -5 -87 4 -37 3 -50 -3 -37
-12 27 -12 98 0 129 14 37 21 32 8 -5z m-31 -121 c-3 -8 -6 -5 -6 6 -1 11 2
17 5 13 3 -3 4 -12 1 -19z m-20 -10 c-3 -8 -6 -5 -6 6 -1 11 2 17 5 13 3 -3 4
-12 1 -19z m31 -93 c0 -5 -6 4 -13 20 -8 17 -14 37 -14 45 0 8 7 -1 14 -20 7
-19 13 -39 13 -45z m22 20 c0 -5 -5 -3 -10 5 -5 8 -10 20 -10 25 0 6 5 3 10
-5 5 -8 10 -19 10 -25z"/>
<path d="M3849 6963 c-13 -16 -12 -17 4 -4 9 7 17 15 17 17 0 8 -8 3 -21 -13z"/>
<path d="M4213 6915 c0 -22 2 -30 4 -17 2 12 2 30 0 40 -3 9 -5 -1 -4 -23z"/>
<path d="M3792 6915 c0 -16 2 -22 5 -12 2 9 2 23 0 30 -3 6 -5 -1 -5 -18z"/>
<path d="M3802 6850 c0 -14 2 -19 5 -12 2 6 2 18 0 25 -3 6 -5 1 -5 -13z"/>
<path d="M3938 6845 c-3 -16 -2 -66 3 -110 5 -44 6 -89 3 -100 -4 -17 -3 -17
5 -4 7 10 8 57 3 130 -5 74 -10 104 -14 84z"/>
<path d="M4058 6755 c-4 -70 -2 -126 4 -135 8 -12 8 -12 4 3 -3 10 0 60 6 112
8 65 9 100 1 117 -8 18 -11 -2 -15 -97z"/>
<path d="M4202 6850 c0 -14 2 -19 5 -12 2 6 2 18 0 25 -3 6 -5 1 -5 -13z"/>
<path d="M3598 6853 c7 -3 16 -2 19 1 4 3 -2 6 -13 5 -11 0 -14 -3 -6 -6z"/>
<path d="M3678 6853 c7 -3 16 -2 19 1 4 3 -2 6 -13 5 -11 0 -14 -3 -6 -6z"/>
<path d="M4282 6843 c-18 -8 -46 -32 -64 -52 -30 -34 -31 -34 -25 -9 4 14 3
37 -1 49 -7 19 -10 14 -15 -27 -3 -28 -17 -84 -31 -124 -14 -40 -26 -81 -26
-89 0 -9 11 14 23 50 37 108 97 181 172 207 17 6 23 11 15 11 -8 0 -30 -7 -48
-16z"/>
<path d="M4398 6853 c7 -3 16 -2 19 1 4 3 -2 6 -13 5 -11 0 -14 -3 -6 -6z"/>
<path d="M3528 6832 c-45 -20 -49 -32 -11 -32 67 0 151 -69 201 -165 12 -22
21 -36 22 -32 0 16 -41 88 -71 122 -17 19 -26 35 -20 35 15 0 86 -97 105 -143
38 -92 65 -362 39 -388 -7 -7 -8 17 -5 68 2 43 2 76 0 73 -3 -3 -8 -43 -11
-89 -6 -79 -6 -83 11 -68 9 9 25 31 35 49 10 18 12 25 4 16 -12 -16 -15 -3
-20 105 -3 67 -12 145 -20 173 -42 150 -157 275 -240 259 l-32 -6 35 20 c42
24 29 25 -22 3z m78 -43 c19 -11 34 -23 34 -26 0 -2 -15 4 -32 15 -18 11 -40
22 -48 25 -11 4 -12 6 -1 6 7 1 29 -8 47 -20z"/>
<path d="M3974 6740 c0 -63 1 -89 3 -57 2 31 2 83 0 115 -2 31 -3 5 -3 -58z"/>
<path d="M4030 6729 c0 -68 4 -129 8 -135 4 -7 7 46 7 116 0 71 -3 132 -7 136
-5 4 -8 -49 -8 -117z"/>
<path d="M3610 6820 c0 -5 5 -10 10 -10 21 0 112 -95 135 -140 28 -54 54 -142
56 -184 2 -28 2 -28 10 9 5 27 6 11 4 -50 l-4 -90 10 70 c17 119 -17 251 -86
333 -15 18 -35 32 -44 30 -9 -1 -30 7 -48 20 -34 24 -43 27 -43 12z m140 -94
c38 -56 40 -73 2 -20 -36 50 -44 64 -38 64 3 0 19 -20 36 -44z m67 -178 c-3
-8 -6 -5 -6 6 -1 11 2 17 5 13 3 -3 4 -12 1 -19z"/>
<path d="M3994 6815 c-3 -8 -2 -97 3 -197 l10 -183 1 198 c1 108 0 197 -3 197
-3 0 -8 -7 -11 -15z"/>
<path d="M4360 6808 c-19 -12 -43 -21 -52 -19 -25 3 -85 -83 -108 -159 -12
-36 -22 -99 -24 -140 -3 -61 -2 -66 4 -25 l7 50 2 -40 c3 -36 4 -33 16 30 21
115 52 182 109 240 28 28 62 59 76 68 38 24 10 20 -30 -5z m-72 -66 c-18 -20
-40 -52 -47 -70 -8 -18 -16 -31 -18 -28 -8 8 28 70 60 104 43 44 47 40 5 -6z
m-91 -204 c-3 -8 -6 -5 -6 6 -1 11 2 17 5 13 3 -3 4 -12 1 -19z"/>
<path d="M4490 6819 c11 -7 4 -9 -25 -4 -35 5 -47 1 -90 -29 -59 -42 -119
-127 -140 -199 -23 -77 -38 -202 -32 -274 2 -35 3 -63 1 -63 -2 0 -15 21 -28
48 -14 26 -25 43 -26 39 0 -15 38 -82 68 -117 l29 -35 -4 50 c-3 28 -9 73 -13
100 -7 39 -8 32 -4 -35 3 -47 2 -82 -2 -78 -4 5 -9 47 -11 95 -8 166 42 337
118 408 l32 30 -25 -35 c-27 -37 -51 -80 -45 -80 2 0 18 23 36 50 36 56 117
110 164 110 29 0 36 14 11 24 -24 9 -31 7 -14 -5z m-31 -12 c-22 -17 -100 -57
-95 -48 8 12 75 50 90 51 5 0 7 -1 5 -3z"/>
<path d="M3800 6719 c0 -3 9 -32 21 -65 11 -32 24 -86 28 -119 l8 -60 2 56 c1
60 -19 142 -43 174 -9 11 -16 17 -16 14z"/>
<path d="M4191 6702 c-25 -46 -41 -140 -39 -227 l1 -90 7 100 c4 60 16 125 29
164 22 62 23 92 2 53z"/>
<path d="M3473 6670 c-21 -9 -47 -28 -58 -41 l-20 -24 28 24 c15 14 27 22 27
18 0 -3 16 1 35 9 53 22 107 18 149 -11 45 -30 81 -71 97 -107 6 -15 16 -25
21 -22 6 4 7 -2 3 -16 -5 -15 -4 -20 4 -16 14 9 14 21 1 68 -9 29 -15 36 -31
33 -14 -3 -19 0 -16 9 3 8 -8 26 -24 42 -16 15 -29 24 -29 19 0 -5 -6 -1 -13
9 -19 26 -123 29 -174 6z m217 -45 c13 -14 21 -25 18 -25 -2 0 -15 11 -28 25
-13 14 -21 25 -18 25 2 0 15 -11 28 -25z m57 -76 c2 -24 0 -23 -16 8 -9 18 -9
22 2 18 7 -3 13 -15 14 -26z"/>
<path d="M4384 6677 c-25 -13 -90 -79 -87 -88 1 -4 -5 -10 -13 -13 -11 -4 -14
-2 -11 6 16 39 17 51 3 28 -23 -39 -40 -120 -28 -132 8 -8 9 -4 6 13 -5 20 -4
21 6 9 9 -12 10 -10 4 10 -3 14 -3 22 1 18 4 -4 20 12 35 36 58 91 139 124
230 92 24 -8 46 -13 48 -11 8 7 -47 37 -58 30 -5 -3 -10 -3 -10 2 0 12 -103
12 -126 0z m-100 -122 c-4 -8 -11 -12 -16 -9 -6 4 -5 10 3 15 19 12 19 11 13
-6z"/>
<path d="M3881 6604 c0 -11 3 -14 6 -6 3 7 2 16 -1 19 -3 4 -6 -2 -5 -13z"/>
<path d="M3481 6586 c-12 -12 -21 -30 -21 -38 0 -23 11 -48 20 -48 13 0 19 39
8 47 -6 3 -8 1 -4 -5 3 -6 2 -13 -4 -17 -6 -3 -10 3 -10 16 0 16 5 20 20 16
11 -3 20 -2 20 1 0 14 56 10 73 -5 9 -9 18 -13 18 -10 1 4 2 11 3 16 3 27 11
14 12 -20 1 -21 -3 -39 -8 -39 -5 0 -7 4 -4 8 3 5 -6 15 -19 22 -13 7 -22 18
-18 23 4 6 1 7 -6 2 -7 -4 -11 -16 -8 -26 3 -11 0 -19 -6 -19 -8 0 -7 -4 1
-12 14 -14 16 -44 3 -52 -4 -3 -6 6 -3 19 2 15 0 25 -7 25 -6 0 -10 -3 -10 -7
4 -23 -3 -33 -23 -34 -18 -1 -16 -3 10 -10 17 -5 32 -11 32 -12 0 -2 -18 -3
-40 -2 -26 1 -47 8 -63 23 -13 12 -27 19 -32 15 -4 -5 -5 0 -2 10 4 9 2 17 -3
17 -6 0 -10 10 -10 22 0 27 -5 21 -14 -15 -5 -21 -4 -27 5 -21 9 5 10 2 6 -10
-4 -10 -1 -19 8 -22 8 -4 12 -11 8 -17 -3 -5 -1 -7 4 -4 6 4 14 0 17 -9 4 -9
9 -14 12 -11 4 3 12 0 20 -7 7 -8 30 -14 51 -14 21 0 32 3 24 6 -14 4 45 37
62 34 8 -2 8 0 12 43 4 42 4 42 16 25 9 -12 10 -12 5 4 -4 11 0 26 9 36 14 15
13 19 -10 40 -14 13 -25 19 -25 14 0 -5 -4 -4 -8 2 -4 6 -28 13 -54 16 -39 5
-50 2 -67 -16z m29 10 c0 -2 -8 -10 -17 -17 -16 -13 -17 -12 -4 4 13 16 21 21
21 13z m129 -40 c8 -10 8 -16 -2 -24 -10 -9 -13 -6 -13 13 0 29 0 29 15 11z
m-57 -81 c-2 -19 -8 -37 -12 -40 -4 -2 -5 8 -3 23 10 59 21 73 15 17z"/>
<path d="M4462 6603 c-35 -3 -42 -7 -38 -20 5 -13 4 -14 -9 -3 -10 9 -15 9
-16 1 -1 -6 -2 -17 -3 -23 -4 -25 6 -29 26 -11 22 20 92 27 84 8 -2 -6 5 -22
15 -36 10 -13 19 -22 20 -19 7 26 5 77 -3 87 -12 15 -31 6 -22 -9 5 -7 2 -8
-5 -4 -7 5 -10 14 -7 22 3 8 4 13 3 12 -1 -1 -22 -3 -45 -5z m73 -53 c0 -21
-3 -26 -12 -18 -9 7 -10 16 -3 28 5 9 7 20 5 24 -3 3 -2 3 3 0 4 -3 7 -18 7
-34z"/>
<path d="M3982 6570 c0 -19 2 -27 5 -17 2 9 2 25 0 35 -3 9 -5 1 -5 -18z"/>
<path d="M3892 6515 c-2 -54 3 -77 18 -102 11 -18 22 -33 25 -33 3 0 -3 12
-12 27 -11 17 -20 56 -24 102 l-6 76 -1 -70z"/>
<path d="M4110 6522 c0 -70 -12 -97 -60 -128 -22 -15 -40 -34 -40 -42 0 -13
-2 -13 -17 0 -23 19 -43 31 -43 24 0 -2 14 -14 30 -26 l30 -22 50 42 c28 23
50 49 51 58 0 13 2 13 9 -3 4 -12 6 14 3 60 -7 92 -13 111 -13 37z m-15 -112
c-3 -5 -20 -19 -38 -30 -32 -22 -32 -22 3 9 37 32 45 37 35 21z"/>
<path d="M4373 6563 c4 -3 -1 -12 -11 -20 -15 -13 -15 -13 6 -3 19 9 23 30 5
30 -4 0 -3 -3 0 -7z"/>
<path d="M4450 6550 c0 -6 -4 -9 -9 -6 -5 3 -14 0 -20 -7 -8 -10 -7 -14 4 -14
8 0 11 5 8 11 -3 6 -4 9 0 6 9 -8 8 -25 -3 -26 -5 -1 -14 -2 -20 -3 -18 -2
-11 -77 8 -94 10 -10 22 -14 27 -10 4 5 5 2 1 -5 -6 -10 -1 -11 17 -7 14 4 28
2 31 -3 10 -17 59 -3 79 21 10 12 15 15 11 7 -6 -12 -5 -13 7 -2 8 7 15 17 15
23 1 5 2 14 3 20 0 5 6 7 13 3 8 -5 9 -2 5 10 -4 10 -7 20 -7 22 0 2 -4 4 -10
4 -5 0 -6 -7 -3 -17 4 -10 2 -14 -4 -10 -6 4 -18 -5 -28 -19 -10 -16 -22 -23
-31 -20 -8 3 -13 2 -10 -2 3 -5 -10 -8 -29 -8 -18 1 -31 3 -29 5 2 2 -2 11 -8
20 -10 13 -10 14 2 4 8 -7 23 -13 35 -12 19 0 19 1 -2 9 -13 5 -23 18 -23 29
0 11 -4 22 -9 26 -6 3 -8 14 -6 25 2 11 0 22 -6 25 -5 4 -9 1 -9 -5z m4 -110
c10 -13 9 -13 -6 -1 -10 7 -18 21 -17 30 0 13 1 14 6 1 3 -8 11 -22 17 -30z"/>
<path d="M3371 6524 c0 -11 3 -14 6 -6 3 7 2 16 -1 19 -3 4 -6 -2 -5 -13z"/>
<path d="M4377 6524 c-3 -3 -3 -13 0 -21 5 -12 7 -12 14 -1 15 23 4 40 -14 22z"/>
<path d="M4627 6509 c4 -13 8 -18 11 -10 2 7 -1 18 -6 23 -8 8 -9 4 -5 -13z"/>
<path d="M3718 6487 c-3 -12 -4 -69 -3 -127 2 -66 -2 -110 -9 -119 -9 -12 -8
-13 3 -6 11 6 12 5 5 -6 -5 -8 -7 -22 -5 -33 1 -11 -2 -16 -9 -11 -7 5 -9 -2
-4 -21 5 -20 4 -25 -6 -19 -9 5 -10 2 -6 -13 9 -27 -36 -138 -85 -207 -44 -63
-49 -77 -17 -49 12 10 5 -2 -16 -28 -37 -47 -95 -98 -151 -134 -17 -11 -26
-13 -21 -5 7 10 3 12 -14 6 -17 -5 -21 -4 -15 5 5 9 4 11 -4 6 -6 -4 -9 -12
-6 -17 7 -10 -60 -42 -126 -59 -32 -9 -48 -9 -64 0 -12 7 -31 10 -41 7 -16 -4
-16 -5 3 -6 12 0 25 -5 28 -11 4 -6 -23 -10 -73 -10 -44 0 -95 -2 -113 -5 -29
-4 -30 -3 -9 4 14 5 18 10 10 10 -8 1 -26 4 -40 7 -20 4 -22 3 -10 -5 34 -24
-10 -9 -53 19 -26 16 -47 25 -47 20 0 -5 5 -12 10 -15 6 -4 8 -10 5 -15 -3 -5
0 -12 6 -16 8 -5 8 -9 -1 -14 -9 -5 -9 -9 -1 -14 6 -4 11 -2 11 3 0 6 5 11 11
11 5 0 7 -4 4 -10 -4 -6 1 -7 11 -3 12 5 15 3 9 -6 -6 -10 -2 -11 15 -6 15 5
20 3 16 -3 -4 -7 6 -9 29 -5 19 3 35 2 35 -3 0 -5 38 -9 84 -9 47 0 82 4 79 9
-4 5 15 7 42 4 32 -4 43 -3 34 4 -10 7 -3 8 21 4 27 -5 31 -3 20 5 -12 8 -9 9
13 4 20 -4 27 -2 22 6 -5 8 0 9 16 4 20 -5 21 -4 9 5 -12 10 -11 11 8 7 14 -3
20 -1 15 6 -4 7 0 8 11 4 11 -5 15 -3 10 5 -5 8 -2 9 10 5 11 -5 15 -3 10 5
-5 7 -2 9 8 6 9 -4 15 0 15 8 0 18 0 18 -48 -7 -23 -11 -43 -19 -45 -17 -2 2
22 16 52 31 31 15 53 23 49 17 -3 -5 -1 -10 5 -10 6 0 8 -5 4 -12 -4 -6 -3 -8
4 -4 6 3 9 15 7 26 -2 11 1 23 7 26 7 4 8 2 4 -4 -4 -7 -2 -12 4 -12 6 0 8 -5
4 -12 -5 -7 -3 -8 5 -4 7 5 10 11 7 14 -3 3 2 15 11 26 18 20 17 20 -2 6 -20
-14 -20 -14 -2 7 11 12 25 19 33 16 13 -5 12 -9 -3 -27 -9 -11 8 4 40 34 31
30 57 56 57 59 0 2 -10 -5 -23 -17 -13 -12 -26 -19 -30 -16 -7 7 53 60 64 57
7 -2 32 29 53 65 17 29 -4 9 -24 -23 -12 -19 -26 -33 -31 -29 -5 3 5 26 22 50
82 120 129 270 129 413 0 122 -29 237 -42 168z m25 -167 c0 -63 -5 -128 -11
-145 -10 -26 -10 -23 -4 20 9 65 9 199 0 250 -7 35 -6 37 4 15 7 -15 12 -71
11 -140z m-52 -267 c-12 -20 -14 -14 -5 12 4 9 9 14 11 11 3 -2 0 -13 -6 -23z
m-11 -31 c0 -5 -7 -17 -15 -28 -14 -18 -14 -17 -4 9 12 27 19 34 19 19z m-40
-72 c-6 -11 -13 -20 -16 -20 -2 0 0 9 6 20 6 11 13 20 16 20 2 0 0 -9 -6 -20z
m-90 -174 c0 -2 -8 -10 -17 -17 -16 -13 -17 -12 -4 4 13 16 21 21 21 13z
m-651 -152 c14 -12 -19 -1 -35 12 -18 14 -18 14 6 3 14 -6 27 -13 29 -15z
m189 -11 c-15 -2 -42 -2 -60 0 -18 2 -6 4 27 4 33 0 48 -2 33 -4z m149 1 c-3
-3 -12 -4 -19 -1 -8 3 -5 6 6 6 11 1 17 -2 13 -5z m-254 -11 c-7 -2 -21 -2
-30 0 -10 3 -4 5 12 5 17 0 24 -2 18 -5z m205 0 c-10 -2 -26 -2 -35 0 -10 3
-2 5 17 5 19 0 27 -2 18 -5z m-95 -10 c-18 -2 -48 -2 -65 0 -18 2 -4 4 32 4
36 0 50 -2 33 -4z"/>
<path d="M4270 6473 c-45 -160 -2 -390 104 -550 19 -28 32 -54 30 -56 -3 -2 2
-10 11 -17 8 -7 15 -17 15 -23 0 -5 -10 -2 -22 9 -21 17 -21 16 1 -9 14 -15
27 -25 29 -22 3 3 16 -5 29 -17 13 -12 23 -18 23 -14 0 5 6 3 14 -3 8 -7 13
-21 11 -31 -2 -10 4 -25 13 -32 12 -10 14 -10 8 0 -4 7 -2 12 4 12 6 0 8 5 5
10 -10 16 1 11 16 -7 12 -14 12 -16 0 -8 -11 6 -12 5 -5 -6 5 -8 9 -17 9 -21
0 -3 4 -10 9 -15 5 -5 6 -3 2 5 -4 6 -2 12 4 12 6 0 8 4 5 10 -4 6 1 7 12 4
10 -3 5 5 -12 17 -16 13 -59 52 -95 87 l-65 65 80 -72 c72 -64 116 -93 86 -58
-6 8 -9 16 -6 19 3 3 -2 11 -12 19 -11 9 -14 10 -9 2 10 -18 -9 -16 -24 2 -7
8 -9 15 -4 15 4 0 -3 11 -16 25 -12 13 -26 22 -31 20 -8 -6 -64 61 -97 116
-35 58 -73 169 -66 191 4 15 3 18 -6 13 -10 -6 -11 -1 -6 19 5 20 3 26 -5 21
-8 -5 -10 3 -6 29 3 20 1 39 -4 42 -10 6 -5 144 7 184 6 21 4 23 -7 12 -9 -9
-15 -50 -19 -135 -4 -107 -6 -115 -12 -65 -7 59 4 166 22 212 5 15 6 26 0 26
-5 0 -14 -17 -20 -37z m17 -295 c-3 -7 -5 -2 -5 12 0 14 2 19 5 13 2 -7 2 -19
0 -25z m48 -146 c-4 -5 -45 105 -44 121 0 7 11 -17 24 -53 13 -35 22 -66 20
-68z m24 -42 c11 -24 11 -24 -3 -6 -9 11 -16 24 -16 30 0 12 5 7 19 -24z m46
-72 c16 -24 22 -38 14 -31 -15 12 -53 73 -46 73 2 0 17 -19 32 -42z m110 -98
c10 -11 16 -20 13 -20 -3 0 -13 9 -23 20 -10 11 -16 20 -13 20 3 0 13 -9 23
-20z"/>
<path d="M4381 6442 c11 -49 11 -60 -2 -42 -8 12 -9 9 -5 -12 4 -15 10 -56 14
-90 l7 -63 6 50 c5 45 6 41 9 -35 l4 -85 6 75 7 75 -1 -92 c-1 -50 2 -86 6
-80 5 8 8 4 8 -8 0 -32 48 -127 61 -120 6 4 9 0 7 -11 -2 -10 3 -19 10 -19 16
0 32 -26 25 -40 -4 -5 -2 -7 2 -2 5 4 27 -10 49 -30 l41 -38 -37 40 c-42 45
-51 69 -15 39 l22 -19 -19 22 c-10 13 -22 20 -27 18 -4 -3 -15 5 -23 17 -18
26 -21 42 -5 32 6 -3 3 9 -6 27 -20 38 -32 53 -22 27 17 -43 17 -51 2 -25 -9
16 -13 37 -10 50 5 18 4 19 -5 7 -9 -12 -10 -7 -5 20 5 27 4 32 -5 20 -9 -12
-10 -9 -9 15 1 17 -2 38 -6 48 -4 9 -4 25 0 35 4 9 7 33 6 52 -1 27 1 31 8 20
10 -13 11 -13 10 0 0 17 -17 59 -18 47 -1 -4 -8 -2 -16 5 -46 38 -65 61 -65
78 0 10 -4 21 -9 24 -5 4 -5 -10 0 -32z m16 -94 c-3 -7 -5 -2 -5 12 0 14 2 19
5 13 2 -7 2 -19 0 -25z m20 10 c-3 -8 -6 -5 -6 6 -1 11 2 17 5 13 3 -3 4 -12
1 -19z m20 -20 c-3 -7 -5 -2 -5 12 0 14 2 19 5 13 2 -7 2 -19 0 -25z m20 -25
c-3 -10 -5 -4 -5 12 0 17 2 24 5 18 2 -7 2 -21 0 -30z m-10 -110 c-2 -16 -4
-3 -4 27 0 30 2 43 4 28 2 -16 2 -40 0 -55z m44 -154 c6 -12 8 -23 6 -26 -7
-7 -47 104 -46 130 0 12 7 -2 15 -31 7 -29 19 -62 25 -73z"/>
<path d="M4232 6445 c0 -16 2 -22 5 -12 2 9 2 23 0 30 -3 6 -5 -1 -5 -18z"/>
<path d="M3625 6438 c-6 -13 -17 -23 -25 -23 -9 0 -16 -11 -18 -29 -3 -19 -6
-25 -12 -17 -10 18 -50 -4 -50 -27 0 -15 2 -15 11 -2 7 11 9 3 5 -30 -4 -32
-3 -39 3 -25 7 15 10 0 10 -52 1 -40 -3 -73 -8 -73 -5 0 -7 -10 -3 -22 4 -15
2 -19 -7 -13 -10 5 -11 2 -7 -13 5 -13 -1 -35 -14 -59 -19 -35 -20 -31 -3 15
10 26 -2 11 -22 -27 -10 -19 -12 -30 -5 -26 8 5 11 3 8 -6 -3 -8 -10 -14 -16
-14 -6 0 -17 -7 -24 -15 -11 -12 -11 -12 5 -1 21 16 23 -1 2 -19 -8 -7 -15 -9
-15 -4 0 4 -18 -9 -40 -31 -38 -37 -47 -73 -9 -39 10 9 16 20 14 24 -3 4 3 14
12 21 15 12 16 12 10 -6 -5 -15 0 -12 20 10 14 17 31 30 37 30 6 0 10 8 8 18
-2 10 3 16 10 15 7 -2 26 24 43 57 16 33 33 61 36 63 3 1 4 17 2 35 -3 27 -2
29 7 12 8 -16 9 -13 5 15 -2 19 -6 67 -9 105 -4 56 -3 62 4 30 5 -22 10 -58
10 -80 2 -28 6 -13 16 50 7 50 16 109 20 133 7 47 4 53 -11 20z m-28 -50 c-3
-8 -6 -5 -6 6 -1 11 2 17 5 13 3 -3 4 -12 1 -19z m-40 -40 c-3 -8 -6 -5 -6 6
-1 11 2 17 5 13 3 -3 4 -12 1 -19z m50 -25 c-3 -10 -5 -4 -5 12 0 17 2 24 5
18 2 -7 2 -21 0 -30z m-39 -123 c-3 -64 -10 -99 -30 -142 -15 -32 -29 -58 -32
-58 -3 0 7 26 22 58 22 47 27 76 31 162 2 58 7 96 9 85 2 -10 2 -58 0 -105z
m-168 -294 c0 -2 -8 -10 -17 -17 -16 -13 -17 -12 -4 4 13 16 21 21 21 13z"/>
<path d="M3881 6414 c0 -11 3 -14 6 -6 3 7 2 16 -1 19 -3 4 -6 -2 -5 -13z"/>
<path d="M3851 6404 c0 -11 3 -14 6 -6 3 7 2 16 -1 19 -3 4 -6 -2 -5 -13z"/>
<path d="M4131 6390 c0 -8 4 -22 9 -30 12 -18 12 -2 0 25 -6 13 -9 15 -9 5z"/>
<path d="M3856 6345 c-9 -26 -7 -32 5 -12 6 10 9 21 6 23 -2 3 -7 -2 -11 -11z"/>
<path d="M3631 6023 c-10 -26 -10 -27 4 -9 8 11 15 23 15 28 0 15 -7 8 -19
-19z"/>
<path d="M4300 6006 c0 -11 30 -66 36 -66 2 0 -3 15 -12 33 -19 36 -24 44 -24
33z"/>
<path d="M3687 5965 c-9 -19 -15 -35 -12 -35 7 0 37 61 33 66 -3 2 -12 -12
-21 -31z"/>
<path d="M2781 5924 c-27 -23 -38 -41 -34 -51 4 -9 2 -14 -3 -11 -5 4 -9 -21
-9 -57 0 -36 4 -58 8 -52 5 7 7 3 4 -11 -3 -14 -1 -20 6 -15 6 4 8 0 4 -10 -4
-12 -2 -14 11 -10 14 6 15 4 5 -8 -9 -11 -9 -19 -2 -26 8 -8 8 -13 0 -17 -6
-4 -11 -2 -11 4 0 7 -6 10 -14 7 -7 -3 -18 -1 -24 5 -6 6 -19 7 -29 3 -10 -4
-29 -8 -42 -9 -14 -1 -26 -7 -29 -14 -2 -7 -7 -10 -12 -7 -5 3 -21 -7 -37 -21
-15 -15 -20 -21 -9 -13 10 7 23 14 30 16 63 15 105 30 100 36 -4 4 0 7 10 7 9
0 15 -4 12 -9 -3 -5 7 -11 23 -14 37 -8 88 -51 121 -104 15 -23 31 -39 35 -35
4 4 4 -4 1 -18 -6 -20 -5 -22 4 -8 12 19 3 51 -13 41 -7 -4 -8 0 -4 11 5 13
-3 28 -30 52 -20 19 -33 34 -28 34 5 0 -5 15 -23 33 -21 21 -29 36 -22 43 12
12 -9 86 -22 78 -13 -8 -9 68 5 95 6 13 14 22 17 20 3 -2 21 6 41 19 48 29 84
28 115 -3 36 -36 29 -69 -14 -73 -38 -4 -38 -20 -1 -39 23 -12 23 -13 3 -13
-12 0 -27 7 -34 15 -7 8 -15 13 -19 11 -4 -3 -5 11 -3 29 3 26 1 33 -12 31 -9
-1 -22 -8 -29 -16 -9 -10 -9 -11 0 -6 9 5 11 2 7 -8 -3 -9 -11 -13 -16 -10 -6
4 -8 -2 -3 -15 4 -12 2 -28 -4 -35 -24 -29 67 -141 99 -121 5 3 26 2 46 -4 21
-6 44 -6 57 -1 21 8 21 9 -5 9 -15 1 -39 6 -54 11 -19 8 -30 8 -38 0 -15 -15
-30 -12 -17 4 10 12 8 17 -10 27 -22 11 -22 12 -4 25 11 8 27 11 38 8 28 -9
162 6 146 17 -9 6 3 9 33 9 54 0 156 39 136 52 -19 12 -35 9 -18 -3 12 -8 9
-10 -12 -6 -16 2 -28 0 -28 -6 0 -14 -138 -3 -153 12 -9 9 -7 11 8 6 16 -5 17
-5 5 3 -8 6 -18 8 -24 5 -5 -4 -7 8 -3 31 4 25 2 34 -5 30 -8 -5 -9 -1 -5 12
6 17 6 17 -6 3 -11 -15 -14 -14 -31 10 l-20 26 22 -19 c12 -11 22 -14 22 -8 0
21 -4 27 -17 24 -7 -2 -12 2 -11 9 2 6 -3 13 -10 15 -7 1 -8 0 -2 -3 5 -2 8
-8 5 -13 -6 -10 -97 -1 -109 11 -16 14 -24 11 -65 -27z m63 18 c3 -5 -8 -16
-24 -25 -27 -16 -28 -16 -25 0 1 11 9 17 20 15 10 -2 14 1 10 7 -3 6 -2 11 4
11 5 0 12 -4 15 -8z m153 -109 c-3 -10 -5 -4 -5 12 0 17 2 24 5 18 2 -7 2 -21
0 -30z m12 -49 c-6 -7 -15 -11 -20 -8 -5 3 -9 0 -9 -6 0 -6 -5 -8 -10 -5 -6 4
-1 14 12 25 25 20 46 16 27 -6z m-125 -9 c4 -10 14 -13 34 -9 17 4 32 1 36 -5
7 -11 -10 -15 -45 -12 -8 1 -23 -7 -33 -18 -16 -18 -16 -20 4 -34 13 -9 17
-17 11 -22 -14 -8 -33 3 -26 16 4 5 2 9 -4 9 -6 0 -17 13 -26 30 -20 38 -19
54 1 17 12 -22 18 -26 29 -17 16 13 12 46 -5 42 -6 -1 -9 2 -5 8 9 14 22 12
29 -5z"/>
<path d="M5028 5932 c-9 -9 -13 -23 -10 -31 3 -8 0 -11 -7 -7 -7 5 -9 1 -4
-10 4 -11 2 -15 -4 -11 -6 4 -10 -8 -11 -29 -1 -23 2 -33 10 -28 6 4 8 3 5 -3
-4 -6 5 -15 18 -21 14 -7 25 -16 25 -22 0 -16 -18 -12 -29 8 -6 9 -11 13 -11
7 0 -5 -4 -4 -9 4 -5 8 -21 15 -34 15 -14 1 -23 -2 -21 -6 3 -4 -23 -7 -58 -6
l-63 1 50 7 c44 7 42 7 -18 4 -45 -2 -65 1 -61 8 4 7 -1 8 -16 3 -15 -5 -20
-4 -16 4 4 6 3 11 -3 11 -25 0 -18 -19 12 -31 17 -8 34 -14 37 -15 3 0 18 -6
33 -12 16 -7 49 -12 75 -13 33 0 41 -3 27 -8 -13 -5 0 -10 44 -14 86 -9 101
-9 101 3 0 6 -7 10 -15 10 -8 0 -15 5 -15 10 0 6 11 10 24 10 14 0 28 -4 31
-10 3 -5 1 -10 -6 -10 -7 0 -4 -7 7 -15 26 -20 43 -19 18 1 -13 11 -14 14 -3
11 9 -3 16 1 16 8 0 8 -7 11 -15 7 -11 -4 -14 -1 -9 11 5 14 2 16 -21 12 -23
-5 -24 -4 -6 4 24 11 39 41 21 42 -7 1 -23 2 -37 2 -36 3 -36 32 0 68 27 27
36 31 68 26 25 -5 32 -3 22 3 -38 25 -111 3 -137 -41 -10 -17 -12 -18 -7 -4 3
11 7 25 7 32 0 7 4 10 8 7 4 -2 10 0 13 5 11 18 -11 21 -26 3z m-11 -94 c-3
-8 -6 -5 -6 6 -1 11 2 17 5 13 3 -3 4 -12 1 -19z"/>
<path d="M5217 5933 c-4 -6 0 -16 8 -23 8 -7 15 -17 15 -23 0 -6 -12 0 -27 14
l-28 24 24 -27 c13 -15 27 -25 31 -23 9 6 30 -48 30 -75 0 -10 -6 -20 -14 -23
-7 -3 -16 -16 -18 -29 -3 -13 -9 -31 -13 -41 -6 -14 -3 -16 11 -11 16 5 17 4
4 -6 -13 -10 -13 -11 0 -7 8 2 14 12 12 22 -2 10 1 14 7 10 7 -4 8 0 4 11 -4
12 -3 15 6 10 9 -6 10 -1 5 18 -3 14 -2 26 2 26 5 0 9 16 10 35 0 24 -2 31 -9
23 -5 -9 -7 -3 -4 16 3 21 -2 36 -23 59 -16 18 -29 26 -33 20z m28 -23 c10
-11 16 -20 13 -20 -3 0 -13 9 -23 20 -10 11 -16 20 -13 20 3 0 13 -9 23 -20z"/>
<path d="M3559 5903 c-13 -16 -12 -17 4 -4 9 7 17 15 17 17 0 8 -8 3 -21 -13z"/>
<path d="M4645 5890 c10 -11 20 -20 23 -20 3 0 -3 9 -13 20 -10 11 -20 20 -23
20 -3 0 3 -9 13 -20z"/>
<path d="M4450 5896 c0 -2 8 -10 18 -17 15 -13 16 -12 3 4 -13 16 -21 21 -21
13z"/>
<path d="M3492 5828 c-28 -29 -51 -57 -51 -63 0 -5 -5 -11 -12 -14 -7 -2 -9 1
-4 9 6 9 4 11 -4 6 -7 -5 -10 -11 -7 -14 3 -3 1 -11 -5 -19 -7 -8 -8 -13 -1
-13 5 0 41 30 79 68 38 37 55 55 38 40 -47 -42 -54 -33 -10 12 21 22 37 40 34
40 -2 0 -28 -24 -57 -52z m-12 -32 c0 -2 -8 -10 -17 -17 -16 -13 -17 -12 -4 4
13 16 21 21 21 13z"/>
<path d="M4680 5866 c0 -3 9 -10 20 -16 11 -6 20 -8 20 -6 0 3 -9 10 -20 16
-11 6 -20 8 -20 6z"/>
<path d="M5150 5863 c0 -5 4 -15 9 -23 6 -8 7 -18 4 -23 -3 -5 -9 -3 -14 4 -7
12 -9 11 -10 -1 0 -8 -2 -23 -4 -33 -2 -9 0 -15 5 -12 4 3 14 -3 21 -12 9 -10
9 -14 2 -10 -8 5 -11 1 -8 -13 5 -26 -64 -68 -129 -76 l-48 -7 28 -13 c26 -11
20 -12 -63 -13 -59 -1 -93 3 -93 10 0 5 3 8 8 6 4 -3 16 -1 27 4 19 7 19 8 -3
8 -12 1 -30 -4 -40 -10 -20 -13 -91 6 -164 42 -43 22 -52 23 -42 7 4 -6 3 -8
-4 -5 -16 11 -40 -2 -38 -20 1 -8 11 -20 21 -25 13 -8 16 -7 11 1 -9 14 -3 14
29 -1 19 -8 22 -14 13 -20 -8 -6 -4 -7 11 -3 15 5 21 3 17 -3 -4 -6 3 -8 16
-5 19 4 20 3 8 -6 -12 -9 -9 -10 15 -5 24 4 27 3 15 -6 -12 -8 -6 -9 25 -5 29
4 35 3 20 -4 -14 -6 -3 -8 34 -4 31 4 52 2 49 -3 -7 -10 145 -9 162 1 6 4 23
4 36 1 18 -5 24 -3 19 5 -5 8 -1 9 15 4 15 -5 20 -4 16 4 -8 12 4 15 19 3 13
-9 19 -46 6 -38 -12 8 -30 -24 -24 -42 3 -7 17 6 34 32 16 24 41 51 55 60 13
10 23 20 20 24 -2 4 24 8 59 10 65 3 120 -12 160 -46 12 -9 5 -1 -15 19 -40
40 -136 72 -149 50 -5 -7 -15 -9 -26 -5 -14 6 -16 4 -10 -7 7 -12 6 -12 -7 -1
-12 10 -17 10 -27 -1 -6 -8 -9 -16 -6 -19 3 -3 -3 -11 -12 -19 -16 -13 -17
-12 -4 4 17 21 8 22 -24 1 -16 -11 -29 -13 -41 -6 -15 8 -15 9 0 15 10 4 15 3
11 -3 -12 -19 13 -10 43 15 17 14 30 35 30 47 0 13 3 37 7 53 5 25 3 24 -13
-10 -19 -41 -74 -95 -95 -95 -7 0 3 9 21 20 30 18 32 23 20 38 -12 15 -11 16
4 4 15 -12 19 -9 33 19 13 24 14 34 5 39 -6 4 -11 23 -10 41 3 51 1 61 -10 54
-5 -3 -10 -1 -10 4 0 6 -4 11 -10 11 -5 0 -10 -3 -10 -7z m26 -141 c-18 -16
-18 -16 -6 6 6 13 14 21 18 18 3 -4 -2 -14 -12 -24z m-29 -34 c-2 -7 -10 -12
-16 -10 -6 1 -11 -3 -11 -9 0 -5 -5 -7 -11 -4 -6 5 -4 12 8 21 23 17 36 18 30
2z m63 -1 c0 -2 -12 -14 -27 -28 l-28 -24 24 28 c23 25 31 32 31 24z m-531
-33 c14 -12 -19 -1 -35 12 -18 14 -18 14 6 3 14 -6 27 -13 29 -15z m410 -5
c-12 -7 -12 -9 0 -9 8 0 12 -2 10 -5 -3 -2 -18 0 -35 4 -24 8 -25 9 -6 10 12
1 22 6 22 12 0 5 5 7 11 3 8 -4 7 -9 -2 -15z m-369 -9 c8 -5 11 -10 5 -10 -5
0 -17 5 -25 10 -8 5 -10 10 -5 10 6 0 17 -5 25 -10z m47 -16 c-3 -3 -12 -4
-19 -1 -8 3 -5 6 6 6 11 1 17 -2 13 -5z m300 0 c-3 -3 -12 -4 -19 -1 -8 3 -5
6 6 6 11 1 17 -2 13 -5z m-260 -10 c-3 -3 -12 -4 -19 -1 -8 3 -5 6 6 6 11 1
17 -2 13 -5z m78 -4 c-3 -5 -21 -9 -38 -9 l-32 2 35 7 c19 4 36 8 38 9 2 0 0
-3 -3 -9z m113 3 c-15 -2 -42 -2 -60 0 -18 2 -6 4 27 4 33 0 48 -2 33 -4z m75
-10 c-7 -2 -21 -2 -30 0 -10 3 -4 5 12 5 17 0 24 -2 18 -5z m117 2 c0 -2 -6
-8 -13 -14 -10 -8 -14 -7 -14 2 0 8 6 14 14 14 7 0 13 -1 13 -2z m-197 -12
c-18 -2 -48 -2 -65 0 -18 2 -4 4 32 4 36 0 50 -2 33 -4z"/>
<path d="M2722 5815 c0 -16 2 -22 5 -12 2 9 2 23 0 30 -3 6 -5 -1 -5 -18z"/>
<path d="M3093 5803 c15 -2 39 -2 55 0 15 2 2 4 -28 4 -30 0 -43 -2 -27 -4z"/>
<path d="M4440 5787 c0 -2 15 -16 33 -33 l32 -29 -29 33 c-28 30 -36 37 -36
29z"/>
<path d="M2786 5748 c5 -13 8 -33 7 -45 0 -12 9 -30 20 -40 18 -15 20 -15 8
-1 -7 9 -10 21 -7 26 3 6 -1 26 -9 46 -17 39 -31 50 -19 14z"/>
<path d="M4605 5720 c3 -5 11 -10 16 -10 6 0 7 5 4 10 -3 6 -11 10 -16 10 -6
0 -7 -4 -4 -10z"/>
<path d="M3195 5660 c3 -5 8 -10 11 -10 2 0 4 5 4 10 0 6 -5 10 -11 10 -5 0
-7 -4 -4 -10z"/>
<path d="M4805 5660 c-3 -5 -2 -10 4 -10 5 0 13 5 16 10 3 6 2 10 -4 10 -5 0
-13 -4 -16 -10z"/>
<path d="M2535 5579 c-4 -6 -5 -12 -2 -15 2 -3 7 2 10 11 7 17 1 20 -8 4z"/>
<path d="M2625 5570 c-13 -14 -14 -23 -6 -39 14 -25 14 -34 1 -26 -5 3 -10 1
-10 -4 0 -6 7 -11 16 -11 11 0 15 6 12 18 -3 10 0 22 6 28 18 16 72 11 94 -9
13 -12 22 -15 27 -7 3 5 10 8 15 5 4 -3 7 3 6 12 -3 17 -14 19 -26 6 -3 -4 1
-3 9 2 10 5 12 4 7 -4 -10 -15 -27 -4 -20 13 7 19 -7 26 -65 30 -39 3 -54 0
-66 -14z m16 -3 c-6 -8 -7 -18 -3 -22 4 -5 1 -5 -6 -1 -10 6 -10 11 -1 22 6 8
14 14 16 14 3 0 0 -6 -6 -13z"/>
<path d="M5287 5582 c-9 -2 -17 -8 -17 -13 0 -6 -4 -8 -9 -5 -4 3 -18 -5 -30
-18 -19 -21 -20 -24 -6 -36 10 -8 13 -21 9 -34 -8 -25 -1 -20 16 13 6 13 8 21
3 18 -5 -3 -9 5 -9 18 0 13 4 21 10 18 5 -4 6 -1 1 7 -5 9 -4 11 4 6 8 -6 9
-12 2 -20 -11 -13 -5 -26 11 -26 5 0 7 4 3 9 -3 6 2 14 12 19 22 12 78 9 78
-4 1 -20 23 -46 34 -40 15 10 14 48 -3 72 -14 18 -61 25 -109 16z m98 -23 c-4
-5 -1 -9 6 -9 8 0 8 -4 -1 -15 -9 -10 -9 -15 -1 -15 6 0 11 -5 11 -11 0 -8 -4
-8 -14 1 -8 6 -13 17 -10 25 3 7 0 16 -5 20 -6 3 -9 11 -5 16 3 5 10 7 15 3 5
-3 7 -10 4 -15z m-148 -34 c0 -8 -4 -12 -9 -9 -5 3 -6 10 -3 15 9 13 12 11 12
-6z"/>
<path d="M2525 5510 c0 -21 4 -36 9 -33 5 4 7 -3 4 -15 -4 -14 -2 -20 5 -15 6
4 8 0 4 -9 -3 -10 3 -24 16 -35 22 -18 22 -18 7 2 -12 17 -11 17 6 -1 12 -13
25 -20 28 -17 3 4 6 2 6 -3 0 -5 22 -9 49 -9 27 0 47 3 44 8 -2 4 1 8 6 8 26
3 30 4 36 11 12 12 15 88 4 88 -6 0 -8 4 -5 9 3 4 -2 15 -12 24 -21 19 -48 7
-39 -17 3 -8 2 -18 -3 -21 -6 -4 -10 -15 -10 -26 0 -11 -10 -24 -22 -29 -18
-7 -19 -9 -5 -9 24 -1 22 -21 -3 -21 -11 0 -20 5 -20 11 0 5 -4 8 -9 5 -10 -7
-72 50 -63 58 3 3 0 6 -6 6 -7 0 -12 10 -12 23 0 12 -4 27 -8 34 -4 6 -7 -5
-7 -27z m196 -78 c-15 -29 -41 -36 -36 -10 3 11 7 23 11 27 4 3 4 -2 1 -11 -4
-10 -2 -18 3 -18 5 0 12 9 15 21 4 11 9 18 12 16 2 -3 0 -14 -6 -25z"/>
<path d="M5300 5529 c0 -6 -5 -7 -12 -3 -7 4 -8 3 -4 -5 4 -6 0 -14 -8 -17 -9
-3 -14 -10 -11 -14 3 -5 1 -11 -5 -15 -6 -4 -8 -11 -4 -16 3 -6 -2 -16 -12
-24 -17 -12 -17 -18 -6 -72 7 -33 12 -80 12 -106 0 -49 16 -73 23 -35 3 13 3
-2 2 -32 -3 -42 -1 -49 6 -30 7 22 8 20 6 -12 -2 -21 1 -38 5 -38 4 0 8 -4 8
-9 0 -13 31 -84 35 -79 2 2 -5 28 -15 58 -13 38 -19 80 -18 135 l1 80 7 -95
c4 -64 14 -111 28 -144 26 -57 26 -60 10 -50 -7 5 -5 -3 4 -16 9 -14 21 -24
27 -22 11 2 16 -12 11 -33 -1 -5 2 -7 6 -2 4 4 28 -12 52 -35 25 -24 41 -36
36 -28 -5 8 -9 18 -9 23 0 4 -4 7 -10 8 -14 0 -55 40 -55 52 0 6 10 2 23 -9
l22 -19 -19 22 c-10 12 -23 21 -28 20 -6 -1 -13 4 -16 12 -3 9 0 11 8 6 9 -5
11 -4 6 4 -4 6 -11 9 -16 6 -14 -9 -42 53 -35 78 5 18 4 19 -5 7 -9 -12 -10
-9 -6 15 5 23 4 27 -4 15 -9 -12 -11 -8 -8 17 3 18 1 30 -4 27 -4 -3 -8 22 -8
55 0 34 4 61 8 61 5 0 7 15 5 33 -4 25 -2 29 7 17 8 -12 9 -8 4 14 -4 17 -3
27 3 23 5 -3 15 -2 23 4 11 6 8 9 -12 9 -22 0 -29 -6 -38 -32 -8 -29 -9 -29
-6 -5 4 30 -10 37 -17 10 -3 -10 -4 -6 -3 9 2 25 16 53 16 32 0 -5 23 -9 50
-10 28 -1 50 3 50 7 0 5 3 8 8 7 12 -5 57 46 54 60 -2 8 1 11 7 7 13 -7 13 2
1 30 -8 19 -9 19 -9 -3 -1 -15 -5 -21 -13 -16 -6 4 -9 3 -6 -2 3 -5 -6 -19
-21 -30 -25 -21 -28 -21 -61 -5 -19 10 -34 23 -32 30 1 7 -2 19 -9 27 -6 8 -9
20 -6 28 3 8 -1 17 -9 20 -8 3 -14 1 -14 -5z m0 -73 c0 -12 6 -28 13 -36 10
-12 9 -12 -4 -2 -17 13 -33 76 -17 66 4 -3 8 -15 8 -28z m34 -26 c10 -13 9
-13 -6 -1 -10 7 -18 21 -17 30 0 13 1 14 6 1 3 -8 11 -22 17 -30z m-52 -63
c-4 -15 -8 -10 -18 19 -18 50 -17 50 5 23 10 -12 16 -31 13 -42z m103 43 c3
-5 -3 -10 -14 -10 -12 0 -21 5 -21 10 0 6 6 10 14 10 8 0 18 -4 21 -10z m-118
-117 c-3 -10 -5 -2 -5 17 0 19 2 27 5 18 2 -10 2 -26 0 -35z m20 -20 c-3 -10
-5 -2 -5 17 0 19 2 27 5 18 2 -10 2 -26 0 -35z m87 -289 c3 -8 2 -12 -4 -9 -6
3 -10 10 -10 16 0 14 7 11 14 -7z"/>
<path d="M5492 5515 c0 -16 2 -22 5 -12 2 9 2 23 0 30 -3 6 -5 -1 -5 -18z"/>
<path d="M5110 5515 c0 -5 5 -17 10 -25 5 -8 10 -10 10 -5 0 6 -5 17 -10 25
-5 8 -10 11 -10 5z"/>
<path d="M2760 5503 c0 -5 5 -15 10 -23 7 -12 9 -10 7 8 -1 19 -17 33 -17 15z"/>
<path d="M5134 5475 l-7 -28 -14 24 c-10 16 -12 17 -7 4 4 -11 7 -74 5 -140
-2 -93 2 -137 18 -196 19 -74 74 -196 112 -250 21 -29 14 -46 -10 -26 -14 11
-14 10 -2 -6 8 -9 16 -15 19 -13 8 9 43 -15 36 -25 -4 -6 -12 -5 -22 3 -12 9
-11 6 2 -10 11 -12 21 -20 24 -17 3 3 14 -3 25 -12 10 -10 22 -17 26 -15 3 1
6 -4 6 -10 1 -7 6 -12 12 -11 6 1 17 -5 25 -15 12 -16 11 -16 -7 -2 l-20 15
20 -24 c11 -13 19 -25 17 -28 -2 -3 0 -8 4 -11 4 -4 4 -1 0 6 -4 6 -2 12 4 12
6 0 8 5 5 10 -10 16 1 11 16 -7 12 -14 12 -16 0 -8 -11 6 -12 5 -5 -6 5 -8 9
-17 9 -21 0 -3 4 -10 9 -15 5 -5 6 -3 2 5 -4 6 -2 12 4 12 6 0 8 4 5 10 -4 6
1 7 12 4 10 -3 5 5 -12 17 -50 39 -146 132 -168 164 -16 22 -17 26 -4 16 24
-19 22 -11 -18 55 -45 75 -77 161 -69 186 4 15 3 18 -6 13 -10 -6 -11 -1 -6
19 5 19 3 26 -4 21 -8 -5 -10 3 -7 24 3 17 2 31 -1 31 -4 0 -8 39 -10 86 -2
47 0 84 5 81 4 -3 8 10 9 29 0 19 -3 34 -7 34 -21 0 -32 -172 -17 -275 6 -42
6 -45 -3 -20 -17 45 -16 222 0 278 8 26 11 50 8 53 -3 4 -9 -6 -13 -21z m44
-420 c0 -5 -6 4 -13 20 -8 17 -14 37 -14 45 0 8 7 -1 14 -20 7 -19 13 -39 13
-45z m36 -72 c14 -29 24 -53 21 -53 -5 0 -55 95 -55 106 0 12 6 2 34 -53z"/>
<path d="M2876 5443 c14 -47 18 -217 6 -261 -4 -13 -7 40 -7 117 0 89 -4 144
-11 151 -8 8 -11 -2 -10 -38 1 -28 4 -48 9 -45 4 2 7 -19 7 -46 0 -28 -4 -51
-9 -51 -4 0 -6 -19 -4 -41 4 -30 2 -39 -6 -34 -8 5 -10 -1 -5 -21 5 -19 4 -25
-5 -20 -9 6 -10 0 -5 -20 5 -18 3 -25 -4 -20 -6 4 -8 -2 -4 -16 3 -14 1 -19
-6 -14 -8 5 -10 2 -6 -8 7 -18 -46 -136 -83 -184 -14 -18 -23 -36 -20 -38 8
-8 66 81 103 159 19 40 32 61 28 47 -18 -66 -116 -226 -133 -216 -4 3 -25 -13
-46 -34 -22 -22 -44 -40 -49 -40 -6 0 12 24 39 53 49 51 49 51 -11 -6 -33 -32
-61 -65 -61 -73 0 -21 10 -17 43 17 16 17 43 40 59 51 17 11 2 -7 -32 -39 -60
-56 -134 -109 -119 -84 10 16 -7 14 -30 -5 -17 -14 -17 -15 -1 -10 11 3 16 2
12 -4 -8 -13 1 -13 26 0 10 6 19 8 19 6 0 -7 -96 -56 -107 -56 -4 1 7 9 26 19
55 29 12 33 -66 6 -73 -26 -108 -31 -118 -15 -8 12 -152 13 -159 1 -12 -19
-68 -21 -104 -2 -45 23 -66 46 -86 91 -11 26 -15 30 -16 14 0 -32 41 -86 85
-112 22 -13 32 -21 23 -18 -55 19 -54 19 -34 2 11 -9 23 -16 28 -16 4 0 5 -7
2 -15 -4 -8 -10 -15 -15 -15 -4 0 -5 8 -2 18 6 15 5 15 -10 3 -16 -12 -17 -12
-10 5 6 17 5 17 -9 6 -14 -11 -18 -10 -28 8 -6 11 -15 18 -19 15 -5 -2 -15 3
-22 13 -13 15 -12 16 4 3 19 -15 24 -2 5 17 -7 7 -9 12 -5 12 4 0 -2 9 -13 20
-11 11 -20 26 -19 33 0 6 5 2 11 -10 13 -27 44 -42 33 -16 -4 10 -10 28 -13
41 -2 13 -11 26 -18 29 -28 10 -11 89 28 131 25 26 47 30 27 5 -13 -16 -13
-16 11 0 39 27 84 22 114 -14 14 -17 26 -34 26 -39 0 -16 -29 -31 -54 -26 -37
7 -32 -18 9 -43 18 -11 17 -12 -10 -7 -16 3 -24 3 -17 0 6 -3 9 -10 6 -16 -4
-6 1 -8 12 -4 11 3 25 2 33 -3 9 -6 2 -10 -23 -13 -19 -2 -33 -2 -31 0 2 3 -1
14 -7 26 -7 11 -11 30 -10 41 2 17 1 18 -8 5 -9 -12 -10 -8 -5 17 5 23 3 31
-7 29 -29 -4 -36 -17 -31 -57 4 -27 2 -44 -6 -49 -15 -8 6 -57 34 -80 26 -22
26 -6 0 30 -14 19 -25 36 -25 39 0 3 7 -2 14 -12 8 -11 17 -14 20 -8 4 5 2 12
-4 16 -6 4 -8 11 -4 16 3 5 10 7 15 3 5 -3 7 -10 4 -15 -4 -5 0 -9 7 -9 8 -1
6 -6 -6 -15 -17 -13 -17 -15 -3 -21 9 -3 14 -11 10 -17 -3 -6 -1 -7 5 -3 7 4
12 2 12 -3 0 -6 -6 -11 -12 -11 -9 0 -8 -4 2 -10 8 -5 20 -10 25 -10 6 0 4 4
-4 9 -9 6 -10 11 -2 15 6 4 11 2 11 -4 0 -7 7 -10 15 -6 8 3 15 1 15 -4 0 -6
9 -10 20 -10 32 0 23 17 -13 24 -18 3 -43 13 -56 22 -31 22 -13 38 47 40 93 4
170 17 232 41 8 3 20 7 25 7 40 6 79 46 44 46 -6 0 -7 -5 -4 -10 4 -7 -3 -9
-22 -5 -22 5 -25 4 -13 -5 12 -9 9 -11 -17 -8 -18 3 -30 1 -27 -4 3 -4 -13 -8
-36 -8 -23 0 -39 4 -36 8 3 5 -9 7 -27 4 -25 -3 -29 -1 -17 7 8 6 11 11 5 11
-5 0 -23 -14 -41 -31 -40 -39 -63 -30 -26 9 15 15 29 27 32 26 3 -1 5 8 5 21
0 13 -4 21 -9 17 -5 -3 -7 5 -4 16 4 14 2 20 -5 15 -6 -4 -8 0 -4 9 8 23 -39
66 -55 50 -15 -15 -94 -16 -103 -2 -3 6 -11 10 -16 10 -6 0 -7 -5 -3 -12 5 -7
2 -9 -8 -5 -19 7 -68 -42 -60 -62 2 -8 0 -11 -6 -7 -6 4 -8 -2 -5 -16 4 -19 3
-20 -6 -8 -8 11 -10 8 -5 -17 4 -19 -1 -54 -11 -86 -16 -52 -16 -56 3 -93 11
-21 28 -47 38 -56 36 -32 129 -67 199 -75 l70 -8 -50 -6 c-40 -5 -35 -6 22 -4
48 2 80 9 99 22 l28 18 -69 3 c-39 2 -74 7 -78 11 -5 5 4 6 19 3 17 -3 25 -1
21 6 -8 12 140 27 175 17 19 -5 20 -4 8 5 -12 9 -6 10 25 5 31 -4 37 -3 25 5
-12 9 -9 10 15 6 23 -5 27 -4 15 5 -12 8 -8 9 15 5 24 -5 27 -4 15 5 -12 9
-11 10 8 6 14 -3 20 -1 15 6 -4 7 0 8 11 4 11 -5 15 -3 10 5 -5 8 -2 9 10 5
10 -4 15 -3 11 3 -3 5 3 14 14 19 26 14 34 14 25 -1 -4 -6 -3 -8 4 -4 6 3 9
15 7 26 -2 11 1 23 7 26 7 4 8 2 4 -4 -4 -7 -2 -12 4 -12 6 0 8 -5 4 -12 -4
-6 -3 -8 4 -4 6 3 9 15 7 26 -4 21 8 33 39 37 18 3 18 1 -4 -24 -14 -16 6 1
43 37 37 35 67 66 67 69 0 2 -9 -4 -20 -14 -11 -10 -20 -14 -20 -8 0 13 35 45
42 38 3 -3 11 3 19 12 12 16 12 17 -2 6 -27 -21 -30 -2 -5 31 37 49 92 165
117 246 17 56 23 100 24 175 0 95 -18 195 -35 195 -5 0 -2 -21 6 -47z m-9
-315 c-3 -8 -6 -5 -6 6 -1 11 2 17 5 13 3 -3 4 -12 1 -19z m-747 -214 c8 -8
15 -27 16 -42 l3 -27 -14 26 c-8 15 -22 29 -30 33 -9 3 -13 10 -10 16 9 14 21
12 35 -6z m590 -137 c0 -2 -11 -14 -24 -26 -22 -21 -24 -21 -22 -5 2 11 8 19
14 19 6 0 14 3 18 8 8 7 14 9 14 4z m-823 -39 c-3 -8 -6 -5 -6 6 -1 11 2 17 5
13 3 -3 4 -12 1 -19z m403 -119 c0 -5 -29 -9 -64 -9 -35 0 -76 -2 -92 -4 -16
-2 -21 -1 -11 1 9 2 17 8 17 13 0 4 34 8 75 8 41 0 75 -4 75 -9z m117 -15 c-3
-3 -12 -4 -19 -1 -8 3 -5 6 6 6 11 1 17 -2 13 -5z m-127 -13 c31 -4 7 -7 -75
-7 -70 0 -103 3 -80 7 55 9 102 9 155 0z m87 3 c-3 -3 -12 -4 -19 -1 -8 3 -5
6 6 6 11 1 17 -2 13 -5z m-300 -31 c-9 -9 -19 -14 -23 -11 -10 10 6 28 24 28
15 0 15 -1 -1 -17z m83 -2 c0 -5 -9 -7 -20 -4 -11 3 -20 0 -20 -6 0 -6 -7 -11
-15 -11 -16 0 -20 12 -8 23 10 10 63 8 63 -2z"/>
<path d="M2100 4916 c0 -2 8 -10 18 -17 15 -13 16 -12 3 4 -13 16 -21 21 -21
13z"/>
<path d="M2911 5464 c0 -11 3 -14 6 -6 3 7 2 16 -1 19 -3 4 -6 -2 -5 -13z"/>
<path d="M2770 5436 c0 -28 -27 -59 -42 -50 -7 5 -8 -5 -3 -32 5 -21 11 -75
15 -119 l7 -80 3 80 c3 69 4 74 10 40 6 -31 7 -26 5 25 -2 38 -1 55 4 40 4
-16 7 0 8 48 1 39 -1 72 -3 72 -2 0 -4 -11 -4 -24z m-23 -108 c-3 -7 -5 -2 -5
12 0 14 2 19 5 13 2 -7 2 -19 0 -25z"/>
<path d="M5091 5444 c0 -11 3 -14 6 -6 3 7 2 16 -1 19 -3 4 -6 -2 -5 -13z"/>
<path d="M5083 5355 c0 -27 2 -38 4 -22 2 15 2 37 0 50 -2 12 -4 0 -4 -28z"/>
<path d="M2659 5363 c21 -4 23 -8 17 -46 -4 -27 -3 -37 3 -28 6 9 9 -20 9 -80
0 -63 -3 -87 -9 -74 -6 14 -7 10 -3 -14 5 -25 3 -32 -6 -26 -9 5 -10 1 -5 -15
5 -14 3 -20 -3 -16 -6 3 -8 -1 -6 -11 5 -20 -53 -119 -63 -109 -9 9 -93 -75
-87 -86 3 -5 12 -4 20 3 7 6 12 15 9 19 -2 4 7 18 20 30 28 27 33 17 8 -14 -9
-12 0 -4 20 16 21 21 37 35 37 32 0 -4 6 -1 14 6 8 6 12 19 9 27 -4 10 -2 14
5 9 6 -3 14 -1 18 5 5 8 3 9 -6 4 -8 -5 -11 -3 -8 6 3 8 11 13 17 11 13 -3 51
79 51 111 0 15 3 18 8 9 5 -7 7 16 5 50 -6 109 -14 167 -24 173 -5 4 -9 0 -9
-7 0 -8 -5 -6 -11 5 -5 9 -20 16 -32 16 -21 -2 -21 -2 2 -6z m48 -75 c-3 -7
-5 -2 -5 12 0 14 2 19 5 13 2 -7 2 -19 0 -25z m10 -100 c-2 -13 -4 -3 -4 22 0
25 2 35 4 23 2 -13 2 -33 0 -45z m-10 -65 c-3 -10 -5 -4 -5 12 0 17 2 24 5 18
2 -7 2 -21 0 -30z m-21 -74 c-18 -41 -21 -29 -4 18 7 19 14 30 16 25 1 -4 -4
-24 -12 -43z"/>
<path d="M2921 5254 c0 -11 3 -14 6 -6 3 7 2 16 -1 19 -3 4 -6 -2 -5 -13z"/>
<path d="M5333 5215 c0 -27 2 -38 4 -22 2 15 2 37 0 50 -2 12 -4 0 -4 -28z"/>
<path d="M5938 4943 c7 -3 16 -2 19 1 4 3 -2 6 -13 5 -11 0 -14 -3 -6 -6z"/>
<path d="M6008 4943 c7 -3 16 -2 19 1 4 3 -2 6 -13 5 -11 0 -14 -3 -6 -6z"/>
<path d="M5914 4923 c2 -10 -4 -28 -13 -39 -14 -19 -17 -20 -28 -5 -12 14 -12
14 -6 -3 4 -14 3 -17 -6 -12 -9 6 -10 0 -5 -21 12 -57 16 -63 41 -76 22 -12
23 -15 9 -20 -11 -4 -25 2 -40 16 -20 20 -91 33 -79 15 2 -5 -14 -8 -36 -8
-23 0 -41 4 -41 8 0 5 -15 7 -32 5 -26 -4 -30 -2 -18 7 12 8 8 9 -14 4 -20 -5
-27 -4 -22 4 5 8 1 10 -11 5 -14 -6 -11 -10 17 -22 19 -8 37 -15 40 -16 3 -1
12 -4 20 -7 31 -12 106 -29 141 -32 20 -2 41 -6 47 -10 16 -10 101 -2 94 8 -3
5 1 7 10 4 8 -4 15 0 15 7 0 10 -5 11 -18 4 -25 -13 -80 -12 -59 1 8 5 23 7
33 4 9 -3 17 0 17 6 0 6 4 9 9 5 5 -3 12 -1 16 5 4 6 11 8 16 4 6 -4 6 -11 -2
-20 -6 -8 -8 -14 -4 -14 4 0 2 -6 -4 -13 -6 -8 -8 -17 -5 -20 4 -3 -10 -14
-30 -23 -28 -14 -33 -20 -25 -31 12 -14 -1 -18 -16 -5 -11 10 -195 3 -195 -6
0 -9 143 -7 156 1 6 3 16 2 24 -4 12 -7 9 -9 -10 -10 l-25 -1 25 -8 c14 -4
-15 -5 -65 -3 -49 3 -97 7 -105 10 -8 3 -31 6 -51 8 -30 3 -84 21 -178 62 -10
5 -12 2 -6 -7 5 -8 4 -11 -3 -7 -15 10 -39 -2 -39 -19 0 -20 71 -56 93 -47 12
5 15 3 9 -6 -6 -10 -2 -11 15 -6 16 5 20 4 15 -4 -5 -8 2 -10 22 -6 21 5 24 4
13 -4 -11 -8 -5 -9 25 -6 32 4 36 3 20 -5 -17 -9 -15 -9 9 -4 40 7 177 -6 170
-17 -3 -5 5 -9 18 -8 13 0 17 3 10 6 -20 8 -3 23 28 23 15 0 30 -7 34 -15 4
-10 -1 -15 -14 -15 -11 0 -20 5 -20 12 0 7 -5 5 -12 -5 -10 -12 -32 -17 -83
-19 l-70 -3 36 -18 c34 -17 42 -17 137 -3 118 18 166 39 215 96 43 51 54 86
32 110 -9 10 -13 24 -9 34 6 16 8 16 28 -1 15 -13 14 -10 -4 10 l-25 29 -7
-24 c-4 -14 -6 -1 -5 34 1 32 -2 54 -7 50 -5 -3 -6 2 -3 12 5 11 3 15 -5 10
-7 -5 -9 -2 -5 8 3 9 -2 23 -12 32 -28 26 -31 7 -5 -31 24 -35 34 -113 15
-113 -5 0 -12 -11 -15 -24 -3 -13 -9 -31 -12 -40 -5 -12 -2 -15 10 -10 8 3 18
15 22 26 3 11 8 17 11 15 8 -8 -23 -60 -51 -86 -14 -14 -26 -29 -26 -35 0 -5
17 6 38 25 l37 34 -34 -37 c-19 -21 -38 -35 -42 -33 -4 3 -10 -1 -12 -7 -4
-10 -6 -10 -6 0 -1 6 -5 12 -11 12 -5 0 -8 -6 -6 -12 1 -7 1 -10 -1 -5 -3 4
-9 7 -14 7 -6 0 -7 -4 -4 -10 3 -5 2 -10 -4 -10 -5 0 -13 5 -16 10 -3 6 0 10
7 10 10 0 10 2 1 8 -8 5 -1 13 19 25 25 14 29 15 18 2 -7 -8 -8 -15 -2 -15 5
0 15 7 22 15 7 8 10 15 7 15 -4 0 5 21 18 46 24 45 37 98 16 65 -16 -24 -34
-1 -28 36 4 24 2 36 -8 40 -8 3 -13 9 -10 13 3 5 -4 8 -16 7 -17 -1 -20 -7
-17 -34 2 -18 2 -30 0 -28 -3 2 -14 -2 -26 -10 -11 -8 -27 -15 -36 -15 -8 0
-4 6 10 13 14 7 26 20 28 30 3 14 -3 17 -30 15 -27 -3 -34 1 -36 18 -4 31 29
65 74 75 37 8 36 8 -13 5 -29 -2 -50 1 -47 5 2 4 0 10 -5 13 -5 4 -8 -2 -7
-11z m187 -30 c13 -16 12 -17 -3 -4 -10 7 -18 15 -18 17 0 8 8 3 21 -13z
m-224 -75 c-3 -7 -5 -2 -5 12 0 14 2 19 5 13 2 -7 2 -19 0 -25z m193 -97 c0
-27 -78 -101 -105 -101 -5 0 -4 4 3 9 11 6 10 10 -4 15 -15 6 -13 10 15 27 19
11 29 24 25 31 -4 7 -3 8 4 4 6 -3 16 2 22 13 9 18 40 20 40 2z m-560 -79 c-9
-3 -5 -9 11 -18 13 -7 20 -13 14 -13 -5 0 -26 9 -45 20 -23 13 -27 18 -11 13
16 -4 21 -3 17 5 -5 7 -1 8 10 4 13 -5 14 -8 4 -11z m163 -49 c-7 -2 -19 -2
-25 0 -7 3 -2 5 12 5 14 0 19 -2 13 -5z m207 -2 c31 -4 7 -7 -75 -7 -73 1
-102 3 -75 7 63 8 98 9 150 0z m77 3 c-3 -3 -12 -4 -19 -1 -8 3 -5 6 6 6 11 1
17 -2 13 -5z m8 -25 c11 -17 -1 -21 -15 -4 -8 9 -8 15 -2 15 6 0 14 -5 17 -11z"/>
<path d="M6012 4686 c-17 -19 -32 -34 -34 -33 -2 1 0 -2 4 -7 8 -10 53 27 69
57 16 29 -7 19 -39 -17z"/>
<path d="M5882 4917 c-7 -8 -7 -18 -2 -27 11 -16 11 -15 15 18 3 26 1 27 -13
9z"/>
<path d="M6065 4880 c10 -11 20 -20 23 -20 3 0 -3 9 -13 20 -10 11 -20 20 -23
20 -3 0 3 -9 13 -20z"/>
<path d="M5300 4886 c0 -2 8 -10 18 -17 15 -13 16 -12 3 4 -13 16 -21 21 -21
13z"/>
<path d="M5500 4876 c0 -2 8 -10 18 -17 15 -13 16 -12 3 4 -13 16 -21 21 -21
13z"/>
<path d="M5290 4863 c0 -20 185 -182 196 -171 2 3 -7 13 -21 22 -14 9 -23 21
-20 25 2 5 -3 15 -13 22 -15 13 -16 12 -3 -3 7 -10 9 -18 4 -18 -13 0 -45 35
-38 42 3 2 -9 17 -25 33 -17 16 -30 25 -30 20 0 -5 -11 2 -25 15 -14 13 -25
19 -25 13z m80 -58 c13 -14 21 -25 18 -25 -2 0 -15 11 -28 25 -13 14 -21 25
-18 25 2 0 15 -11 28 -25z"/>
<path d="M5540 4845 c0 -7 61 -37 66 -33 2 3 -12 12 -31 21 -19 9 -35 15 -35
12z"/>
<path d="M2134 4768 l-19 -23 23 19 c21 18 27 26 19 26 -2 0 -12 -10 -23 -22z"/>
<path d="M5320 4745 c19 -19 36 -35 39 -35 3 0 -10 16 -29 35 -19 19 -36 35
-39 35 -3 0 10 -16 29 -35z"/>
<path d="M2559 4745 c-1 -3 -2 -8 -3 -12 -1 -5 -5 -14 -9 -20 -11 -18 8 -16
23 2 9 11 9 15 1 15 -7 0 -9 5 -6 10 3 6 4 10 1 10 -3 0 -7 -2 -7 -5z"/>
<path d="M6201 4684 c0 -11 3 -14 6 -6 3 7 2 16 -1 19 -3 4 -6 -2 -5 -13z"/>
<path d="M6060 4658 c-12 -22 -12 -22 6 -6 10 10 15 20 12 24 -4 3 -12 -5 -18
-18z"/>
<path d="M1802 4645 c0 -16 2 -22 5 -12 2 9 2 23 0 30 -3 6 -5 -1 -5 -18z"/>
<path d="M1940 4663 c0 -6 7 -16 15 -23 8 -7 13 -15 11 -19 -3 -4 0 -13 6 -21
8 -12 9 -12 5 2 -3 9 -1 18 4 20 6 2 -1 14 -15 27 -14 14 -26 20 -26 14z"/>
<path d="M5615 4650 c27 -12 43 -12 25 0 -8 5 -22 9 -30 9 -10 0 -8 -3 5 -9z"/>
<path d="M2325 4640 c3 -5 11 -10 16 -10 6 0 7 5 4 10 -3 6 -11 10 -16 10 -6
0 -7 -4 -4 -10z"/>
<path d="M5670 4640 c0 -5 4 -10 9 -10 6 0 13 5 16 10 3 6 -1 10 -9 10 -9 0
-16 -4 -16 -10z"/>
<path d="M2068 4623 c7 -3 16 -2 19 1 4 3 -2 6 -13 5 -11 0 -14 -3 -6 -6z"/>
<path d="M1858 4603 c28 -51 157 -125 195 -110 6 3 3 6 -8 6 -36 2 -103 39
-151 83 -29 26 -43 35 -36 21z"/>
<path d="M6117 4580 c-52 -53 -111 -79 -203 -90 l-79 -9 76 4 c93 4 162 31
214 85 21 22 37 42 34 44 -2 2 -21 -13 -42 -34z"/>
<path d="M1683 4548 c-11 -13 -18 -29 -15 -37 2 -8 0 -11 -6 -7 -6 4 -8 -2 -5
-16 4 -19 3 -20 -7 -8 -9 12 -10 11 -5 -9 5 -16 4 -21 -4 -17 -7 5 -8 1 -4
-10 4 -11 2 -15 -4 -11 -6 4 -17 -1 -26 -11 -15 -16 -17 -21 -17 -39 0 -5 -5
-1 -10 7 -6 9 -10 10 -10 3 0 -49 72 9 95 76 9 27 25 57 35 66 21 19 26 35 12
35 -5 0 -18 -10 -29 -22z m27 9 c0 -2 -10 -12 -22 -23 l-23 -19 19 23 c18 21
26 27 26 19z m-80 -131 c0 -2 -8 -10 -17 -17 -16 -13 -17 -12 -4 4 13 16 21
21 21 13z"/>
<path d="M6157 4542 c-15 -16 -25 -31 -22 -34 3 -3 -1 -8 -10 -12 -9 -3 -13
-2 -10 4 3 6 -1 7 -9 4 -9 -3 -13 -11 -9 -17 4 -6 0 -8 -11 -4 -9 4 -15 3 -12
-1 2 -4 -14 -9 -36 -9 -46 -2 -59 -10 -38 -23 9 -6 10 -10 3 -10 -6 0 -14 4
-18 10 -3 5 -22 7 -43 5 -81 -10 -136 -14 -119 -9 9 3 17 10 17 15 0 5 -16 2
-36 -6 -47 -19 -57 -19 -21 1 40 22 26 29 -14 9 -28 -15 -30 -19 -15 -27 9 -5
60 -15 112 -21 76 -9 97 -8 103 2 5 8 21 11 47 7 29 -5 34 -4 19 3 -20 10 -20
10 0 10 22 1 165 67 165 76 0 3 -14 3 -31 0 -20 -4 -28 -2 -24 5 4 6 14 9 22
8 10 -2 17 6 19 20 5 28 3 28 -29 -6z m-197 -112 c0 -12 -47 -12 -75 0 -15 6
-8 9 28 9 26 1 47 -3 47 -9z"/>
<path d="M6295 4560 c-5 -8 -4 -11 2 -7 9 6 63 -89 63 -111 0 -6 13 -24 29
-41 15 -16 26 -34 22 -38 -3 -4 -2 -5 3 0 6 4 10 16 11 27 1 11 0 18 -3 16 -7
-7 -39 29 -34 38 3 5 -1 6 -8 1 -9 -6 -10 -1 -5 16 5 20 4 21 -5 9 -10 -12
-11 -11 -7 8 3 14 1 20 -6 15 -7 -4 -8 0 -4 11 4 10 3 15 -3 11 -10 -6 -15 9
-10 30 1 6 -2 7 -6 3 -4 -4 -12 0 -19 9 -9 13 -14 13 -20 3z"/>
<path d="M1815 4551 c-3 -5 -1 -12 5 -16 6 -4 8 -10 5 -15 -8 -13 40 -42 113
-66 43 -15 58 -24 46 -27 -10 -2 1 -2 25 0 29 3 41 1 36 -6 -8 -14 48 -14 135
-1 90 14 95 17 80 35 -10 12 -9 15 8 15 12 0 24 -4 27 -10 3 -5 12 -10 18 -10
8 0 8 3 -1 9 -8 4 -13 12 -13 17 1 5 -12 9 -28 9 -16 0 -27 -4 -23 -9 3 -5 -5
-6 -19 -3 l-24 6 25 -19 25 -20 -44 15 c-54 19 -63 19 -31 -1 24 -14 23 -14
-20 -9 -25 3 -63 7 -85 10 -22 2 -55 9 -73 14 -18 5 -40 7 -49 4 -12 -5 -14
-3 -8 6 6 10 2 11 -15 6 -15 -5 -20 -4 -16 4 5 7 1 8 -10 4 -11 -4 -15 -3 -10
5 3 6 1 14 -5 18 -8 5 -9 3 -4 -6 5 -8 3 -11 -4 -9 -7 3 -12 9 -12 14 0 12
-29 45 -40 45 -4 0 -10 -4 -14 -9z m36 -18 c13 -15 12 -15 -8 -4 -24 12 -29
21 -14 21 5 0 15 -7 22 -17z m284 -103 c-28 -12 -75 -12 -75 0 0 6 21 10 48 9
35 0 42 -3 27 -9z"/>
<path d="M2250 4546 c0 -4 11 -6 25 -4 27 6 33 -9 13 -32 -11 -12 -10 -12 5
-1 9 7 17 22 17 32 0 14 -7 18 -30 16 -16 -1 -30 -6 -30 -11z"/>
<path d="M5706 4544 c-2 -6 4 -20 15 -30 17 -15 18 -19 4 -26 -8 -5 -20 -19
-26 -31 -12 -21 -12 -21 14 -4 15 9 33 17 41 17 8 0 18 5 22 11 4 8 -1 9 -17
4 -13 -4 -21 -4 -16 1 4 4 -3 18 -15 31 l-21 23 31 0 c40 0 42 15 2 16 -16 1
-31 -5 -34 -12z"/>
<path d="M1830 4470 c0 -7 110 -44 115 -38 2 2 -23 13 -56 24 -32 12 -59 18
-59 14z"/>
<path d="M6135 4459 c-22 -10 -49 -19 -60 -20 -11 0 -14 -3 -8 -6 15 -6 110
25 118 38 9 13 -4 10 -50 -12z"/>
<path d="M2340 4415 c13 -14 26 -25 28 -25 3 0 -5 11 -18 25 -13 14 -26 25
-28 25 -3 0 5 -11 18 -25z"/>
<path d="M5669 4413 c-13 -16 -12 -17 4 -4 16 13 21 21 13 21 -2 0 -10 -8 -17
-17z"/>
<path d="M1758 4415 c-16 -17 -7 -24 18 -15 34 13 57 13 48 -1 -4 -7 8 -10 38
-8 24 2 50 -1 57 -5 7 -4 67 -9 134 -11 80 -2 106 -1 77 4 -42 7 -40 8 35 11
74 3 69 4 -50 10 -71 4 -179 11 -240 15 -60 4 -113 4 -117 0z m189 -21 c-3 -3
-12 -4 -19 -1 -8 3 -5 6 6 6 11 1 17 -2 13 -5z m60 0 c-3 -3 -12 -4 -19 -1 -8
3 -5 6 6 6 11 1 17 -2 13 -5z"/>
<path d="M6060 4410 c-36 -4 -114 -9 -175 -11 l-110 -3 75 -6 c54 -5 64 -7 35
-9 -85 -7 -97 -18 -15 -14 155 7 230 15 230 23 0 4 21 5 46 2 34 -3 45 -2 40
7 -9 14 32 15 54 2 8 -6 18 -7 23 -4 5 3 3 9 -4 14 -16 10 -104 9 -199 -1z
m27 -16 c-3 -3 -12 -4 -19 -1 -8 3 -5 6 6 6 11 1 17 -2 13 -5z"/>
<path d="M2268 4403 c7 -3 16 -2 19 1 4 3 -2 6 -13 5 -11 0 -14 -3 -6 -6z"/>
<path d="M5728 4403 c7 -3 16 -2 19 1 4 3 -2 6 -13 5 -11 0 -14 -3 -6 -6z"/>
<path d="M2331 4354 c-12 -15 -21 -30 -21 -35 0 -5 -11 -14 -25 -21 l-25 -13
23 -14 c20 -13 21 -13 8 2 -8 10 -9 17 -3 17 6 0 24 20 41 45 33 49 34 60 2
19z"/>
<path d="M1600 4366 c0 -2 8 -10 18 -17 15 -13 16 -12 3 4 -13 16 -21 21 -21
13z"/>
<path d="M1885 4363 c-34 -7 -48 -13 -43 -18 2 -2 33 2 69 9 46 10 54 14 29
14 -19 0 -44 -2 -55 -5z"/>
<path d="M2188 4363 c6 -2 18 -2 25 0 6 3 1 5 -13 5 -14 0 -19 -2 -12 -5z"/>
<path d="M6075 4361 c22 -4 56 -11 75 -15 25 -5 31 -4 19 3 -9 6 -43 13 -75
15 -47 4 -51 4 -19 -3z"/>
<path d="M1656 4341 c-4 -5 -2 -12 4 -16 16 -10 12 -25 -5 -19 -8 4 -15 1 -15
-6 0 -6 5 -8 12 -4 8 5 9 2 5 -10 -5 -11 -3 -15 5 -10 7 5 9 2 5 -8 -7 -19 32
-58 52 -50 8 2 11 0 8 -5 -3 -5 12 -9 33 -8 21 0 36 3 33 8 -6 10 11 9 25 -3
6 -6 10 -7 7 -4 -6 9 57 58 95 74 16 7 30 16 30 21 0 5 7 6 15 3 8 -4 15 -1
15 6 0 8 9 10 26 6 17 -5 23 -3 19 4 -9 14 56 12 135 -5 36 -7 66 -12 68 -10
6 5 -69 25 -98 26 -23 0 -24 1 -5 10 14 6 -9 8 -71 6 -78 -3 -101 -7 -153 -33
-34 -17 -61 -27 -61 -24 0 4 -18 6 -40 4 -31 -3 -46 2 -70 22 -16 14 -30 22
-30 16 0 -15 35 -42 66 -52 l29 -8 -28 -1 c-18 -1 -37 9 -54 27 -18 18 -24 21
-20 9 4 -10 3 -16 -2 -12 -5 3 -11 2 -14 -2 -2 -5 -2 -1 1 7 8 29 7 43 -5 47
-6 2 -14 0 -17 -6z m108 -81 c15 0 37 5 49 12 20 10 21 10 8 -5 -7 -10 -10
-17 -5 -17 4 0 3 -5 -4 -12 -15 -15 -111 -18 -109 -4 1 6 -4 10 -10 11 -7 0
-13 3 -13 8 0 4 0 12 0 18 0 6 14 -1 31 -15 32 -27 51 -31 84 -15 18 8 17 9
-4 5 -29 -6 -91 18 -91 35 0 8 6 6 18 -4 10 -10 31 -17 46 -17z"/>
<path d="M5689 4332 c5 -10 18 -25 27 -33 11 -9 9 -2 -6 19 -26 35 -36 42 -21
14z"/>
<path d="M5890 4340 c12 -8 10 -10 -11 -10 -26 0 -123 -30 -117 -36 2 -2 26 3
53 11 28 8 80 18 117 23 55 7 66 6 57 -4 -11 -14 5 -13 54 2 22 6 22 6 2 -11
-21 -17 -19 -17 33 1 14 6 14 4 -2 -8 -18 -14 -18 -15 8 -22 14 -3 44 -23 66
-42 25 -23 46 -34 55 -30 9 3 14 2 11 -2 -2 -4 13 -7 34 -7 21 0 36 4 33 9 -4
5 1 7 10 3 10 -4 17 -1 17 5 0 6 3 8 7 5 10 -11 32 13 26 29 -3 9 0 14 8 12 8
-2 14 4 14 12 0 8 -6 14 -12 12 -7 -1 -13 2 -13 7 0 13 -21 8 -50 -12 -13 -9
-34 -17 -45 -16 -13 0 -9 4 12 10 18 5 39 19 48 31 8 13 15 17 15 9 0 -11 3
-11 17 0 15 12 16 12 8 -1 -4 -8 -5 -12 0 -8 4 4 14 3 22 -3 9 -9 13 -8 13 0
0 6 -5 11 -11 11 -6 0 -9 6 -6 14 5 12 -9 15 -33 6 -3 -1 -10 -3 -15 -4 -6 0
-22 -11 -35 -24 -16 -15 -33 -22 -47 -19 -12 2 -20 0 -17 -4 8 -13 -10 -11
-24 3 -7 7 -12 8 -12 2 0 -13 44 -34 71 -34 11 0 30 5 42 12 48 26 62 15 25
-20 -33 -30 -70 -36 -107 -18 -34 18 -41 29 -13 20 32 -11 -32 35 -87 62 -35
17 -62 24 -78 19 -16 -4 -22 -2 -18 5 4 6 -19 10 -67 10 -51 0 -68 -3 -58 -10z"/>
<path d="M2125 4291 c38 -6 36 -7 -39 -19 -97 -15 -170 -53 -205 -106 -26 -40
-38 -111 -16 -102 8 3 11 -17 11 -64 -1 -40 2 -63 7 -57 5 7 7 3 4 -11 -3 -14
-1 -20 6 -15 6 4 8 0 4 -9 -3 -9 4 -25 17 -37 31 -30 40 -14 12 20 -31 36 -44
106 -23 122 8 7 18 25 21 42 8 32 85 115 107 115 8 0 6 -5 -6 -12 -29 -16 -75
-60 -75 -72 0 -5 15 4 33 22 52 50 87 59 215 54 61 -2 112 -8 112 -14 0 -5 -3
-7 -7 -5 -5 3 -17 1 -28 -4 -18 -7 -17 -8 7 -8 15 -1 30 4 34 10 9 15 66 3
142 -32 72 -32 76 -33 67 -19 -4 6 1 7 11 3 12 -4 15 -3 10 5 -4 8 -2 10 8 6
21 -8 14 26 -9 38 -13 8 -16 7 -11 -1 9 -14 3 -14 -29 1 -19 8 -22 14 -13 20
8 6 4 7 -11 3 -15 -5 -21 -3 -17 3 4 6 -3 8 -16 5 -19 -4 -20 -3 -8 6 12 9 9
10 -15 5 -23 -4 -27 -3 -15 5 11 8 7 10 -20 5 -27 -4 -31 -3 -20 5 11 8 2 9
-34 4 -29 -3 -47 -2 -44 3 4 5 -32 9 -83 9 -49 0 -89 -4 -89 -9 0 -5 -14 -6
-30 -2 -22 4 -29 2 -24 -6 5 -7 0 -9 -14 -6 -14 4 -20 2 -16 -4 4 -6 -2 -8
-17 -3 -16 4 -20 3 -11 -3 11 -7 10 -11 -4 -16 -11 -4 -24 0 -33 9 -9 9 -11
15 -6 14 14 -4 85 23 85 32 0 4 10 5 22 1 15 -4 19 -2 13 7 -5 9 0 12 16 10
13 -1 31 1 39 4 8 4 42 8 75 9 l60 3 -31 17 c-17 9 -60 19 -95 21 -40 3 -49 2
-24 -2z m112 -98 c-20 -2 -52 -2 -70 0 -17 2 0 4 38 4 39 0 53 -2 32 -4z
m-114 -10 c-7 -2 -21 -2 -30 0 -10 3 -4 5 12 5 17 0 24 -2 18 -5z m210 0 c-7
-2 -21 -2 -30 0 -10 3 -4 5 12 5 17 0 24 -2 18 -5z m-100 -10 c-18 -2 -48 -2
-65 0 -18 2 -4 4 32 4 36 0 50 -2 33 -4z m172 -3 c25 -11 -1 -11 -35 0 -20 6
-21 8 -5 8 11 0 29 -3 40 -8z m-431 -9 c4 -5 -7 -20 -23 -34 -17 -14 -28 -27
-25 -30 3 -2 -1 -7 -8 -10 -24 -9 -13 41 13 62 27 23 35 25 43 12z m486 -11
c8 -5 11 -10 5 -10 -5 0 -17 5 -25 10 -8 5 -10 10 -5 10 6 0 17 -5 25 -10z
m56 -26 c18 -14 18 -14 -6 -3 -31 14 -36 19 -24 19 6 0 19 -7 30 -16z m-625
-85 c-5 -13 -10 -19 -10 -12 -1 15 10 45 15 40 3 -2 0 -15 -5 -28z m34 -159
c10 -11 16 -20 13 -20 -3 0 -13 9 -23 20 -10 11 -16 20 -13 20 3 0 13 -9 23
-20z"/>
<path d="M1926 4135 c-11 -8 -15 -15 -9 -15 6 0 16 7 23 15 16 19 11 19 -14 0z"/>
<path d="M5826 4293 c-15 -2 -42 -13 -60 -24 l-31 -19 67 0 c37 0 69 -4 72 -9
3 -4 17 -6 31 -3 16 3 25 0 25 -8 0 -7 7 -10 15 -7 8 4 17 2 21 -4 3 -6 12 -8
20 -5 8 3 14 1 14 -5 0 -6 4 -8 9 -5 10 7 23 -19 14 -28 -10 -10 -25 -7 -18 4
4 6 -1 7 -11 3 -12 -5 -15 -3 -9 6 6 10 2 11 -15 6 -16 -5 -20 -4 -15 4 5 8
-1 10 -19 5 -13 -3 -30 -3 -36 1 -17 10 -179 11 -173 1 4 -5 -15 -7 -42 -4
-32 4 -43 3 -34 -4 10 -7 3 -8 -21 -4 -27 5 -31 3 -20 -5 12 -8 9 -9 -13 -4
-20 4 -27 2 -22 -6 5 -8 0 -9 -16 -4 -20 5 -21 4 -9 -5 12 -10 11 -11 -8 -7
-14 3 -20 1 -15 -6 4 -7 0 -8 -11 -4 -11 5 -15 3 -10 -5 5 -8 2 -9 -10 -5 -10
4 -15 3 -11 -3 8 -12 -32 -33 -48 -24 -6 4 -9 4 -5 -1 4 -4 2 -15 -4 -22 -7
-8 18 2 56 22 37 21 69 35 72 33 2 -3 -9 -11 -26 -18 -16 -7 -27 -16 -25 -20
3 -5 0 -12 -6 -16 -8 -4 -9 -3 -5 4 10 17 -7 15 -30 -4 -17 -14 -17 -15 -1
-10 12 4 16 2 11 -5 -4 -8 1 -9 16 -4 16 5 20 4 15 -5 -6 -9 -3 -9 14 -1 25
14 28 23 4 14 -10 -4 -14 -2 -10 4 4 6 34 21 67 33 46 17 64 20 73 11 16 -16
32 -14 18 3 -9 11 -5 15 20 20 51 10 199 7 199 -4 0 -5 -3 -9 -7 -9 -38 6 -27
-5 17 -17 66 -18 106 -42 92 -56 -5 -5 -48 -11 -95 -13 -47 -2 -95 -8 -106
-14 -11 -6 -31 -11 -45 -11 -38 0 -129 -42 -114 -52 19 -12 35 -9 18 3 -12 8
-9 10 13 6 15 -2 27 0 27 4 0 5 25 9 55 9 30 0 55 -4 55 -9 0 -5 10 -7 23 -4
18 4 19 3 7 -6 -13 -10 -13 -11 0 -12 8 -1 19 -1 24 0 5 1 6 -14 3 -34 -4 -23
-2 -33 4 -29 6 3 9 -2 7 -12 -2 -10 3 -19 10 -19 6 0 11 -3 10 -6 -4 -9 23
-39 36 -39 6 0 4 5 -4 10 -8 5 -11 10 -6 10 5 0 1 9 -9 20 -10 11 -22 17 -26
14 -5 -3 -6 2 -3 11 6 14 8 14 20 -3 19 -28 69 -45 109 -39 34 6 57 -6 33 -16
-10 -4 -10 -6 0 -6 18 -1 88 71 84 87 -2 8 0 12 5 9 4 -3 7 20 6 51 -1 32 1
46 4 33 4 -18 7 -21 13 -11 5 8 4 22 -1 33 -8 14 -6 23 7 38 16 18 16 21 -1
60 -36 78 -105 119 -250 148 l-50 10 63 -4 c81 -6 145 -34 200 -88 23 -22 42
-37 42 -31 0 19 -75 83 -121 103 -46 21 -159 33 -213 24z m21 -100 c-20 -2
-52 -2 -70 0 -17 2 0 4 38 4 39 0 53 -2 32 -4z m199 -18 c-2 -7 1 -18 7 -24 9
-9 8 -11 -5 -6 -24 9 -23 2 4 -21 17 -16 20 -16 15 -3 -3 9 0 22 6 29 9 10 9
11 0 6 -13 -7 -28 10 -15 18 5 3 19 -5 31 -18 15 -16 19 -26 11 -31 -8 -5 -8
-10 0 -20 8 -10 8 -15 -1 -21 -7 -4 -9 -3 -6 3 4 6 0 14 -9 17 -12 5 -15 2 -9
-11 4 -10 9 -25 12 -33 4 -13 4 -13 -6 0 -9 13 -11 13 -11 0 0 -8 5 -22 10
-30 7 -11 10 -12 10 -2 0 10 4 10 15 -2 12 -11 15 -31 13 -70 -2 -30 -5 -52
-7 -50 -2 2 -14 -4 -25 -13 -20 -18 -20 -17 -6 2 14 19 14 19 -3 6 -12 -9 -14
-17 -7 -26 5 -6 7 -14 4 -18 -9 -8 -35 4 -29 13 3 5 -8 3 -24 -3 -21 -8 -36
-7 -58 2 -59 24 -71 96 -16 89 36 -4 38 21 3 39 -23 12 -24 13 -4 13 12 0 27
-7 34 -15 10 -12 16 -13 29 -3 14 11 14 11 3 -3 -15 -20 -12 -67 5 -65 7 1 19
8 26 16 10 10 9 12 -3 6 -10 -5 -9 -3 2 7 11 9 15 21 11 36 -3 14 -1 26 7 31
9 6 8 15 -5 43 -17 37 -42 64 -50 55 -3 -2 6 -20 20 -38 30 -41 33 -61 4 -29
-14 17 -19 19 -15 7 3 -10 0 -20 -6 -24 -7 -4 -8 -3 -4 4 4 7 3 12 -2 12 -17
0 -21 -13 -11 -34 9 -18 8 -19 -3 -6 -7 8 -24 14 -37 12 -13 -2 -28 1 -34 7
-11 11 8 16 41 12 8 -1 22 5 33 15 17 15 17 18 1 39 -9 13 -20 21 -24 18 -5
-2 -8 0 -8 6 0 6 -8 8 -17 4 -14 -5 -15 -3 -7 6 9 10 17 10 32 2 30 -16 40
-13 18 4 -11 8 -14 15 -8 15 7 0 30 -18 52 -40 22 -22 40 -35 40 -29 0 7 -16
27 -36 45 -19 19 -28 31 -18 27 11 -4 15 -3 10 5 -3 6 -2 13 4 17 6 4 7 11 4
17 -5 7 -2 8 5 4 7 -5 10 -14 7 -21z m-312 7 c2 -4 -11 -6 -30 -4 -19 2 -34 6
-34 8 0 8 59 4 64 -4z m225 -3 c48 -17 33 -19 -24 -4 -27 8 -41 14 -29 14 12
1 35 -4 53 -10z m-302 -5 c-3 -3 -12 -4 -19 -1 -8 3 -5 6 6 6 11 1 17 -2 13
-5z m196 -1 c-18 -2 -48 -2 -65 0 -18 2 -4 4 32 4 36 0 50 -2 33 -4z m74 -9
c-3 -3 -12 -4 -19 -1 -8 3 -5 6 6 6 11 1 17 -2 13 -5z m0 -20 c-3 -3 -12 -4
-19 -1 -8 3 -5 6 6 6 11 1 17 -2 13 -5z m-36 -140 c-15 -11 -19 -23 -16 -52 4
-33 3 -34 -3 -7 -5 18 -14 29 -22 27 -10 -2 -10 2 3 20 8 13 20 22 26 21 6 -2
11 2 11 8 0 5 5 7 11 4 6 -5 3 -12 -10 -21z"/>
<path d="M1980 4269 c-56 -25 -106 -63 -121 -92 -8 -14 4 -7 33 20 52 47 91
69 145 82 28 7 31 9 13 10 -14 0 -45 -9 -70 -20z"/>
<path d="M5724 4268 l-19 -23 23 19 c12 11 22 21 22 23 0 8 -8 2 -26 -19z"/>
<path d="M6297 4263 c-10 -10 -31 -17 -54 -16 -29 1 -33 -1 -20 -9 22 -12 71
-2 88 18 17 21 6 27 -14 7z"/>
<path d="M2178 4233 c17 -2 47 -2 65 0 17 2 3 4 -33 4 -36 0 -50 -2 -32 -4z"/>
<path d="M5767 4233 c18 -2 50 -2 70 0 21 2 7 4 -32 4 -38 0 -55 -2 -38 -4z"/>
<path d="M6201 4164 c0 -11 3 -14 6 -6 3 7 2 16 -1 19 -3 4 -6 -2 -5 -13z"/>
<path d="M1802 4130 c0 -19 2 -27 5 -17 2 9 2 25 0 35 -3 9 -5 1 -5 -18z"/>
<path d="M2045 4141 c-43 -20 -93 -67 -82 -78 4 -3 16 2 27 12 11 10 20 15 20
12 0 -3 24 5 53 18 28 14 66 25 82 25 l30 1 -34 14 c-42 19 -47 19 -96 -4z
m70 -1 c-3 -5 -12 -7 -20 -3 -8 3 -15 0 -15 -6 0 -6 -7 -8 -17 -4 -10 4 -14 2
-10 -4 4 -5 -5 -15 -18 -21 -43 -20 -36 5 8 27 44 22 82 28 72 11z"/>
<path d="M5705 4140 c3 -5 16 -10 28 -9 21 0 21 1 2 9 -28 12 -37 12 -30 0z"/>
<path d="M2335 4130 c-3 -5 1 -10 9 -10 9 0 16 5 16 10 0 6 -4 10 -9 10 -6 0
-13 -4 -16 -10z"/>
<path d="M2583 4113 c4 -6 -7 -16 -23 -23 -21 -9 -27 -16 -21 -24 5 -6 10 -15
11 -21 1 -5 4 -12 7 -15 4 -3 3 1 -2 9 -5 9 -3 12 6 9 8 -3 13 -10 12 -16 -1
-5 8 -18 20 -28 18 -16 20 -16 8 -1 -16 21 1 23 19 2 7 -8 9 -15 4 -15 -4 0 3
-11 16 -25 13 -14 26 -23 28 -20 3 3 16 -5 29 -17 13 -12 23 -16 23 -10 0 6
-37 43 -82 83 -46 40 -85 74 -88 77 -3 3 6 -1 20 -8 38 -20 182 -170 208 -218
32 -58 22 -53 -17 9 -17 28 -34 49 -37 47 -2 -3 11 -29 30 -58 41 -63 91 -193
82 -215 -4 -10 -2 -14 5 -9 8 4 9 -3 4 -26 -5 -21 -4 -30 3 -26 7 4 9 -9 8
-34 -2 -22 1 -40 6 -40 4 0 8 -20 8 -45 0 -25 -3 -45 -7 -45 -5 0 -9 -23 -10
-50 -1 -35 2 -48 9 -44 8 5 9 1 5 -10 -4 -10 -1 -24 8 -32 17 -17 20 -35 6
-31 -5 1 -24 -18 -42 -43 -45 -61 -48 -88 -8 -57 9 7 15 20 13 29 -1 10 3 16
9 15 7 -1 11 6 9 17 -2 10 1 15 7 12 14 -9 32 29 24 50 -4 12 -3 15 5 10 7 -4
12 -3 12 3 0 5 -4 13 -10 16 -5 3 -10 1 -10 -6 0 -7 -2 -10 -5 -7 -3 2 2 38
11 79 33 156 -14 365 -115 512 -30 45 -32 67 -2 44 14 -11 14 -10 2 6 -8 9
-16 15 -19 12 -7 -7 -32 15 -32 27 0 6 8 4 18 -3 14 -11 14 -10 -2 8 -10 13
-22 20 -26 18 -4 -2 -15 4 -25 15 -10 11 -21 17 -25 15 -4 -3 -14 3 -21 13
-13 16 -12 16 6 2 19 -14 20 -14 2 6 -9 11 -15 23 -12 26 3 3 -5 13 -17 24
-18 15 -20 16 -9 2 10 -13 10 -18 2 -18 -7 0 -9 -5 -5 -12 6 -10 4 -10 -8 0
-9 7 -15 22 -13 32 2 11 -1 23 -7 26 -6 4 -8 3 -5 -3z m72 -143 c10 -11 16
-20 13 -20 -3 0 -13 9 -23 20 -10 11 -16 20 -13 20 3 0 13 -9 23 -20z m184
-245 c0 -5 -6 1 -14 15 -8 14 -14 30 -14 35 0 6 6 -1 14 -15 8 -14 14 -29 14
-35z m20 -55 c0 -10 -3 -8 -9 5 -12 27 -12 43 0 25 5 -8 9 -22 9 -30z m28
-170 c3 -58 1 -120 -3 -138 -6 -23 -9 4 -9 90 0 68 -3 141 -7 163 -7 34 -6 36
3 15 7 -14 14 -72 16 -130z"/>
<path d="M5403 4098 c-4 -7 -8 -20 -8 -28 0 -20 -15 -41 -24 -36 -4 3 -27 -15
-51 -39 -24 -24 -47 -42 -51 -40 -3 3 -13 -3 -20 -13 -13 -15 -12 -16 3 -4 11
9 18 10 23 2 3 -5 2 -10 -3 -10 -23 0 -117 -198 -143 -298 -21 -84 -25 -219
-8 -287 8 -31 8 -49 -1 -66 -10 -21 -10 -22 3 -7 8 10 17 14 22 10 4 -4 5 7 3
23 -3 17 -3 24 -1 18 3 -7 9 -13 15 -13 6 0 7 7 2 18 -12 27 -14 183 -3 205 9
15 8 18 -2 12 -8 -6 -10 -4 -3 6 5 8 7 22 5 33 -2 12 1 16 10 11 9 -6 10 -1 5
18 -13 53 106 307 141 300 5 -1 32 20 59 48 26 27 44 49 40 49 -5 0 -3 7 4 15
15 18 34 20 24 3 -4 -8 -3 -10 2 -5 5 5 9 12 9 15 0 4 4 13 8 20 5 7 3 13 -5
14 -7 0 -17 2 -23 3 -5 2 -16 3 -24 4 -11 1 -11 4 -1 16 7 8 10 15 7 15 -3 0
-9 -6 -14 -12z m-16 -91 c-56 -53 -56 -62 1 -13 39 34 24 12 -24 -34 -29 -30
-43 -38 -39 -25 16 51 -71 -69 -117 -160 -27 -55 -46 -89 -42 -75 24 86 104
210 188 293 34 33 60 63 59 67 -1 3 7 6 18 6 14 0 2 -16 -44 -59z m-233 -376
c-4 -17 -9 -30 -11 -27 -3 2 -2 19 2 36 9 41 17 33 9 -9z m-19 -163 c0 -112
-11 -125 -14 -17 -1 38 8 139 13 139 1 0 1 -55 1 -122z"/>
<path d="M1934 4056 c-3 -15 -4 -30 0 -33 3 -4 6 2 6 13 0 14 2 16 9 5 5 -7
11 -9 14 -4 3 4 -1 17 -8 27 -13 17 -14 17 -21 -8z"/>
<path d="M1989 4064 c-14 -17 -29 -102 -22 -121 3 -7 9 -10 14 -7 5 3 9 0 9
-5 0 -6 5 -11 11 -11 7 0 8 12 4 33 -5 24 -4 28 4 17 9 -13 11 -13 11 1 0 9
-7 22 -15 29 -9 8 -12 17 -6 24 4 6 7 19 6 28 -3 14 0 15 16 5 11 -7 14 -14 9
-15 -7 -3 -7 -9 1 -19 7 -8 8 -13 3 -11 -5 2 -9 -1 -9 -7 0 -5 5 -8 10 -6 6 2
19 5 30 8 18 3 18 3 -1 -6 -25 -11 -39 -40 -21 -42 7 -1 22 0 33 0 42 4 35
-55 -11 -85 -17 -11 -36 -15 -58 -10 -26 5 -29 4 -13 -5 10 -6 36 -9 56 -6 30
4 37 2 33 -9 -3 -8 0 -14 7 -14 6 0 8 5 5 10 -5 9 9 14 18 8 10 -8 35 26 30
39 -5 12 -3 14 7 8 10 -6 12 -4 7 8 -20 49 -21 53 -6 34 13 -16 14 -16 14 7 0
13 -3 22 -7 19 -5 -2 -8 1 -8 7 0 6 -5 8 -12 4 -7 -5 -8 -3 -4 5 5 7 0 18 -10
26 -11 7 -16 17 -11 21 4 4 16 -2 27 -14 18 -19 27 -21 105 -15 57 4 85 2 85
-5 0 -5 10 -8 22 -4 15 4 19 2 13 -7 -6 -10 -2 -11 15 -6 14 4 20 3 16 -3 -6
-10 23 -26 32 -17 3 3 0 5 -7 5 -7 0 -10 4 -7 9 3 5 -9 14 -27 21 -17 7 -45
18 -62 26 -23 10 -31 10 -37 1 -4 -7 -8 -7 -8 -2 0 17 -89 39 -166 41 -39 1
-80 7 -91 13 -16 8 -24 7 -34 -5z m111 -35 c0 -12 -47 -12 -54 0 -4 5 0 11 6
14 18 5 48 -3 48 -14z m36 -136 c-2 -18 -10 -27 -25 -30 l-23 -3 24 29 c13 17
24 30 25 30 1 1 0 -11 -1 -26z"/>
<path d="M5320 4023 l-55 -58 58 55 c53 50 62 60 54 60 -1 0 -27 -26 -57 -57z"/>
<path d="M2685 4030 c10 -11 20 -20 23 -20 3 0 -3 9 -13 20 -10 11 -20 20 -23
20 -3 0 3 -9 13 -20z"/>
<path d="M1830 4036 c0 -2 8 -10 18 -17 15 -13 16 -12 3 4 -13 16 -21 21 -21
13z"/>
<path d="M2218 3983 c6 -2 18 -2 25 0 6 3 1 5 -13 5 -14 0 -19 -2 -12 -5z"/>
<path d="M2298 3983 c7 -3 16 -2 19 1 4 3 -2 6 -13 5 -11 0 -14 -3 -6 -6z"/>
<path d="M5708 3983 c7 -3 16 -2 19 1 4 3 -2 6 -13 5 -11 0 -14 -3 -6 -6z"/>
<path d="M5768 3983 c7 -3 16 -2 19 1 4 3 -2 6 -13 5 -11 0 -14 -3 -6 -6z"/>
<path d="M2440 3946 c0 -3 9 -10 20 -16 11 -6 20 -8 20 -6 0 3 -9 10 -20 16
-11 6 -20 8 -20 6z"/>
<path d="M2496 3922 c-3 -5 7 -20 22 -33 18 -16 21 -17 10 -4 -9 11 -17 24
-16 28 0 14 -10 19 -16 9z"/>
<path d="M2670 3926 c0 -2 8 -10 18 -17 15 -13 16 -12 3 4 -13 16 -21 21 -21
13z"/>
<path d="M5519 3913 c-13 -16 -12 -17 4 -4 9 7 17 15 17 17 0 8 -8 3 -21 -13z"/>
<path d="M1940 3895 c13 -14 26 -25 28 -25 3 0 -5 11 -18 25 -13 14 -26 25
-28 25 -3 0 5 -11 18 -25z"/>
<path d="M5451 3878 c-24 -24 -49 -43 -55 -43 -6 0 -12 -6 -12 -12 -1 -7 -2
-17 -3 -23 0 -5 -7 -9 -13 -7 -8 1 -12 -6 -10 -16 2 -10 -2 -16 -9 -15 -7 2
-22 -21 -34 -49 -12 -29 -24 -50 -28 -47 -3 4 -4 -11 -2 -32 4 -33 3 -35 -5
-14 -7 19 -8 10 -6 -35 2 -33 2 -50 -1 -37 -7 38 -23 14 -23 -35 0 -26 -5 -73
-12 -106 -11 -54 -11 -60 6 -72 16 -12 14 -41 -3 -31 -3 3 -7 -4 -7 -15 0 -10
5 -19 10 -19 5 0 2 -8 -8 -19 -14 -15 -14 -20 -3 -29 20 -17 25 -7 22 41 -2
23 -1 34 2 24 2 -9 9 -14 15 -11 6 4 8 2 5 -3 -9 -14 15 -34 29 -25 12 8 28
41 28 62 1 8 12 20 26 27 17 9 20 13 8 13 -9 0 -24 3 -34 7 -12 4 -15 3 -10
-6 4 -7 2 -10 -5 -9 -7 2 -16 -8 -20 -22 -6 -20 -7 -21 -8 -5 -1 35 15 48 63
50 42 1 50 -2 76 -31 15 -18 31 -30 34 -27 3 4 6 -5 7 -18 0 -22 1 -23 9 -4
12 29 12 37 -2 29 -8 -5 -9 -2 -5 10 5 11 3 15 -5 10 -7 -5 -9 -2 -5 9 3 9 -1
21 -11 29 -15 11 -16 11 -7 -2 6 -9 1 -6 -10 7 -11 12 -29 24 -40 25 -11 2
-26 8 -34 12 -9 6 -12 5 -7 -2 6 -9 -59 -39 -76 -34 -4 1 -10 -8 -13 -20 -6
-16 -9 -18 -16 -7 -12 19 -11 29 3 27 6 -2 15 8 19 22 l7 25 1 -25 c1 -18 4
-21 10 -11 5 7 7 21 6 30 -1 9 0 10 2 4 6 -17 18 -16 37 3 18 18 22 39 5 28
-8 -5 -10 1 -7 20 3 14 1 26 -3 26 -5 0 -9 27 -9 60 0 36 4 60 11 60 5 0 7 5
4 10 -4 6 -3 24 0 42 6 23 9 27 17 17 7 -10 8 -8 3 8 -4 13 2 38 15 62 20 39
38 57 26 26 -9 -23 0 -18 20 13 15 23 15 25 1 13 -9 -7 -17 -9 -17 -4 0 13 35
45 42 38 7 -7 51 42 54 60 1 8 1 15 1 15 -1 0 -22 -19 -46 -42z m39 19 c0 -2
-12 -14 -27 -28 l-28 -24 24 28 c23 25 31 32 31 24z m-151 -176 c-6 -18 -13
-30 -15 -28 -2 2 1 18 7 36 6 18 13 30 15 28 2 -2 -1 -18 -7 -36z m-29 -146
c-7 -96 -7 -97 -8 -29 -2 62 6 140 13 132 1 -2 -1 -48 -5 -103z m-23 -112 c-3
-10 -5 -2 -5 17 0 19 2 27 5 18 2 -10 2 -26 0 -35z m-20 -10 c-3 -10 -5 -2 -5
17 0 19 2 27 5 18 2 -10 2 -26 0 -35z m50 -15 c-3 -8 -6 -5 -6 6 -1 11 2 17 5
13 3 -3 4 -12 1 -19z m6 -128 c3 -11 1 -18 -4 -14 -5 3 -9 12 -9 20 0 20 7 17
13 -6z m-76 -75 c0 -8 -4 -12 -9 -9 -5 3 -6 10 -3 15 9 13 12 11 12 -6z"/>
<path d="M2568 3870 c39 -44 42 -63 5 -29 l-28 24 24 -27 c13 -15 28 -25 32
-22 5 3 18 -10 29 -28 22 -36 26 -53 10 -43 -6 3 -7 -1 -3 -10 4 -12 8 -13 13
-5 11 17 22 -21 14 -46 -5 -16 -4 -17 6 -4 9 12 10 7 6 -25 -4 -27 -3 -34 3
-20 6 13 9 -12 9 -74 0 -63 -3 -89 -10 -80 -6 9 -7 3 -3 -20 5 -23 4 -31 -4
-27 -6 4 -11 2 -11 -3 0 -15 27 -14 33 2 3 6 6 3 6 -7 1 -11 4 -17 7 -13 10 9
55 -41 64 -71 7 -26 7 64 0 163 l-3 40 -7 -40 c-6 -35 -8 -31 -10 35 l-4 75
-6 -65 c-7 -62 -7 -61 -6 22 1 49 -1 84 -4 78 -3 -5 -11 9 -17 33 -12 44 -70
143 -79 134 -3 -2 -26 16 -52 42 -26 26 -32 31 -14 11z m96 -102 c13 -24 27
-56 30 -73 5 -24 3 -23 -9 9 -8 21 -24 53 -36 72 -11 19 -18 34 -15 34 3 0 16
-19 30 -42z m43 -145 c-3 -10 -5 -4 -5 12 0 17 2 24 5 18 2 -7 2 -21 0 -30z
m10 -85 c-2 -13 -4 -3 -4 22 0 25 2 35 4 23 2 -13 2 -33 0 -45z m-10 -75 c-3
-10 -5 -4 -5 12 0 17 2 24 5 18 2 -7 2 -21 0 -30z m20 -25 c-3 -7 -5 -2 -5 12
0 14 2 19 5 13 2 -7 2 -19 0 -25z m40 -15 c-3 -10 -5 -4 -5 12 0 17 2 24 5 18
2 -7 2 -21 0 -30z m-20 -5 c-3 -7 -5 -2 -5 12 0 14 2 19 5 13 2 -7 2 -19 0
-25z"/>
<path d="M1975 3840 c-3 -5 -1 -10 4 -10 6 0 11 5 11 10 0 6 -2 10 -4 10 -3 0
-8 -4 -11 -10z"/>
<path d="M2901 3634 c0 -11 3 -14 6 -6 3 7 2 16 -1 19 -3 4 -6 -2 -5 -13z"/>
<path d="M5333 3560 c0 -30 2 -43 4 -27 2 15 2 39 0 55 -2 15 -4 2 -4 -28z"/>
<path d="M2911 3584 c0 -11 3 -14 6 -6 3 7 2 16 -1 19 -3 4 -6 -2 -5 -13z"/>
<path d="M2921 3514 c0 -11 3 -14 6 -6 3 7 2 16 -1 19 -3 4 -6 -2 -5 -13z"/>
<path d="M5083 3420 c0 -25 2 -35 4 -22 2 12 2 32 0 45 -2 12 -4 2 -4 -23z"/>
<path d="M2620 3402 c-8 -3 -21 -12 -28 -21 -11 -13 -12 -13 -6 -1 4 8 -4 4
-19 -9 -15 -14 -23 -29 -20 -39 4 -9 2 -13 -4 -9 -7 5 -9 0 -6 -13 3 -11 1
-20 -3 -20 -5 0 -9 -16 -10 -35 0 -22 3 -31 8 -23 4 7 8 21 8 31 0 10 4 23 10
30 5 7 20 25 33 40 18 23 32 29 64 30 23 1 39 -1 37 -5 -2 -4 0 -9 6 -13 5 -3
10 -12 10 -18 0 -7 -5 -4 -11 6 -5 9 -20 17 -32 16 l-22 0 23 -9 c12 -5 22
-18 22 -29 0 -11 4 -22 10 -26 5 -3 7 -12 3 -20 -6 -18 18 -20 34 -4 7 7 13 7
17 1 9 -16 -24 -36 -61 -37 -27 -1 -33 2 -28 14 3 11 1 10 -10 -3 -8 -10 -12
-23 -8 -29 3 -6 1 -7 -5 -3 -7 4 -8 17 -2 38 10 31 5 52 -9 44 -10 -6 -8 -67
2 -83 4 -7 15 -9 24 -6 9 4 14 2 11 -3 -4 -5 13 -7 38 -5 40 3 49 10 45 34 -1
5 3 6 9 2 6 -3 7 -12 3 -18 -4 -7 7 1 24 17 18 17 30 34 27 38 -8 13 -25 -2
-17 -15 3 -7 -3 -3 -15 7 -25 21 -27 27 -11 24 6 -2 14 3 17 11 2 8 0 11 -6 7
-12 -7 -23 18 -16 37 2 7 -5 26 -17 41 -15 19 -27 25 -41 20 -12 -3 -18 -2
-15 3 6 10 -37 13 -63 5z m-41 -59 c-6 -7 -15 -10 -20 -7 -13 8 -3 21 15 21
12 0 13 -4 5 -14z m151 -27 c0 -12 -5 -7 -19 24 -11 24 -11 24 3 6 9 -11 16
-24 16 -30z"/>
<path d="M2906 3317 c3 -10 9 -15 12 -12 3 3 0 11 -7 18 -10 9 -11 8 -5 -6z"/>
<path d="M5106 3305 c-9 -26 -7 -32 5 -12 6 10 9 21 6 23 -2 3 -7 -2 -11 -11z"/>
<path d="M5373 3264 c-13 -28 -10 -44 9 -44 7 0 7 4 -1 14 -9 10 -7 17 6 27
16 12 17 12 6 -2 -8 -10 -9 -19 -3 -25 7 -7 3 -17 -11 -30 -13 -10 -19 -13
-14 -5 10 17 -14 33 -39 25 -13 -4 -16 -3 -11 6 5 8 3 11 -6 8 -8 -3 -21 1
-30 8 -13 12 -15 10 -15 -19 1 -31 3 -32 51 -38 58 -7 82 2 91 35 13 54 -12
85 -33 40z"/>
<path d="M5492 3265 c0 -16 2 -22 5 -12 2 9 2 23 0 30 -3 6 -5 -1 -5 -18z"/>
<path d="M5125 3250 c-8 -14 4 -32 16 -24 6 3 9 -1 7 -8 -2 -8 12 -27 30 -42
17 -15 30 -31 27 -36 -3 -4 1 -13 9 -19 11 -9 15 -9 19 1 3 7 4 3 4 -9 -1 -13
-3 -23 -5 -23 -13 0 -80 70 -72 75 6 4 10 1 10 -4 0 -6 5 -11 11 -11 8 0 7 5
-1 15 -9 11 -16 13 -24 5 -13 -13 -29 -13 -20 1 4 8 -1 9 -16 4 -16 -5 -20 -4
-15 4 5 8 -1 10 -19 5 -14 -3 -26 -2 -26 2 0 5 -49 9 -109 9 -62 0 -107 -4
-104 -9 4 -5 -13 -7 -37 -3 -31 4 -40 3 -29 -5 10 -7 4 -8 -21 -4 -27 5 -31 3
-20 -5 12 -8 8 -9 -15 -5 -24 5 -27 4 -15 -5 12 -9 11 -10 -8 -6 -14 3 -20 1
-15 -6 4 -7 0 -8 -11 -4 -10 4 -15 3 -11 -3 4 -6 -4 -9 -17 -7 -15 1 -22 -3
-20 -12 2 -8 -3 -11 -11 -8 -8 3 -14 -1 -14 -9 0 -17 3 -17 28 -4 10 6 19 8
19 6 0 -3 -14 -13 -31 -22 -17 -8 -28 -11 -25 -5 4 6 2 11 -4 11 -6 0 -8 5 -4
12 4 6 3 8 -4 5 -5 -4 -9 -15 -7 -25 1 -9 -2 -23 -8 -29 -14 -18 -1 -16 30 5
18 11 24 12 19 3 -7 -10 -3 -12 14 -6 17 5 21 4 15 -5 -5 -9 -4 -11 4 -6 6 4
9 11 6 16 -3 5 7 16 22 23 44 23 165 58 193 56 14 0 32 -1 40 0 13 1 13 2 0
11 -10 7 8 9 60 8 41 -1 58 -3 37 -5 -20 -2 -35 -8 -32 -14 4 -5 -9 -10 -27
-10 -31 -2 -31 -2 -5 -6 16 -3 34 0 40 5 7 5 32 12 57 15 30 4 38 3 25 -3 -18
-8 -18 -9 -2 -9 10 -1 15 -6 12 -11 -5 -8 -11 -7 -20 0 -10 8 -19 9 -32 1 -16
-9 -16 -10 6 -11 12 0 45 -11 72 -24 27 -14 51 -21 53 -17 8 13 -4 20 -22 14
-15 -4 -15 -3 1 10 16 13 15 15 -13 27 -17 7 -29 15 -26 17 7 8 49 -18 84 -50
28 -27 45 -28 25 -1 -5 5 0 1 10 -10 10 -11 21 -32 24 -47 3 -15 12 -30 20
-33 12 -5 14 -15 8 -43 -8 -46 -23 -75 -34 -68 -10 5 -29 -14 -29 -30 0 -5 -6
-11 -13 -14 -7 -2 -9 1 -5 8 5 8 0 8 -19 1 -37 -14 -92 11 -106 47 -13 34 7
53 47 45 24 -4 25 -3 15 16 -6 11 -16 23 -23 25 -8 4 -7 6 4 6 9 1 20 -4 23
-9 4 -6 11 -8 16 -4 6 4 6 10 0 18 -15 18 -101 4 -120 -20 -9 -11 -25 -18 -36
-16 -14 2 -16 1 -7 -6 7 -5 14 -19 15 -30 2 -28 5 -28 18 1 8 18 9 18 5 2 -2
-11 -7 -29 -11 -40 -6 -18 -5 -18 7 -4 12 14 15 13 36 -12 14 -17 18 -30 12
-34 -13 -8 -3 -25 13 -25 7 0 6 4 -3 10 -18 11 -16 12 53 14 28 1 57 -2 64 -7
14 -10 36 0 28 14 -6 8 8 13 28 10 4 0 6 2 6 6 -3 21 2 33 14 31 8 -2 11 7 9
27 -2 19 1 25 6 17 5 -8 8 0 8 23 -1 19 -5 35 -10 35 -4 0 -6 11 -4 25 3 14 1
22 -5 18 -5 -3 -6 3 -3 15 4 12 2 23 -5 28 -8 4 -9 3 -5 -4 5 -8 2 -10 -8 -6
-9 3 -13 11 -9 18 4 6 8 15 8 20 0 5 6 11 14 14 8 3 11 0 8 -5 -10 -16 105 -8
138 10 17 8 39 26 50 38 20 24 20 24 0 8 -31 -24 -101 -49 -141 -49 -47 0 -82
20 -130 72 -21 24 -43 42 -48 40 -4 -2 -6 4 -3 13 7 17 2 20 -8 5z m-122 -77
c-23 -2 -64 -2 -90 0 -26 2 -7 3 42 3 50 0 71 -1 48 -3z m-160 -10 c-7 -2 -21
-2 -30 0 -10 3 -4 5 12 5 17 0 24 -2 18 -5z m240 0 c-7 -2 -19 -2 -25 0 -7 3
-2 5 12 5 14 0 19 -2 13 -5z m-308 -13 c-11 -5 -27 -9 -35 -9 -9 0 -8 4 5 9
11 5 27 9 35 9 9 0 8 -4 -5 -9z m373 -10 c45 -27 40 -34 -5 -8 -47 27 -49 28
-37 28 5 0 24 -9 42 -20z m-448 -15 c-14 -8 -29 -14 -35 -14 -5 0 1 6 15 14
14 8 30 14 35 14 6 0 -1 -6 -15 -14z m419 -14 c9 -6 10 -11 2 -15 -6 -4 -11
-3 -11 3 0 6 -7 7 -17 4 -11 -4 -14 -3 -9 5 8 14 16 15 35 3z m111 -241 c0 -5
-5 -10 -11 -10 -5 0 -7 5 -4 10 3 6 8 10 11 10 2 0 4 -4 4 -10z"/>
<path d="M5476 3203 c-6 -14 -5 -15 5 -6 7 7 10 15 7 18 -3 3 -9 -2 -12 -12z"/>
<path d="M2530 3203 c0 -6 8 -17 18 -24 16 -13 16 -13 2 6 -8 11 -16 22 -17
24 -2 2 -3 0 -3 -6z"/>
<path d="M3038 3203 c18 -2 45 -2 60 0 15 2 0 4 -33 4 -33 0 -45 -2 -27 -4z"/>
<path d="M4928 3203 c18 -2 45 -2 60 0 15 2 0 4 -33 4 -33 0 -45 -2 -27 -4z"/>
<path d="M2953 3187 c7 -5 -2 -6 -21 -3 -23 4 -31 2 -26 -6 5 -8 2 -9 -10 -5
-11 4 -15 3 -10 -4 4 -8 -1 -9 -17 -5 l-24 7 24 -14 c20 -12 21 -15 7 -20 -11
-5 -15 -3 -10 4 4 7 2 10 -5 8 -7 -3 -11 -7 -9 -11 2 -3 -7 -17 -18 -30 -12
-13 -29 -36 -38 -53 -16 -27 -16 -19 0 20 5 11 2 14 -12 8 -13 -5 -15 -3 -10
8 4 8 -2 3 -13 -10 -12 -13 -21 -28 -21 -35 0 -6 5 -4 11 4 9 12 10 12 5 -3
-3 -10 -6 -21 -6 -23 0 -3 -3 -3 -7 -1 -5 3 -8 -24 -7 -60 1 -44 5 -68 15 -74
8 -5 10 -9 5 -9 -5 0 1 -11 14 -25 12 -13 27 -22 32 -19 5 4 1 16 -10 28 -29
32 -42 61 -42 96 0 34 25 70 33 47 3 -7 9 -2 15 13 9 20 11 21 11 6 1 -14 10
-6 30 25 35 51 30 67 -6 24 -20 -24 -23 -25 -11 -5 16 26 73 70 92 70 6 0 4
-5 -4 -11 -12 -8 -8 -9 15 -6 17 2 24 2 18 0 -7 -3 -13 -8 -13 -13 0 -5 -7 -6
-17 -3 -11 4 -14 3 -9 -5 4 -7 2 -12 -4 -12 -7 0 -10 7 -6 15 3 8 1 15 -4 15
-14 0 -21 -18 -10 -25 6 -4 -2 -19 -20 -36 -16 -17 -30 -37 -30 -45 0 -8 -4
-14 -8 -14 -16 0 -5 -61 14 -76 10 -9 13 -12 5 -8 -9 5 -12 3 -7 -4 14 -23 36
-13 36 16 0 16 8 36 18 45 24 22 39 22 18 1 -22 -21 -20 -31 7 -31 43 -1 47
-3 47 -27 0 -26 -50 -76 -76 -76 -18 0 -51 16 -79 39 -12 9 -8 4 7 -11 48 -48
108 -49 153 -4 19 19 25 21 29 9 4 -9 2 -11 -6 -7 -7 5 -8 3 -3 -6 6 -9 4 -11
-5 -5 -9 5 -11 4 -6 -4 4 -6 4 -10 -1 -9 -4 2 -9 0 -10 -4 -7 -20 -1 -20 21 1
15 14 22 29 19 39 -5 11 -3 13 6 7 10 -5 12 -2 7 11 -3 11 -7 33 -8 51 -1 21
-8 33 -20 36 -10 3 -18 13 -18 23 0 15 4 14 28 -8 15 -15 41 -30 57 -33 23 -5
26 -4 15 4 -11 8 3 11 58 11 39 0 72 -4 72 -9 0 -5 10 -7 23 -4 18 4 19 3 7
-6 -17 -12 -1 -15 17 -3 9 6 0 14 -27 26 -22 9 -45 14 -51 10 -8 -4 -9 -3 -5
4 5 8 -4 12 -29 12 -20 0 -45 4 -55 10 -10 5 -49 12 -86 16 -38 3 -75 7 -82
10 -7 2 -10 -1 -7 -6 10 -16 -11 -12 -25 5 -10 12 -6 18 22 35 18 11 51 23 72
27 38 6 39 7 15 16 -21 9 -22 11 -5 15 10 2 29 -1 41 -8 12 -6 35 -10 51 -7
25 3 24 4 -9 6 -21 0 -36 5 -32 10 3 6 -12 12 -32 14 -21 2 -4 4 37 5 52 1 70
-1 60 -8 -17 -11 -10 -13 50 -11 l35 1 -25 -14 c-23 -14 -23 -15 -5 -16 12 0
26 5 33 12 14 14 72 -1 144 -38 52 -26 62 -29 53 -14 -3 6 1 7 9 4 34 -13 13
7 -31 30 -27 14 -43 25 -38 25 6 1 30 -10 54 -24 23 -14 44 -25 46 -25 6 0 -1
30 -10 37 -4 4 -5 2 -1 -4 10 -18 4 -16 -49 9 -31 15 -41 25 -32 31 7 5 3 6
-12 2 -16 -5 -21 -4 -16 4 5 8 -2 10 -22 6 -22 -5 -25 -4 -13 4 11 8 7 10 -20
6 -27 -4 -31 -3 -15 4 15 8 9 9 -22 4 -24 -3 -43 -2 -43 3 0 5 -51 9 -114 9
-64 0 -109 -4 -103 -8z m155 -14 c-27 -2 -69 -2 -95 0 -27 2 -5 3 47 3 52 0
74 -1 48 -3z m-151 -9 c-3 -3 -12 -4 -19 -1 -8 3 -5 6 6 6 11 1 17 -2 13 -5z
m246 -1 c-7 -2 -21 -2 -30 0 -10 3 -4 5 12 5 17 0 24 -2 18 -5z m44 -9 c-3 -3
-12 -4 -19 -1 -8 3 -5 6 6 6 11 1 17 -2 13 -5z m-290 -10 c-3 -3 -12 -4 -19
-1 -8 3 -5 6 6 6 11 1 17 -2 13 -5z m-73 -111 c4 -5 15 -8 24 -9 45 -3 52 -5
52 -15 0 -7 -13 -10 -34 -7 -28 3 -37 0 -47 -19 -7 -12 -16 -20 -20 -17 -5 2
1 14 12 25 19 19 18 39 -2 39 -6 0 -7 -5 -3 -12 4 -7 3 -8 -5 -4 -6 4 -9 12
-6 17 7 11 19 12 29 2z m113 -120 c-3 -10 -5 -4 -5 12 0 17 2 24 5 18 2 -7 2
-21 0 -30z m-212 -53 c10 -11 16 -20 13 -20 -3 0 -13 9 -23 20 -10 11 -16 20
-13 20 3 0 13 -9 23 -20z"/>
<path d="M2580 3146 c0 -3 12 -13 26 -22 25 -17 144 -29 144 -15 0 4 10 7 21
7 14 -1 23 6 25 17 1 10 -3 16 -9 14 -7 -3 -11 -8 -10 -13 4 -22 -118 -14
-179 11 -10 4 -18 5 -18 1z"/>
<path d="M2810 3115 c-20 -24 -6 -28 15 -5 10 11 13 20 8 20 -6 0 -16 -7 -23
-15z"/>
<path d="M4835 3120 c3 -5 14 -10 23 -10 15 0 15 2 2 10 -20 13 -33 13 -25 0z"/>
<path d="M3205 3110 c-3 -5 -2 -10 4 -10 5 0 13 5 16 10 3 6 2 10 -4 10 -5 0
-13 -4 -16 -10z"/>
<path d="M4790 3110 c0 -5 5 -10 10 -10 6 0 10 5 10 10 0 6 -4 10 -10 10 -5 0
-10 -4 -10 -10z"/>
<path d="M3443 3093 c4 -6 -7 -16 -23 -23 -21 -9 -27 -16 -21 -24 5 -6 10 -15
11 -21 1 -5 4 -12 7 -15 4 -3 3 1 -1 8 -4 7 -2 12 5 12 8 0 7 5 -2 17 -27 32
26 -4 86 -58 59 -55 128 -145 164 -216 33 -66 24 -65 -12 2 -39 73 -77 128
-84 121 -3 -2 6 -20 20 -38 55 -74 113 -222 102 -259 -5 -16 -4 -19 5 -14 10
6 11 1 6 -19 -3 -14 -2 -26 3 -26 4 0 8 -56 7 -124 -1 -69 1 -133 5 -143 4
-10 8 -13 8 -8 1 6 6 3 11 -5 13 -20 13 -33 0 -25 -6 3 -7 -1 -4 -10 4 -9 2
-15 -2 -13 -5 2 -26 -16 -47 -38 -42 -47 -91 -74 -134 -74 -15 0 -55 12 -88
25 l-60 25 30 -25 c17 -13 36 -25 43 -26 16 -2 31 -6 35 -9 6 -5 87 -5 87 0 0
4 13 6 30 5 24 -1 28 1 18 12 -8 10 -8 12 4 8 8 -3 25 6 38 21 14 15 19 24 11
19 -10 -6 -12 -4 -6 4 4 8 11 9 16 4 6 -6 32 2 67 20 77 39 142 35 184 -12 15
-17 28 -38 28 -46 0 -23 14 -18 27 11 10 22 10 24 -3 13 -13 -11 -15 -10 -12
6 2 12 -3 20 -12 20 -8 1 -14 6 -13 12 5 23 -29 35 -96 37 -39 0 -64 -3 -58
-7 7 -5 2 -7 -12 -3 -27 6 -65 -10 -56 -23 3 -5 -6 -8 -19 -7 -14 0 -22 6 -19
13 3 7 9 11 14 8 15 -10 31 33 19 54 -16 31 -11 49 6 21 10 -15 13 -17 8 -5
-4 11 -6 76 -5 145 2 98 -2 141 -18 201 -20 80 -76 201 -117 255 -13 17 -21
34 -18 36 2 3 -2 11 -11 18 -8 7 -15 17 -15 23 0 5 10 2 23 -9 20 -17 20 -16
-2 9 -14 15 -27 25 -30 22 -2 -3 -18 7 -34 22 -17 16 -26 22 -22 14 6 -10 4
-12 -4 -7 -8 6 -9 12 -2 20 8 9 3 19 -17 37 -21 19 -23 19 -9 3 15 -18 16 -22
3 -27 -18 -7 -34 12 -31 35 2 10 -2 21 -7 25 -6 3 -8 1 -5 -4z m130 -126 c4 3
7 4 7 0 0 -18 -20 -13 -41 11 l-24 27 26 -23 c14 -12 29 -19 32 -15z m146
-327 c0 -8 -7 1 -14 20 -18 46 -17 64 0 25 8 -16 14 -37 14 -45z m8 -42 c-3
-8 -6 -5 -6 6 -1 11 2 17 5 13 3 -3 4 -12 1 -19z m20 -178 c-3 -47 -10 -96
-16 -110 -9 -21 -10 -19 -3 15 4 22 7 90 6 150 0 87 2 101 9 70 5 -22 6 -78 4
-125z m43 -220 c-8 -5 -19 -10 -25 -10 -5 0 -3 5 5 10 8 5 20 10 25 10 6 0 3
-5 -5 -10z m-100 -54 c0 -2 -8 -10 -17 -17 -16 -13 -17 -12 -4 4 13 16 21 21
21 13z"/>
<path d="M5158 3089 c10 -13 9 -19 -2 -28 -11 -9 -16 -46 -6 -46 7 0 6 -36 -1
-41 -5 -3 -9 -13 -9 -22 0 -15 2 -15 11 -2 8 11 9 7 4 -17 -7 -37 -3 -40 24
-16 15 13 19 25 15 53 -4 26 -1 40 10 49 14 11 16 11 16 -4 0 -10 3 -16 6 -12
4 3 3 18 0 32 l-7 26 -17 -21 c-17 -21 -17 -21 -29 -1 -8 13 -9 22 -3 26 6 4
9 1 8 -6 -2 -6 3 -14 10 -16 21 -8 13 13 -15 38 -15 13 -22 17 -15 8z"/>
<path d="M4543 3078 c-4 -7 -8 -20 -8 -29 0 -19 -24 -51 -35 -44 -4 2 -22 -11
-40 -30 -18 -19 -36 -32 -40 -30 -4 3 -14 -3 -21 -13 -13 -15 -12 -16 4 -3 27
21 21 -4 -12 -52 -42 -62 -86 -153 -111 -232 -18 -56 -23 -97 -25 -200 -1 -71
-6 -139 -9 -150 -5 -14 -3 -13 7 4 l14 23 6 -23 c9 -33 8 -46 -2 -31 -7 11 -9
10 -14 -3 -4 -9 -3 -14 2 -11 5 3 9 -4 9 -17 0 -38 7 -53 44 -96 25 -29 38
-38 44 -30 4 7 3 10 -3 6 -5 -3 -10 1 -10 10 0 13 4 12 17 -5 10 -12 20 -18
24 -15 3 4 6 1 6 -5 0 -6 7 -9 17 -5 10 4 14 2 9 -5 -8 -13 103 -9 113 5 3 4
13 9 21 11 8 2 26 14 40 28 l25 25 -45 -25 c-97 -55 -190 -37 -252 48 -16 22
-34 40 -39 39 -14 -4 -11 14 6 31 9 8 12 22 8 32 -4 11 -2 15 4 11 6 -4 10 12
9 42 -1 27 -4 47 -9 44 -4 -2 -7 23 -6 56 1 34 5 61 9 61 4 0 6 16 3 36 -3 25
-1 34 6 30 7 -5 9 4 5 26 -4 26 -3 30 5 18 9 -12 10 -9 5 14 -4 16 -3 27 2 23
5 -3 9 7 10 23 2 54 111 249 133 236 4 -3 27 15 51 39 24 25 40 45 36 45 -5 0
-3 7 4 15 18 21 35 19 19 -2 -13 -16 -12 -17 4 -4 9 8 15 16 12 19 -3 3 0 11
6 19 7 7 7 13 2 13 -6 0 -50 -37 -99 -82 -49 -46 -73 -65 -54 -42 19 22 52 56
73 74 21 18 35 35 32 38 -2 3 0 11 7 19 9 11 7 12 -8 6 -17 -6 -17 -5 -5 10 7
9 11 17 8 17 -3 0 -9 -6 -14 -12z m7 -91 c0 -2 -19 -21 -42 -42 l-43 -40 40
43 c36 39 45 47 45 39z m-192 -212 c-12 -24 -23 -43 -26 -41 -4 5 36 86 43 86
3 0 -5 -20 -17 -45z m-37 -82 c-12 -20 -14 -14 -5 12 4 9 9 14 11 11 3 -2 0
-13 -6 -23z m-24 -75 c-3 -8 -6 -5 -6 6 -1 11 2 17 5 13 3 -3 4 -12 1 -19z
m-12 -162 c0 -88 -3 -136 -8 -123 -11 28 -13 169 -3 225 4 23 8 42 9 42 1 0 2
-65 2 -144z m39 -295 l21 -25 -31 25 c-16 13 -31 33 -32 44 -1 20 -1 20 10 0
6 -11 20 -31 32 -44z"/>
<path d="M4465 3008 l-50 -53 53 50 c48 46 57 55 49 55 -1 0 -25 -24 -52 -52z"/>
<path d="M5032 3040 c-40 -5 -85 -13 -100 -19 -15 -7 -44 -13 -63 -15 -19 -2
-44 -8 -55 -14 -10 -6 -27 -13 -37 -16 -18 -6 -15 -26 4 -26 6 0 7 5 3 11 -4
8 4 9 27 4 25 -4 30 -3 19 4 -11 8 5 11 60 10 53 0 69 -3 55 -9 -14 -7 -8 -8
20 -4 22 4 47 13 55 22 14 14 13 15 -5 2 -20 -15 -20 -14 -1 8 15 17 22 19 28
10 5 -8 8 -9 8 -2 0 18 47 23 76 8 22 -12 25 -12 15 -1 -6 8 -7 17 -3 22 4 4
-4 4 -17 0 -16 -5 -21 -4 -17 4 4 6 6 10 4 10 -2 -1 -36 -5 -76 -9z"/>
<path d="M4509 3023 c-13 -16 -12 -17 4 -4 16 13 21 21 13 21 -2 0 -10 -8 -17
-17z"/>
<path d="M3433 3015 c0 -8 10 -23 21 -32 20 -17 20 -17 7 0 -7 9 -9 17 -4 17
11 0 41 -31 42 -42 1 -5 4 -8 7 -7 3 1 19 -12 35 -27 16 -15 29 -23 29 -17 0
10 -122 123 -132 123 -3 0 -5 -7 -5 -15z"/>
<path d="M2722 2960 c0 -14 2 -19 5 -12 2 6 2 18 0 25 -3 6 -5 1 -5 -13z"/>
<path d="M3017 2959 c7 -7 15 -10 18 -7 3 3 -2 9 -12 12 -14 6 -15 5 -6 -5z"/>
<path d="M3260 2950 c-9 -6 -10 -10 -3 -10 6 0 15 5 18 10 8 12 4 12 -15 0z"/>
<path d="M4715 2930 c-3 -6 1 -7 9 -4 18 7 21 14 7 14 -6 0 -13 -4 -16 -10z"/>
<path d="M3535 2900 c10 -11 20 -20 23 -20 3 0 -3 9 -13 20 -10 11 -20 20 -23
20 -3 0 3 -9 13 -20z"/>
<path d="M3356 2903 c-9 -9 85 -104 96 -97 4 3 22 -17 38 -43 22 -34 29 -55
25 -73 -4 -20 -3 -22 6 -10 8 12 9 8 5 -15 -5 -23 -4 -27 4 -15 9 12 11 9 7
-12 -2 -16 0 -28 4 -28 5 0 9 -31 9 -70 0 -38 -4 -70 -9 -70 -4 0 -6 -12 -4
-27 4 -23 2 -25 -7 -13 -10 13 -11 12 -6 -3 3 -10 6 -21 6 -23 0 -2 4 -4 9 -4
5 0 12 10 14 23 4 19 4 19 6 -5 0 -14 -5 -29 -11 -31 -10 -4 -10 -6 0 -6 22
-2 29 29 47 209 4 35 2 40 -5 25 -8 -16 -9 -13 -5 14 3 19 2 32 -1 28 -4 -3
-20 21 -35 54 -17 36 -33 58 -40 54 -6 -4 -9 0 -7 11 2 10 -1 19 -7 19 -5 0
-28 18 -50 41 -22 22 -30 28 -17 14 37 -43 25 -47 -18 -5 -21 21 -37 42 -34
46 6 10 -11 20 -20 12z m204 -253 c0 -8 -12 12 -25 45 -14 33 -25 62 -24 65 1
11 49 -96 49 -110z m7 -157 c-2 -27 -3 -5 -3 47 0 52 1 74 3 48 2 -27 2 -69 0
-95z"/>
<path d="M4369 2893 c-13 -16 -12 -17 4 -4 9 7 17 15 17 17 0 8 -8 3 -21 -13z"/>
<path d="M4659 2893 c-13 -16 -12 -17 4 -4 16 13 21 21 13 21 -2 0 -10 -8 -17
-17z"/>
<path d="M4595 2860 c-21 -21 -42 -37 -47 -34 -5 3 -7 0 -6 -8 2 -7 -2 -12 -9
-11 -8 2 -10 -4 -6 -14 4 -11 2 -14 -5 -9 -14 8 -37 -26 -66 -99 -13 -30 -25
-53 -27 -51 -2 3 -4 -37 -3 -87 l1 -92 -7 75 -6 75 -4 -85 c-3 -81 -4 -82 -9
-30 l-6 55 -8 -70 c-4 -38 -10 -81 -13 -95 -5 -20 -4 -22 6 -10 8 12 9 6 5
-25 l-6 -40 15 33 c8 18 22 35 30 38 10 4 14 16 12 32 -2 15 -1 20 1 12 7 -22
23 -37 23 -21 0 7 5 9 10 6 6 -3 10 0 10 7 0 7 3 24 6 38 5 20 4 22 -6 10 -9
-12 -10 -9 -9 15 2 17 -1 40 -5 52 -4 13 -4 28 0 35 5 7 7 29 6 48 -1 29 0 32
8 15 8 -16 9 -12 4 14 -4 21 -3 31 4 27 6 -4 8 3 5 16 -4 19 -3 20 6 8 9 -12
10 -10 6 10 -4 16 0 33 10 45 14 17 16 17 11 3 -7 -25 1 -22 15 3 8 17 8 20
-1 14 -8 -5 -11 -3 -8 6 3 8 10 14 16 14 6 0 17 7 24 15 11 12 11 12 -4 1 -10
-7 -18 -9 -18 -3 0 12 25 34 32 27 7 -7 51 43 54 60 3 20 3 20 -41 -25z m35
17 c0 -2 -12 -14 -27 -28 l-28 -24 24 28 c23 25 31 32 31 24z m-132 -142 c-12
-24 -23 -43 -26 -41 -4 5 36 86 43 86 3 0 -5 -20 -17 -45z m-41 -117 c-3 -7
-5 -2 -5 12 0 14 2 19 5 13 2 -7 2 -19 0 -25z m-10 -100 c-2 -18 -4 -6 -4 27
0 33 2 48 4 33 2 -15 2 -42 0 -60z m10 -80 c-3 -7 -5 -2 -5 12 0 14 2 19 5 13
2 -7 2 -19 0 -25z m-60 -40 c-3 -7 -5 -2 -5 12 0 14 2 19 5 13 2 -7 2 -19 0
-25z m20 0 c-3 -7 -5 -2 -5 12 0 14 2 19 5 13 2 -7 2 -19 0 -25z"/>
<path d="M4449 2873 c-13 -16 -12 -17 4 -4 16 13 21 21 13 21 -2 0 -10 -8 -17
-17z"/>
<path d="M5017 2867 c-3 -8 0 -21 8 -27 19 -15 27 3 11 25 -11 16 -14 16 -19
2z"/>
<path d="M3670 2840 c6 -11 13 -20 16 -20 2 0 0 9 -6 20 -6 11 -13 20 -16 20
-2 0 0 -9 6 -20z"/>
<path d="M2878 2803 c6 -2 18 -2 25 0 6 3 1 5 -13 5 -14 0 -19 -2 -12 -5z"/>
<path d="M5108 2803 c6 -2 18 -2 25 0 6 3 1 5 -13 5 -14 0 -19 -2 -12 -5z"/>
<path d="M4296 2765 c-9 -26 -7 -32 5 -12 6 10 9 21 6 23 -2 3 -7 -2 -11 -11z"/>
<path d="M4241 2574 c0 -11 3 -14 6 -6 3 7 2 16 -1 19 -3 4 -6 -2 -5 -13z"/>
<path d="M3601 2535 c-1 -22 -7 -69 -15 -104 -11 -55 -11 -62 0 -46 13 18 14
18 14 -3 0 -11 6 -25 14 -29 7 -4 16 -15 20 -23 3 -8 3 5 0 30 -4 25 -12 83
-19 130 -9 59 -13 73 -14 45z m6 -112 c-3 -10 -5 -4 -5 12 0 17 2 24 5 18 2
-7 2 -21 0 -30z"/>
<path d="M3782 2445 c0 -16 2 -22 5 -12 2 9 2 23 0 30 -3 6 -5 -1 -5 -18z"/>
<path d="M4491 2404 c0 -11 3 -14 6 -6 3 7 2 16 -1 19 -3 4 -6 -2 -5 -13z"/>
<path d="M3475 2380 c5 -9 4 -11 -4 -6 -12 8 -62 -19 -60 -32 3 -19 -2 -33
-11 -27 -6 4 -7 -1 -3 -11 4 -12 3 -15 -5 -10 -14 8 -14 0 -2 -29 8 -19 9 -18
9 4 1 13 4 22 7 18 3 -3 19 9 35 28 21 24 35 32 50 28 15 -4 17 -8 8 -13 -8
-6 -4 -9 12 -12 16 -2 24 -9 23 -21 -1 -9 2 -17 7 -17 16 0 10 39 -7 48 -15 8
-15 10 1 16 24 9 45 -11 44 -43 -1 -26 -1 -26 -8 3 -3 16 -12 31 -19 34 -11 3
-11 0 -1 -16 7 -12 9 -27 4 -38 -16 -37 6 -74 32 -52 15 12 7 31 -9 22 -7 -4
-8 -2 -4 5 6 9 11 9 22 0 11 -9 14 -8 15 2 1 8 3 25 4 39 3 25 -19 71 -33 68
-7 -2 -59 8 -96 19 -13 4 -16 1 -11 -7z m52 -26 c-3 -3 -12 -4 -19 -1 -8 3 -5
6 6 6 11 1 17 -2 13 -5z"/>
<path d="M4465 2379 c3 -4 -2 -10 -11 -13 -10 -4 -13 -2 -8 7 4 6 -5 1 -19
-12 -19 -17 -27 -34 -27 -58 0 -19 -4 -32 -9 -28 -5 3 -12 1 -16 -5 -6 -10 8
-15 30 -10 6 1 4 -4 -2 -11 -10 -10 -10 -16 3 -30 12 -13 12 -19 3 -25 -8 -5
-10 -3 -4 6 6 9 4 11 -5 5 -9 -6 -11 -4 -5 5 5 8 4 11 -3 6 -7 -4 -10 0 -7 12
2 10 -2 19 -9 19 -22 0 -14 -27 16 -53 16 -13 42 -24 58 -24 16 0 34 -2 42 -5
25 -10 50 20 54 63 2 23 -1 42 -6 42 -12 0 -31 -36 -23 -44 3 -3 1 -6 -6 -6
-7 0 -10 -4 -7 -9 9 -14 -47 -10 -72 5 -12 8 -20 20 -16 25 4 7 10 7 17 0 14
-14 37 -14 37 0 0 5 -6 7 -12 3 -10 -5 -10 -4 -1 6 9 10 9 18 1 34 -10 18 -9
19 4 8 13 -10 16 -9 21 8 3 11 13 20 22 20 9 0 14 4 11 9 -3 5 2 12 12 16 12
5 27 -5 53 -35 33 -38 37 -40 42 -21 3 14 1 19 -6 14 -6 -4 -8 0 -4 9 3 10 -5
26 -23 43 -21 21 -39 27 -79 29 -27 2 -48 0 -46 -5z m52 -25 c-3 -3 -12 -4
-19 -1 -8 3 -5 6 6 6 11 1 17 -2 13 -5z m-40 -29 c-9 -9 -14 -10 -19 -2 -4 7
-11 2 -17 -13 -5 -14 -10 -19 -10 -11 -1 21 29 51 44 44 11 -4 12 -8 2 -18z
m133 -1 c0 -8 -19 -13 -24 -6 -3 5 1 9 9 9 8 0 15 -2 15 -3z m-75 -114 c3 -5
1 -10 -4 -10 -6 0 -11 5 -11 10 0 6 2 10 4 10 3 0 8 -4 11 -10z m-5 -24 c0 -2
-7 -7 -16 -10 -8 -3 -12 -2 -9 4 6 10 25 14 25 6z"/>
<path d="M3782 2360 c0 -14 2 -19 5 -12 2 6 2 18 0 25 -3 6 -5 1 -5 -13z"/>
<path d="M3771 2304 c0 -11 3 -14 6 -6 3 7 2 16 -1 19 -3 4 -6 -2 -5 -13z"/>
<path d="M3621 2268 c-12 -32 -47 -61 -62 -52 -7 4 -10 3 -6 -3 4 -7 -3 -10
-17 -9 -13 0 -22 4 -19 9 2 4 -3 7 -11 7 -8 0 -13 6 -11 13 7 17 -11 41 -24
33 -17 -11 -13 -51 7 -73 9 -10 15 -14 12 -8 -3 6 2 4 10 -5 17 -18 90 -16 90
2 0 5 5 6 10 3 6 -3 10 -1 10 6 0 7 3 9 7 6 3 -4 12 -2 20 5 11 9 11 14 -3 29
-10 11 -13 19 -8 19 6 0 10 9 11 20 2 27 -5 25 -16 -2z m-134 -38 c-1 -11 -5
-20 -9 -20 -4 0 -8 9 -8 20 0 11 4 20 9 20 6 0 9 -9 8 -20z m149 -17 c-10 -11
-19 -7 -22 10 -2 15 0 16 12 6 8 -6 12 -14 10 -16z"/>
<path d="M4631 2283 c-1 -6 -4 -20 -7 -30 -5 -17 -5 -17 6 0 6 10 9 23 6 30
-3 9 -5 9 -5 0z"/>
<path d="M3371 2244 c0 -11 3 -14 6 -6 3 7 2 16 -1 19 -3 4 -6 -2 -5 -13z"/>
<path d="M3653 2245 c0 -8 4 -12 9 -9 5 3 6 10 3 15 -9 13 -12 11 -12 -6z"/>
<path d="M4044 2188 l-19 -23 23 19 c21 18 27 26 19 26 -2 0 -12 -10 -23 -22z"/>
<path d="M3895 2190 c17 -5 42 -24 58 -42 28 -33 35 -32 17 3 -12 22 -61 49
-87 48 -10 0 -4 -5 12 -9z"/>
<path d="M4160 2181 c0 -5 16 -12 36 -15 49 -10 128 -88 143 -141 27 -98 -4
-220 -92 -369 -31 -51 -63 -111 -72 -134 -15 -38 -15 -43 -1 -64 18 -25 22
-17 6 13 -8 14 -5 29 11 61 40 81 91 158 99 153 5 -3 12 0 16 6 4 8 3 9 -4 5
-17 -10 -16 -6 19 68 40 85 51 211 25 279 -18 47 -64 101 -105 121 -37 19 -81
28 -81 17z"/>
<path d="M4195 2140 c3 -5 12 -10 19 -10 8 0 20 -8 27 -17 11 -15 11 -16 -1
-5 -8 6 -20 12 -27 12 -7 0 3 -15 23 -33 32 -29 34 -35 25 -59 -5 -15 -7 -42
-4 -62 3 -19 2 -43 -2 -53 -5 -10 -7 -21 -7 -25 1 -5 -3 -8 -9 -8 -6 0 -9 -9
-6 -20 3 -13 1 -18 -6 -13 -7 4 -8 0 -4 -11 4 -9 3 -14 -2 -11 -5 3 -22 -7
-38 -21 -15 -15 -20 -21 -9 -13 10 7 24 14 32 15 21 3 2 -27 -45 -69 -36 -32
-80 -51 -166 -70 -11 -3 -2 -5 20 -6 80 -2 176 64 224 154 13 23 19 29 15 15
-17 -61 -89 -136 -159 -165 -11 -4 -58 -11 -105 -15 l-85 -7 76 -1 c102 -3
160 18 222 80 50 50 52 48 9 -9 -30 -40 -112 -82 -178 -89 -45 -6 -110 3 -169
21 -11 3 -6 -2 10 -12 23 -13 52 -18 121 -18 81 0 96 3 149 30 42 21 68 44 92
79 33 48 42 73 23 61 -6 -3 -7 1 -3 10 4 12 8 13 13 5 5 -9 10 -6 15 9 4 13 9
21 11 18 15 -14 -81 -178 -100 -171 -7 3 -19 -2 -26 -11 -7 -8 -19 -15 -27
-15 -7 0 -16 -6 -19 -14 -3 -8 -11 -13 -17 -10 -7 2 -25 0 -42 -5 -22 -7 -25
-10 -9 -10 32 -1 35 -11 13 -42 -25 -35 -49 -103 -49 -138 0 -15 -4 -31 -9
-37 -5 -5 -11 -18 -14 -29 -3 -11 -5 -3 -6 18 -1 23 3 36 9 32 6 -3 10 4 10
17 0 13 3 34 6 48 5 20 4 22 -6 10 -9 -12 -10 -11 -5 8 4 12 1 39 -5 58 -10
30 -10 38 1 45 9 6 1 6 -20 2 -22 -4 -32 -3 -28 4 7 11 -49 27 -63 18 -4 -3 9
-38 29 -79 43 -85 50 -148 27 -230 -17 -57 -44 -88 -81 -93 -25 -4 -26 3 -5
52 19 45 24 127 10 185 -7 29 -41 98 -78 158 -68 112 -104 189 -127 275 -7 29
-14 42 -14 31 -2 -47 42 -155 108 -271 109 -188 130 -277 92 -377 -11 -26 -13
-27 -29 -13 -14 13 -22 13 -47 3 -37 -16 -59 -41 -50 -57 4 -6 2 -15 -5 -19
-10 -6 -9 -14 1 -36 17 -35 53 -54 99 -53 27 0 30 2 15 8 -16 7 -15 9 12 14
58 11 132 96 119 135 -4 12 -2 11 9 -3 9 -11 11 -21 6 -23 -5 -2 -7 -10 -4
-19 4 -10 2 -14 -4 -10 -17 11 -20 -14 -9 -73 10 -55 10 -55 17 -20 5 27 7 29
8 10 0 -14 -2 -36 -6 -50 -7 -24 -8 -23 -19 15 l-12 40 -1 -52 c-1 -41 2 -53
14 -53 8 0 15 6 15 13 0 6 5 4 11 -5 12 -22 35 -23 43 -2 4 12 1 14 -13 9 -18
-6 -19 0 -18 111 1 85 -2 119 -11 122 -6 2 -12 8 -12 13 0 24 29 -7 35 -37 3
-19 13 -38 20 -41 8 -3 13 -9 10 -13 -3 -5 12 -25 32 -46 25 -24 30 -33 16
-25 -22 11 -23 10 -23 -31 0 -24 -7 -52 -15 -62 -16 -21 -11 -40 8 -30 7 3 -1
-6 -16 -20 -35 -33 -57 -33 -96 0 -17 14 -31 21 -31 16 0 -6 11 -19 25 -30 20
-16 22 -21 9 -26 -8 -3 -12 -2 -9 4 3 5 -5 15 -18 21 -14 6 -30 21 -35 33 -6
11 -11 16 -11 9 -1 -20 61 -84 75 -79 8 3 14 0 14 -6 0 -19 80 -1 107 24 35
31 56 84 48 119 -4 15 -2 36 4 46 7 12 10 13 11 4 0 -7 6 -11 15 -8 8 4 17 2
20 -3 4 -6 12 -10 18 -10 7 0 6 4 -3 11 -11 8 -8 9 16 5 24 -4 36 0 51 17 33
36 34 63 5 97 -30 35 -55 41 -26 8 10 -13 12 -18 5 -11 -26 23 -68 -11 -62
-49 0 -5 -8 -8 -18 -8 -11 0 -23 -5 -26 -10 -7 -12 37 -4 68 12 9 5 17 6 17 3
0 -3 -15 -13 -32 -21 -32 -14 -32 -15 -5 -9 19 4 26 2 22 -5 -3 -5 -15 -10
-25 -10 -29 0 -70 22 -63 33 3 6 1 7 -5 3 -23 -14 -92 106 -92 161 0 20 -3 24
-9 14 -6 -9 -11 -10 -15 -2 -4 6 -2 11 3 11 6 0 11 10 12 23 1 21 1 21 9 -3 9
-28 8 -32 15 60 1 14 7 36 14 50 11 25 11 25 6 -5 -2 -16 -6 -53 -7 -82 -2
-28 -6 -49 -10 -46 -5 2 -8 -3 -8 -12 0 -9 5 -13 11 -9 7 4 9 0 5 -13 -7 -22
36 -73 62 -73 13 0 13 2 0 18 -8 9 -19 24 -23 32 -8 13 -7 13 8 1 19 -15 22
-8 7 20 -6 10 -7 19 -2 19 4 0 7 26 7 58 -2 46 -1 49 3 12 l4 -45 13 70 c17
92 46 167 95 246 83 131 104 186 108 281 4 75 1 93 -18 133 -12 26 -38 56 -58
70 -37 25 -68 33 -57 15z m111 -106 c8 -18 13 -61 12 -96 l-1 -63 -6 76 c-4
47 -14 87 -25 104 -10 15 -13 24 -6 20 7 -4 18 -22 26 -41z m-7 -94 c-1 -25
-4 -56 -8 -70 -5 -16 -7 1 -7 45 1 39 -2 84 -6 100 l-7 30 14 -30 c8 -16 14
-50 14 -75z m-32 48 c-3 -8 -6 -5 -6 6 -1 11 2 17 5 13 3 -3 4 -12 1 -19z m10
-70 c-2 -13 -4 -5 -4 17 -1 22 1 32 4 23 2 -10 2 -28 0 -40z m-10 -50 c-3 -8
-6 -5 -6 6 -1 11 2 17 5 13 3 -3 4 -12 1 -19z m40 -20 c-3 -8 -6 -5 -6 6 -1
11 2 17 5 13 3 -3 4 -12 1 -19z m-122 -237 c-8 -17 -20 -31 -26 -31 -7 0 -6 8
3 23 8 12 18 28 22 35 16 27 17 3 1 -27z m-41 -84 c-3 -9 -11 -14 -16 -11 -6
4 -8 -2 -4 -17 6 -20 5 -21 -4 -7 -7 12 -7 24 2 43 12 27 33 20 22 -8z m-25
-77 c0 -10 -3 -8 -9 5 -8 19 -9 19 -9 1 -1 -11 -4 -17 -7 -13 -3 3 -3 15 1 28
6 17 9 19 16 8 5 -8 8 -21 8 -29z m-42 -2 c-3 -8 -6 -5 -6 6 -1 11 2 17 5 13
3 -3 4 -12 1 -19z m10 -110 c-2 -18 -4 -4 -4 32 0 36 2 50 4 33 2 -18 2 -48 0
-65z m-20 60 c-3 -8 -6 -5 -6 6 -1 11 2 17 5 13 3 -3 4 -12 1 -19z m24 -165
c13 -16 12 -17 -3 -4 -10 7 -18 15 -18 17 0 8 8 3 21 -13z m-264 -4 c6 -6 9
-17 6 -24 -6 -17 25 -24 57 -13 24 8 24 7 6 -7 -25 -19 -30 -19 -69 1 -31 16
-31 16 -15 -2 11 -11 32 -18 53 -18 20 0 30 -3 22 -8 -22 -14 -54 -9 -82 14
l-28 21 12 -21 c6 -12 22 -24 34 -26 12 -3 31 -7 42 -9 11 -3 2 -5 -21 -6 -47
-1 -80 26 -71 58 4 18 2 19 -15 10 -30 -16 -36 0 -9 22 26 21 61 25 78 8z
m400 -61 c-3 -8 -6 -5 -6 6 -1 11 2 17 5 13 3 -3 4 -12 1 -19z m33 3 c0 -5 -9
-19 -20 -32 l-20 -24 17 32 c19 34 23 39 23 24z m-173 -133 c-2 -13 -4 -5 -4
17 -1 22 1 32 4 23 2 -10 2 -28 0 -40z m-64 -125 c-7 -2 -21 -2 -30 0 -10 3
-4 5 12 5 17 0 24 -2 18 -5z"/>
<path d="M3839 2107 c-25 -19 -52 -66 -46 -81 3 -8 3 -17 0 -20 -9 -9 -9 -86
1 -86 4 0 6 -9 3 -20 -3 -11 0 -20 6 -20 6 0 7 -3 4 -7 -4 -3 1 -12 11 -20 10
-9 11 -12 2 -7 -8 4 -4 -5 9 -19 14 -15 25 -27 26 -27 7 0 -3 40 -17 65 -16
29 -21 67 -19 132 2 48 37 82 89 85 23 1 42 3 42 4 0 1 -8 8 -17 15 -14 12
-16 12 -9 -1 7 -13 6 -13 -6 0 -16 19 -58 22 -79 7z"/>
<path d="M4100 2098 c0 -6 -3 -9 -6 -5 -13 12 -38 -27 -40 -59 -1 -32 0 -33
13 -14 27 38 52 44 81 18 21 -18 23 -19 12 -3 -15 20 -14 20 8 1 12 -11 26
-33 31 -50 7 -24 9 -26 10 -9 1 12 7 24 14 27 9 5 9 7 -1 12 -6 3 -9 10 -6 16
4 6 -4 20 -18 32 -13 11 -17 17 -8 12 12 -8 12 -7 -1 8 -18 20 -89 31 -89 14z"/>
<path d="M3955 2031 c-3 -5 -2 -12 3 -15 5 -3 9 1 9 9 0 17 -3 19 -12 6z"/>
<path d="M3621 2014 c0 -11 3 -14 6 -6 3 7 2 16 -1 19 -3 4 -6 -2 -5 -13z"/>
<path d="M4371 2014 c0 -11 3 -14 6 -6 3 7 2 16 -1 19 -3 4 -6 -2 -5 -13z"/>
<path d="M4150 1998 c0 -10 -4 -18 -9 -18 -4 0 -7 -12 -4 -27 3 -23 2 -24 -5
-8 -8 18 -9 17 -16 -8 -4 -16 -14 -27 -24 -28 -14 0 -14 -2 3 -8 16 -7 14 -9
-14 -14 -19 -4 -30 -11 -26 -17 4 -7 -3 -9 -20 -6 -26 5 -27 5 -10 -14 19 -21
30 -27 20 -10 -5 9 14 8 77 -5 9 -1 24 5 33 15 16 17 15 18 -2 15 -10 -1 -17
-8 -16 -13 2 -6 -4 -9 -12 -6 -12 5 -10 10 7 24 12 10 29 15 38 12 13 -5 13
-3 1 11 -8 10 -12 20 -9 22 3 3 11 -2 19 -11 19 -23 -6 -64 -54 -87 -42 -21
-77 -17 -106 12 -11 11 -22 16 -26 13 -4 -4 0 11 9 33 16 37 16 40 -1 53 -16
11 -21 9 -43 -18 -14 -16 -34 -30 -45 -31 l-20 0 20 -10 c18 -8 17 -8 -5 -6
-16 2 -24 8 -22 17 2 8 0 11 -4 7 -4 -4 -14 3 -22 15 -11 18 -12 19 -7 3 4
-11 10 -26 13 -34 4 -10 1 -12 -9 -7 -8 4 -1 -4 15 -19 25 -23 36 -26 77 -23
26 1 45 0 43 -3 -2 -3 9 -12 24 -19 33 -16 104 -21 95 -7 -4 6 0 8 10 4 10 -3
17 -2 17 4 0 6 4 8 9 5 4 -3 16 3 26 14 10 11 21 18 25 15 4 -2 7 2 7 10 0 8
-5 11 -10 8 -7 -4 -8 1 -3 13 4 10 9 35 12 54 3 32 3 32 -4 6 l-7 -30 -13 28
c-6 15 -12 35 -12 44 0 9 -5 24 -10 32 -8 13 -10 12 -10 -2z m7 -55 c-3 -10
-5 -4 -5 12 0 17 2 24 5 18 2 -7 2 -21 0 -30z m-147 -34 c0 -5 -5 -9 -11 -9
-5 0 -7 -4 -4 -10 3 -5 1 -10 -5 -10 -6 0 -9 -4 -6 -9 7 -11 -18 -33 -27 -25
-4 4 -3 12 1 18 3 6 7 18 7 26 0 8 6 14 14 12 8 -2 11 3 8 12 -4 10 -1 13 9 9
7 -3 14 -9 14 -14z m131 -12 c-10 -9 -11 -8 -5 6 3 10 9 15 12 12 3 -3 0 -11
-7 -18z m-196 -58 c16 -16 -40 -10 -61 6 -18 14 -16 14 16 9 19 -4 39 -11 45
-15z m245 8 c0 -2 -10 -12 -22 -23 l-23 -19 19 23 c18 21 26 27 26 19z"/>
<path d="M3706 1800 c9 -34 25 -66 100 -195 34 -60 70 -138 80 -172 16 -57 16
-67 2 -124 -12 -49 -13 -59 -2 -45 18 25 28 97 20 149 -4 24 -21 72 -38 108
-40 80 -43 89 -23 64 30 -36 59 -99 71 -155 l12 -55 1 44 c1 46 -25 108 -80
188 -18 25 -49 76 -71 112 -38 65 -52 78 -22 20 8 -17 13 -33 10 -36 -3 -4
-19 23 -36 58 -17 35 -28 53 -24 39z m99 -146 c15 -25 25 -48 22 -50 -4 -5
-57 79 -57 90 0 14 10 3 35 -40z"/>
<path d="M4180 1785 c-7 -8 -16 -12 -21 -9 -10 6 -73 -25 -66 -32 3 -3 20 2
39 12 l33 17 -19 -22 c-11 -12 -33 -25 -50 -30 l-31 -9 28 -1 c19 -1 41 11 70
38 23 22 39 42 36 45 -3 4 -12 0 -19 -9z"/>
<path d="M3700 1680 c6 -11 13 -20 16 -20 2 0 0 9 -6 20 -6 11 -13 20 -16 20
-2 0 0 -9 6 -20z"/>
<path d="M3860 1615 c7 -8 17 -12 22 -9 6 4 5 10 -3 15 -22 14 -33 10 -19 -6z"/>
<path d="M3760 1580 c6 -11 13 -20 16 -20 2 0 0 9 -6 20 -6 11 -13 20 -16 20
-2 0 0 -9 6 -20z"/>
<path d="M4230 1579 c-7 -11 -10 -23 -7 -25 2 -2 9 7 15 21 14 30 7 33 -8 4z"/>
<path d="M4045 1543 c-14 -21 -25 -44 -24 -53 0 -8 4 -5 10 9 5 13 18 36 30
52 11 16 18 29 15 29 -3 0 -17 -17 -31 -37z"/>
<path d="M4141 1420 c-6 -28 -10 -61 -10 -73 1 -14 4 -9 9 13 l7 35 2 -41 c2
-57 20 -107 37 -100 20 8 17 -4 -3 -20 -15 -10 -11 -10 19 -1 l38 12 -31 15
c-16 9 -27 19 -23 23 4 4 2 7 -4 7 -6 0 -9 7 -5 17 4 11 3 14 -5 9 -9 -5 -12
9 -11 51 0 44 3 53 10 38 7 -15 7 -11 3 15 -10 56 -21 56 -33 0z"/>
<path d="M3832 1400 c0 -14 2 -19 5 -12 2 6 2 18 0 25 -3 6 -5 1 -5 -13z"/>
<path d="M3832 1330 c0 -14 2 -19 5 -12 2 6 2 18 0 25 -3 6 -5 1 -5 -13z"/>
<path d="M4261 1223 c7 -12 15 -20 18 -17 3 2 -3 12 -13 22 -17 16 -18 16 -5
-5z"/>
<path d="M4022 1145 c-1 -16 3 -48 7 -70 l9 -40 0 40 c0 22 -4 54 -8 70 l-8
30 0 -30z"/>
<path d="M3920 1135 c-13 -13 -32 -27 -42 -31 -15 -4 -17 -9 -7 -20 7 -8 9
-28 5 -51 -5 -31 -4 -34 5 -20 6 10 9 34 7 53 -2 20 1 35 8 38 8 3 12 -7 12
-30 0 -20 3 -38 7 -42 4 -4 6 13 5 38 -3 69 3 72 10 5 l7 -60 0 61 c0 33 3 66
7 72 12 20 1 14 -24 -13z"/>
<path d="M3984 992 c4 -7 2 -12 -4 -12 -6 0 -8 -5 -4 -12 5 -9 2 -9 -9 1 -11
9 -17 10 -17 2 0 -19 51 -34 78 -22 30 14 18 35 -15 26 -15 -3 -22 -2 -19 4 4
5 1 13 -5 17 -8 4 -9 3 -5 -4z"/>
</g>
</svg>
