<?xml version="1.0" encoding="iso-8859-1"?>
<!-- Uploaded to: SVG Repo, www.svgrepo.com, Generator: SVG Repo Mixer Tools -->
<svg fill="#03001C" height="800px" width="800px" version="1.1" id="Layer_1" xmlns="http://www.w3.org/2000/svg" xmlns:xlink="http://www.w3.org/1999/xlink" 
	 viewBox="0 0 512 512" xml:space="preserve">
<g>
	<g>
		<g>
			<path d="M370.354,195.136c-0.002-0.001-0.004-0.002-0.006-0.003C370.35,195.135,370.352,195.136,370.354,195.136z"/>
			<path d="M428.522,0C416.254,0,111.996,0,83.478,0C37.448,0,0,37.448,0,83.478v345.043C0,474.552,37.448,512,83.478,512h345.043
				c46.03,0,83.478-37.448,83.478-83.478V83.478C512,37.448,474.552,0,428.522,0z M196.133,33.391h119.735l41.299,41.299
				l-52.282,20.54c-8.712-7.327-19.941-11.753-32.189-11.753h-33.391c-12.248,0-23.477,4.425-32.189,11.753l-52.283-20.539
				L196.133,33.391z M321.93,176.114c0.551-2.972,0.853-6.029,0.853-9.157v-33.391c0-3.128-0.302-6.185-0.854-9.156
				c10.262-4.031,73.582-28.907,84.332-33.13l0.014,117.835c-0.023,0.033-0.092,0.086-0.166,0.069
				c-28.672-11.264-35.186-13.823-35.755-14.047C371.273,195.498,385.513,201.092,321.93,176.114z M289.391,133.565v33.391
				c0,9.206-7.49,16.696-16.696,16.696h-33.391c-9.206,0-16.696-7.49-16.696-16.696v-33.391c0-9.206,7.49-16.696,16.696-16.696
				h33.391C281.902,116.87,289.391,124.359,289.391,133.565z M190.071,176.112c-2.786,1.094-78.51,30.842-84.332,33.13V91.28
				c10.821,4.251,74.132,29.123,84.332,33.13c-0.551,2.971-0.854,6.028-0.854,9.156v33.391
				C189.217,170.084,189.52,173.142,190.071,176.112z M83.478,478.609c-27.618,0-50.087-22.469-50.087-50.087V83.478
				c0-27.618,22.469-50.087,50.087-50.087h65.432L120.93,61.372l-2.981-1.171c-21.89-8.603-45.601,7.568-45.601,31.078v117.963
				c0,18.547,15.073,33.395,33.388,33.395c0.852,0,1.704-0.041,2.554-0.106l120.448,236.078H83.478z M140.191,231.582l66.924-26.291
				c8.712,7.327,19.941,11.753,32.189,11.753h33.391c12.248,0,23.477-4.425,32.189-11.753l66.924,26.291L256,458.567
				L140.191,231.582z M478.609,428.522c0,27.618-22.469,50.087-50.087,50.087h-145.26l120.469-236.121
				c0.807,0.059,1.615,0.097,2.422,0.097c18.422-0.002,33.499-14.941,33.499-33.505V91.28c0-23.514-23.714-39.679-45.6-31.078
				l-2.982,1.171l-27.981-27.981h65.432c27.618,0,50.087,22.469,50.087,50.087V428.522z"/>
			<path d="M370.348,195.134C370.296,195.114,370.3,195.115,370.348,195.134L370.348,195.134z"/>
		</g>
	</g>
</g>
<g>
	<g>
		<circle cx="256" cy="250.435" r="16.696"/>
	</g>
</g>
<g>
	<g>
		<circle cx="256" cy="317.217" r="16.696"/>
	</g>
</g>
</svg>